<svg version="1.1" id="Layer_1" xmlns="http://www.w3.org/2000/svg" xmlns:xlink="http://www.w3.org/1999/xlink" x="0px" y="0px"
	 width="100%" viewBox="0 0 512 512" enable-background="new 0 0 512 512" xml:space="preserve">
<path fill="#000000" opacity="1.000000" stroke="none" 
	d="
M513.000000,204.000000 
	C513.000000,306.920502 513.000000,409.840973 513.000000,513.000000 
	C427.312592,513.000000 341.624939,513.000000 255.334412,512.620728 
	C255.484039,509.290039 256.822571,506.344818 256.854309,503.385620 
	C256.904236,498.726166 253.756409,496.946747 249.299255,496.976654 
	C243.863266,497.013153 241.093369,498.746918 241.136703,503.243042 
	C241.168106,506.501038 242.337875,509.748077 243.000000,513.000000 
	C236.645599,513.000000 230.291214,513.000000 223.334152,512.620789 
	C223.196182,511.379791 223.774521,510.559540 224.107330,509.649536 
	C226.490509,503.133545 224.839127,496.078888 215.922134,496.922852 
	C211.352585,497.355377 206.706940,496.983948 202.050613,496.610107 
	C196.356888,483.734985 188.319183,472.980286 177.235596,464.904938 
	C169.057144,458.946198 160.290756,453.759277 149.832901,451.555298 
	C145.433777,450.461151 141.255875,449.690521 137.047897,448.457123 
	C137.030807,432.678925 137.043793,417.363464 137.393036,402.144989 
	C142.472031,404.099487 147.214737,405.956970 152.377350,407.910431 
	C153.876465,408.342957 154.944611,408.928986 156.036636,408.977417 
	C166.739975,409.452637 177.246475,408.434631 187.546051,405.211517 
	C209.537933,398.329437 224.756470,382.380829 239.914337,366.355804 
	C242.475006,363.648621 244.763458,360.610687 246.761978,357.461700 
	C249.974426,352.399933 247.687271,345.396912 242.222168,344.181732 
	C228.327408,341.092133 214.376297,338.137604 199.514130,339.096313 
	C190.005646,338.841400 181.124237,339.261719 172.246216,341.781677 
	C158.974121,345.548950 147.720551,352.651093 136.988007,360.426300 
	C137.016235,347.325409 137.036942,334.686127 137.393768,322.144165 
	C142.490005,324.108246 147.250107,325.975006 152.427628,327.931519 
	C154.257462,328.354340 155.658203,328.913025 157.084045,328.986847 
	C180.241257,330.185944 200.452744,322.831787 218.326385,308.007385 
	C232.807755,320.535309 248.269638,330.728394 265.574402,338.435791 
	C283.153107,346.265198 301.440002,351.445496 320.382904,352.719452 
	C340.710388,354.086487 361.145538,353.498535 381.201416,348.096863 
	C408.691681,340.692841 433.255890,327.952240 454.369293,308.968323 
	C467.338654,297.307007 478.578735,284.106323 487.710022,269.011566 
	C499.556335,249.428619 507.370789,228.559265 511.078705,206.048325 
	C511.205139,205.280884 512.336853,204.679031 513.000000,204.000000 
z"/>
<path fill="#000000" opacity="1.000000" stroke="none" 
	d="
M1.000002,499.000000 
	C1.000000,333.089966 1.000000,167.179932 1.000000,1.000000 
	C103.687401,1.000000 206.375046,1.000000 309.862457,1.322973 
	C306.778992,2.581760 302.895416,3.516107 299.012604,4.453646 
	C280.990845,8.805149 263.848541,15.245049 247.725037,24.587608 
	C228.405899,35.781830 212.183060,50.472515 198.217224,67.621353 
	C188.258057,79.850342 180.432587,93.517998 174.349762,108.158379 
	C166.612427,126.780960 161.683517,146.024506 161.044846,166.230270 
	C160.776749,174.712021 160.949738,183.209854 161.041885,191.699066 
	C161.060852,193.444962 161.612534,195.185074 161.588806,197.080032 
	C152.153625,200.873917 144.001053,205.982315 137.035599,212.487579 
	C137.046219,205.380173 137.079193,198.737854 137.422531,191.950470 
	C140.832565,188.887573 144.926147,186.507965 146.850815,182.953842 
	C153.364792,170.925018 155.340958,158.174637 150.057129,144.592468 
	C147.059158,134.083054 141.553131,125.346085 135.465164,116.875275 
	C131.776749,111.743225 123.250320,111.117531 120.268906,116.548584 
	C115.076111,126.007996 109.814445,135.562851 106.022507,145.620911 
	C102.156647,155.875092 102.787308,166.688843 106.934799,177.432007 
	C109.796135,184.333450 113.804184,189.714905 120.935867,192.553955 
	C120.972313,197.641083 120.968628,202.270187 120.635620,206.817139 
	C114.906898,203.808182 109.507484,200.881409 103.915459,197.624619 
	C92.208000,192.880875 80.270538,191.086700 68.004288,192.048599 
	C58.371632,192.803986 48.751766,193.826157 39.165962,195.042923 
	C31.279015,196.044052 27.870987,203.460617 32.984577,209.227264 
	C39.644882,216.738190 46.955700,223.697433 54.281372,230.580338 
	C57.063457,233.194290 60.664066,234.937073 64.040611,237.392044 
	C68.255943,240.066879 72.109673,242.956116 76.427422,244.689560 
	C90.854202,250.481506 105.665039,252.923721 120.977722,248.557816 
	C120.982681,257.634827 120.973648,266.249329 120.606781,274.891815 
	C114.526390,271.906921 108.803833,268.894104 102.887772,265.567169 
	C94.559998,263.169495 86.510796,259.814728 78.273964,259.263519 
	C60.396149,258.067017 42.640491,259.599152 24.970146,263.619293 
	C16.699825,265.500885 14.645019,273.529297 19.244884,279.558319 
	C20.730429,281.505371 22.239573,283.482391 24.012960,285.153900 
	C33.589954,294.180786 43.253368,303.115936 53.037056,312.396027 
	C73.803848,327.173706 96.089828,333.188843 120.978340,326.561920 
	C120.982834,336.304077 120.973724,345.583954 120.606697,354.891724 
	C115.185577,352.246155 110.122368,349.572693 104.881935,346.584381 
	C95.833588,343.846802 87.077454,340.041412 78.067169,339.292023 
	C59.865475,337.778290 41.663525,339.314240 23.845924,343.975311 
	C17.002928,345.765381 13.938552,352.485901 18.566088,357.898560 
	C27.020321,367.787140 35.870525,377.397400 45.223156,386.432739 
	C50.036068,391.082397 56.286800,394.243713 62.066673,398.385559 
	C80.899696,408.444458 100.290840,412.354797 120.978058,406.564941 
	C120.977516,420.981750 120.963196,434.936554 120.518684,448.936157 
	C116.701843,449.487183 113.269737,449.789764 109.936172,450.533813 
	C92.715935,454.377380 78.307907,463.227936 67.139008,476.671265 
	C62.149166,482.677216 58.940853,490.163269 54.460823,496.986023 
	C49.390003,496.997253 44.780685,496.922516 40.175240,497.023895 
	C35.212486,497.133118 32.893883,499.309937 33.101574,504.292358 
	C33.223454,507.216217 34.334106,510.098846 35.000000,513.000000 
	C28.645601,513.000000 22.291203,513.000000 15.334146,512.620789 
	C15.365572,511.093384 16.579645,509.916656 16.524796,508.802399 
	C16.361490,505.484833 16.754032,501.275391 14.917856,499.162781 
	C13.282196,497.280853 8.979960,497.441528 5.823927,497.272308 
	C4.251352,497.187988 2.610159,498.383453 1.000002,499.000000 
z"/>
<path fill="#E58B6C" opacity="1.000000" stroke="none" 
	d="
M513.000000,203.531342 
	C512.336853,204.679031 511.205139,205.280884 511.078705,206.048325 
	C507.370789,228.559265 499.556335,249.428619 487.710022,269.011566 
	C478.578735,284.106323 467.338654,297.307007 454.369293,308.968323 
	C433.255890,327.952240 408.691681,340.692841 381.201416,348.096863 
	C361.145538,353.498535 340.710388,354.086487 320.382904,352.719452 
	C301.440002,351.445496 283.153107,346.265198 265.574402,338.435791 
	C248.269638,330.728394 232.807755,320.535309 218.462708,307.709198 
	C222.450516,303.418427 226.614609,299.572021 231.034821,295.996979 
	C247.648773,304.484589 264.830750,309.781525 283.551392,310.970062 
	C312.421875,321.722870 341.501282,324.069885 371.201141,316.903290 
	C430.425812,302.612274 474.855652,251.472824 480.031738,190.892441 
	C481.058502,178.875351 479.942169,166.675156 479.812927,154.218842 
	C479.580658,153.256699 479.349640,152.635132 479.030029,151.691299 
	C478.903015,150.926270 478.864563,150.483521 479.156250,149.817596 
	C479.989227,147.909897 480.945221,146.217712 480.916992,144.542114 
	C480.788361,136.903259 480.550781,129.257965 480.045319,121.635345 
	C478.652069,100.625061 473.061676,80.725563 463.944733,61.767124 
	C462.091766,57.913933 460.665741,53.855446 459.354828,50.021156 
	C474.162933,63.644634 485.535065,79.507538 494.502991,97.059158 
	C502.640991,112.986427 508.117279,129.863632 511.070557,147.541443 
	C511.221222,148.443237 512.334778,149.184174 513.000000,150.000000 
	C513.000000,167.687561 513.000000,185.375122 513.000000,203.531342 
z"/>
<path fill="#F09B73" opacity="1.000000" stroke="none" 
	d="
M459.042847,49.891617 
	C460.665741,53.855446 462.091766,57.913933 463.944733,61.767124 
	C473.061676,80.725563 478.652069,100.625061 480.045319,121.635345 
	C480.550781,129.257965 480.788361,136.903259 480.916992,144.542114 
	C480.945221,146.217712 479.989227,147.909897 478.954742,149.501984 
	C473.403076,125.469276 463.553741,103.836555 447.573792,84.776779 
	C409.603424,41.732845 362.368927,24.832386 306.528839,36.300793 
	C235.869507,50.812756 186.249786,116.787483 192.979233,191.961563 
	C189.716599,192.231964 186.887253,192.223572 184.143112,192.702957 
	C176.715607,194.000504 169.324326,195.505264 161.918671,196.927856 
	C161.612534,195.185074 161.060852,193.444962 161.041885,191.699066 
	C160.949738,183.209854 160.776749,174.712021 161.044846,166.230270 
	C161.683517,146.024506 166.612427,126.780960 174.349762,108.158379 
	C180.432587,93.517998 188.258057,79.850342 198.217224,67.621353 
	C212.183060,50.472515 228.405899,35.781830 247.725037,24.587608 
	C263.848541,15.245049 280.990845,8.805149 299.012604,4.453646 
	C302.895416,3.516107 306.778992,2.581760 310.331116,1.322973 
	C327.687561,1.000000 345.375122,1.000000 363.191467,1.314516 
	C368.459106,2.875588 373.614807,4.057263 378.733826,5.380586 
	C395.578796,9.735175 411.656677,15.931090 426.647003,24.905993 
	C438.447510,31.971083 449.625336,39.771206 459.042847,49.891617 
z"/>
<path fill="#000000" opacity="1.000000" stroke="none" 
	d="
M459.354828,50.021160 
	C449.625336,39.771206 438.447510,31.971083 426.647003,24.905993 
	C411.656677,15.931090 395.578796,9.735175 378.733826,5.380586 
	C373.614807,4.057263 368.459106,2.875588 363.660095,1.314516 
	C413.593658,1.000000 463.187347,1.000000 513.000000,1.000000 
	C513.000000,50.354012 513.000000,99.708351 513.000000,149.531342 
	C512.334778,149.184174 511.221222,148.443237 511.070557,147.541443 
	C508.117279,129.863632 502.640991,112.986427 494.502991,97.059158 
	C485.535065,79.507538 474.162933,63.644634 459.354828,50.021160 
z"/>
<path fill="#876559" opacity="1.000000" stroke="none" 
	d="
M35.468658,513.000000 
	C34.334106,510.098846 33.223454,507.216217 33.101574,504.292358 
	C32.893883,499.309937 35.212486,497.133118 40.175240,497.023895 
	C44.780685,496.922516 49.390003,496.997253 54.934204,496.992188 
	C79.896225,496.951477 103.921661,496.913055 128.419617,496.911407 
	C153.293335,496.957397 177.694504,496.966644 202.095688,496.975891 
	C206.706940,496.983948 211.352585,497.355377 215.922134,496.922852 
	C224.839127,496.078888 226.490509,503.133545 224.107330,509.649536 
	C223.774521,510.559540 223.196182,511.379791 222.865753,512.620789 
	C160.645767,513.000000 98.291542,513.000000 35.468658,513.000000 
z"/>
<path fill="#876559" opacity="1.000000" stroke="none" 
	d="
M1.000002,499.474121 
	C2.610159,498.383453 4.251352,497.187988 5.823927,497.272308 
	C8.979960,497.441528 13.282196,497.280853 14.917856,499.162781 
	C16.754032,501.275391 16.361490,505.484833 16.524796,508.802399 
	C16.579645,509.916656 15.365572,511.093384 14.865744,512.620789 
	C10.409399,513.000000 5.818798,513.000000 1.000000,513.000000 
	C1.000000,508.651093 1.000000,504.299652 1.000002,499.474121 
z"/>
<path fill="#876559" opacity="1.000000" stroke="none" 
	d="
M243.460648,513.000000 
	C242.337875,509.748077 241.168106,506.501038 241.136703,503.243042 
	C241.093369,498.746918 243.863266,497.013153 249.299255,496.976654 
	C253.756409,496.946747 256.904236,498.726166 256.854309,503.385620 
	C256.822571,506.344818 255.484039,509.290039 254.865753,512.620728 
	C251.307098,513.000000 247.614182,513.000000 243.460648,513.000000 
z"/>
<path fill="#49AD4D" opacity="1.000000" stroke="none" 
	d="
M120.948883,448.891327 
	C120.963196,434.936554 120.977516,420.981750 120.990204,406.090027 
	C120.980583,388.389984 120.972603,371.626923 120.964615,354.863861 
	C120.973724,345.583954 120.982834,336.304077 120.989830,326.087158 
	C120.980019,308.388062 120.972313,291.625977 120.964615,274.863861 
	C120.973648,266.249329 120.982681,257.634827 120.988724,248.083450 
	C120.978798,233.730820 120.971870,220.315063 120.964935,206.899292 
	C120.968628,202.270187 120.972313,197.641083 121.350067,192.605743 
	C126.853462,192.164856 131.982803,192.130188 137.112152,192.095520 
	C137.079193,198.737854 137.046219,205.380173 137.017609,212.957962 
	C137.033539,223.945084 137.045090,233.996765 137.034332,244.514404 
	C137.001450,256.949768 136.990891,268.919159 136.969604,281.364136 
	C136.991806,295.242096 137.024719,308.644470 137.057632,322.046814 
	C137.036942,334.686127 137.016235,347.325409 136.978668,360.903076 
	C136.993439,375.243591 137.025101,388.645813 137.056763,402.048004 
	C137.043793,417.363464 137.030807,432.678925 136.581116,448.529938 
	C131.079224,449.007446 126.014053,448.949371 120.948883,448.891327 
z"/>
<path fill="#67BB6B" opacity="1.000000" stroke="none" 
	d="
M199.975967,339.165588 
	C214.376297,338.137604 228.327408,341.092133 242.222168,344.181732 
	C247.687271,345.396912 249.974426,352.399933 246.761978,357.461700 
	C244.763458,360.610687 242.475006,363.648621 239.914337,366.355804 
	C224.756470,382.380829 209.537933,398.329437 187.546051,405.211517 
	C177.246475,408.434631 166.739975,409.452637 156.036636,408.977417 
	C154.944611,408.928986 153.876465,408.342957 152.502853,407.603943 
	C152.810806,406.650940 153.336243,405.966980 154.026581,405.569122 
	C179.838715,390.691345 194.812592,368.325623 199.975967,339.165588 
z"/>
<path fill="#67BB6B" opacity="1.000000" stroke="none" 
	d="
M230.778717,295.725647 
	C226.614609,299.572021 222.450516,303.418427 218.150101,307.563019 
	C200.452744,322.831787 180.241257,330.185944 157.084045,328.986847 
	C155.658203,328.913025 154.257462,328.354340 152.629211,327.670471 
	C162.767120,320.648254 173.024811,313.912445 180.652420,303.896851 
	C190.801605,290.570251 198.536499,276.257660 200.533142,259.156860 
	C206.965439,259.389648 212.948074,259.685669 219.318008,260.103088 
	C225.141251,261.119629 230.577179,262.014801 236.358444,263.058563 
	C248.738525,266.633240 250.581406,270.380402 244.595856,279.987244 
	C243.171478,281.679291 242.024033,283.201294 240.594528,284.912262 
	C237.134552,288.642700 233.956635,292.184174 230.778717,295.725647 
z"/>
<path fill="#A1887F" opacity="1.000000" stroke="none" 
	d="
M120.518692,448.936157 
	C126.014053,448.949371 131.079224,449.007446 136.611176,448.992676 
	C141.255875,449.690521 145.433777,450.461151 149.797867,451.955994 
	C145.980606,462.300720 142.326050,472.087891 137.840302,481.478027 
	C135.231400,486.939270 131.289307,491.763672 127.947090,496.874634 
	C103.921661,496.913055 79.896225,496.951477 55.397408,496.983765 
	C58.940853,490.163269 62.149166,482.677216 67.139008,476.671265 
	C78.307907,463.227936 92.715935,454.377380 109.936172,450.533813 
	C113.269737,449.789764 116.701843,449.487183 120.518692,448.936157 
M89.675262,480.497772 
	C91.648354,485.655609 95.332924,488.755676 100.888802,488.888611 
	C106.052444,489.012115 109.707085,486.174500 111.882462,481.635773 
	C114.095917,477.017548 112.944618,472.238281 109.042366,468.477875 
	C105.264816,464.837555 100.225090,464.031647 95.727432,466.348694 
	C90.774910,468.900085 88.672485,473.368134 89.675262,480.497772 
z"/>
<path fill="#81C784" opacity="1.000000" stroke="none" 
	d="
M199.514130,339.096313 
	C194.812592,368.325623 179.838715,390.691345 154.026581,405.569122 
	C153.336243,405.966980 152.810806,406.650940 152.082962,407.507996 
	C147.214737,405.956970 142.472031,404.099487 137.393036,402.144989 
	C137.025101,388.645813 136.993439,375.243591 136.971146,361.364624 
	C147.720551,352.651093 158.974121,345.548950 172.246216,341.781677 
	C181.124237,339.261719 190.005646,338.841400 199.514130,339.096313 
M162.169617,361.103119 
	C157.789703,360.765686 154.186935,362.552673 153.579926,366.821014 
	C153.204071,369.463989 154.475784,373.025360 156.251480,375.120483 
	C158.574371,377.861176 162.572266,377.966278 165.263947,375.499542 
	C167.110001,373.807831 169.111252,370.471588 168.612808,368.478088 
	C167.934708,365.766022 164.938431,363.633606 162.169617,361.103119 
z"/>
<path fill="#81C784" opacity="1.000000" stroke="none" 
	d="
M200.083481,259.220123 
	C198.536499,276.257660 190.801605,290.570251 180.652420,303.896851 
	C173.024811,313.912445 162.767120,320.648254 152.211792,327.580750 
	C147.250107,325.975006 142.490005,324.108246 137.393768,322.144165 
	C137.024719,308.644470 136.991806,295.242096 137.309235,281.304016 
	C139.323914,279.462708 140.996536,278.167572 142.651215,276.849976 
	C153.953705,267.849762 166.794205,262.321503 181.428986,259.905640 
	C187.939346,259.714447 194.011414,259.467285 200.083481,259.220123 
M163.376266,291.937744 
	C168.536865,297.237213 173.699005,298.377197 178.863678,295.358063 
	C183.504379,292.645203 185.882187,287.160889 184.574509,282.186035 
	C182.756683,275.270416 175.640076,271.417480 169.075226,273.794708 
	C161.849106,276.411469 159.373322,283.476288 163.376266,291.937744 
M147.087997,310.356964 
	C150.072556,313.237610 153.774017,314.244781 156.960114,311.661041 
	C158.966736,310.033752 160.824234,306.664490 160.598282,304.280457 
	C160.372314,301.896393 157.846436,298.527039 155.639542,297.855927 
	C153.194550,297.112427 149.330338,298.142792 147.232117,299.829132 
	C144.072144,302.368774 144.308563,306.263916 147.087997,310.356964 
z"/>
<path fill="#9C7B70" opacity="1.000000" stroke="none" 
	d="
M128.419617,496.911377 
	C131.289307,491.763672 135.231400,486.939270 137.840302,481.478027 
	C142.326050,472.087891 145.980606,462.300720 150.019089,452.279510 
	C160.290756,453.759277 169.057144,458.946198 177.235596,464.904938 
	C188.319183,472.980286 196.356888,483.734985 202.050613,496.610107 
	C177.694504,496.966644 153.293335,496.957397 128.419617,496.911377 
z"/>
<path fill="#81C784" opacity="1.000000" stroke="none" 
	d="
M61.887817,398.077576 
	C56.286800,394.243713 50.036068,391.082397 45.223156,386.432739 
	C35.870525,377.397400 27.020321,367.787140 18.566088,357.898560 
	C13.938552,352.485901 17.002928,345.765381 23.845924,343.975311 
	C41.663525,339.314240 59.865475,337.778290 78.067169,339.292023 
	C87.077454,340.041412 95.833588,343.846802 104.721146,346.949890 
	C104.519341,348.428619 104.235542,349.215424 104.092400,350.027008 
	C99.758545,374.597656 85.606071,390.536743 61.887817,398.077576 
M58.663727,367.483398 
	C64.688438,362.774994 66.413490,357.632690 63.835636,352.066101 
	C61.532688,347.093109 55.903664,344.179596 50.727562,345.281525 
	C43.997219,346.714264 39.701000,353.498047 41.457390,359.919189 
	C43.431183,367.135101 50.046509,370.302277 58.663727,367.483398 
M77.596504,376.181671 
	C81.242912,377.743286 84.985573,377.323456 86.883934,374.021027 
	C88.236618,371.667938 88.772102,367.750000 87.709839,365.428253 
	C86.750359,363.331177 83.001213,361.158478 80.713493,361.382324 
	C78.172249,361.630951 75.015152,364.067963 73.704453,366.428497 
	C71.723656,369.995941 73.471199,373.478363 77.596504,376.181671 
z"/>
<path fill="#81C784" opacity="1.000000" stroke="none" 
	d="
M52.886986,312.082733 
	C43.253368,303.115936 33.589954,294.180786 24.012960,285.153900 
	C22.239573,283.482391 20.730429,281.505371 19.244884,279.558319 
	C14.645019,273.529297 16.699825,265.500885 24.970146,263.619293 
	C42.640491,259.599152 60.396149,258.067017 78.273964,259.263519 
	C86.510796,259.814728 94.559998,263.169495 102.867386,265.972290 
	C99.421555,289.001648 76.866425,309.415070 52.886986,312.082733 
M41.039032,276.606537 
	C41.357044,278.228607 41.398418,279.971466 42.044250,281.450409 
	C44.088543,286.131836 47.771290,288.850372 52.913750,288.901794 
	C58.071404,288.953430 61.821442,286.276245 63.902199,281.621582 
	C66.029785,276.862152 65.032112,272.487335 61.431931,268.755737 
	C58.283417,265.492310 54.433117,264.242065 50.042244,265.501068 
	C44.898907,266.975861 41.973682,270.547424 41.039032,276.606537 
M77.596504,288.181671 
	C81.242912,289.743286 84.985558,289.323456 86.883919,286.021027 
	C88.236603,283.667938 88.772125,279.750000 87.709862,277.428253 
	C86.750381,275.331146 83.001213,273.158417 80.713493,273.382294 
	C78.172249,273.630920 75.015160,276.067963 73.704468,278.428528 
	C71.723663,281.995941 73.471199,285.478363 77.596504,288.181671 
z"/>
<path fill="#66BB6A" opacity="1.000000" stroke="none" 
	d="
M53.037056,312.396027 
	C76.866425,309.415070 99.421555,289.001648 103.060890,266.286407 
	C108.803833,268.894104 114.526390,271.906921 120.606781,274.891815 
	C120.972313,291.625977 120.980019,308.388062 120.976227,325.624939 
	C96.089828,333.188843 73.803848,327.173706 53.037056,312.396027 
z"/>
<path fill="#81C784" opacity="1.000000" stroke="none" 
	d="
M137.056641,244.048431 
	C137.045090,233.996765 137.033539,223.945084 137.039948,213.423035 
	C144.001053,205.982315 152.153625,200.873917 161.588806,197.080048 
	C169.324326,195.505264 176.715607,194.000504 184.143112,192.702957 
	C186.887253,192.223572 189.716599,192.231964 193.365204,192.005783 
	C195.836227,192.083237 197.449142,192.172775 198.967163,192.617020 
	C193.113083,216.337814 180.243759,234.972809 160.101913,249.506531 
	C161.836090,249.822800 162.463654,249.937256 162.875610,250.406525 
	C153.585678,250.582779 144.644531,249.896332 137.056641,244.048431 
M155.087234,222.357651 
	C158.072189,225.238754 161.774170,226.246048 164.960709,223.661911 
	C166.967590,222.034409 168.825317,218.664642 168.599319,216.280304 
	C168.373291,213.895874 165.847076,210.526062 163.639877,209.854843 
	C161.194580,209.111221 157.329788,210.141861 155.231293,211.828445 
	C152.070923,214.368484 152.307236,218.264084 155.087234,222.357651 
z"/>
<path fill="#81C784" opacity="1.000000" stroke="none" 
	d="
M63.891613,237.076904 
	C60.664066,234.937073 57.063457,233.194290 54.281372,230.580338 
	C46.955700,223.697433 39.644882,216.738190 32.984577,209.227264 
	C27.870987,203.460617 31.279015,196.044052 39.165962,195.042923 
	C48.751766,193.826157 58.371632,192.803986 68.004288,192.048599 
	C80.270538,191.086700 92.208000,192.880875 103.683037,197.906967 
	C100.602669,208.531265 95.772148,217.480804 87.906517,224.556061 
	C80.988655,230.778809 72.788246,234.612991 63.891613,237.076904 
M61.744610,215.403610 
	C65.245865,212.368805 66.092773,208.718918 63.668751,204.753098 
	C61.622139,201.404724 58.375313,200.309433 54.593845,201.431183 
	C50.383217,202.680222 48.086338,207.184067 49.385033,211.341568 
	C50.896996,216.181793 55.334332,217.882721 61.744610,215.403610 
z"/>
<path fill="#66BB6A" opacity="1.000000" stroke="none" 
	d="
M62.066677,398.385559 
	C85.606071,390.536743 99.758545,374.597656 104.092400,350.027008 
	C104.235542,349.215424 104.519341,348.428619 104.898361,347.264771 
	C110.122368,349.572693 115.185577,352.246155 120.606705,354.891724 
	C120.972603,371.626923 120.980583,388.389984 120.976425,405.627991 
	C100.290840,412.354797 80.899696,408.444458 62.066677,398.385559 
z"/>
<path fill="#81C784" opacity="1.000000" stroke="none" 
	d="
M106.890999,177.070465 
	C102.787308,166.688843 102.156647,155.875092 106.022507,145.620911 
	C109.814445,135.562851 115.076111,126.007996 120.268906,116.548584 
	C123.250320,111.117531 131.776749,111.743225 135.465164,116.875275 
	C141.553131,125.346085 147.059158,134.083054 149.756500,144.765106 
	C148.682571,146.543808 147.738892,147.705872 147.034393,148.998337 
	C142.322479,157.642700 136.254257,165.212753 127.349495,169.574448 
	C120.862473,172.751907 113.733681,174.619125 106.890999,177.070465 
M135.830688,132.896042 
	C132.980194,128.933609 129.272049,127.819229 124.989777,130.186966 
	C121.550568,132.088577 120.369621,135.327637 121.343727,139.136093 
	C122.424385,143.361145 126.905212,145.842178 131.074371,144.697296 
	C135.777252,143.405853 137.644974,139.347168 135.830688,132.896042 
z"/>
<path fill="#67BB6B" opacity="1.000000" stroke="none" 
	d="
M64.040611,237.392044 
	C72.788246,234.612991 80.988655,230.778809 87.906517,224.556061 
	C95.772148,217.480804 100.602669,208.531265 103.875641,198.236984 
	C109.507484,200.881409 114.906898,203.808182 120.635620,206.817139 
	C120.971870,220.315063 120.978798,233.730820 120.974731,247.620956 
	C105.665039,252.923721 90.854202,250.481506 76.427422,244.689560 
	C72.109673,242.956116 68.255943,240.066879 64.040611,237.392044 
z"/>
<path fill="#67BB6B" opacity="1.000000" stroke="none" 
	d="
M106.934799,177.432007 
	C113.733681,174.619125 120.862473,172.751907 127.349495,169.574448 
	C136.254257,165.212753 142.322479,157.642700 147.034393,148.998337 
	C147.738892,147.705872 148.682571,146.543808 149.816254,145.148773 
	C155.340958,158.174637 153.364792,170.925018 146.850815,182.953842 
	C144.926147,186.507965 140.832565,188.887573 137.422531,191.950470 
	C131.982803,192.130188 126.853462,192.164856 121.309921,192.147720 
	C113.804184,189.714905 109.796135,184.333450 106.934799,177.432007 
z"/>
<path fill="#EFEBE8" opacity="1.000000" stroke="none" 
	d="
M244.872772,279.817230 
	C250.581406,270.380402 248.738525,266.633240 236.283356,262.697052 
	C234.530243,258.251953 232.842972,254.397049 231.932693,250.366638 
	C229.412735,239.209137 227.216812,227.978455 225.038971,216.483612 
	C226.700134,214.441010 228.220657,212.696243 229.729187,210.941162 
	C235.862137,203.805832 234.676422,198.720947 225.998230,194.495636 
	C226.344238,190.286926 226.694519,186.524094 227.384842,182.923096 
	C230.850632,185.294724 234.467072,186.143265 237.285126,183.449905 
	C239.176575,181.642151 240.702332,178.449783 240.700119,175.878403 
	C240.695938,171.036133 236.400162,168.745483 230.084717,168.909943 
	C234.809296,152.265396 241.695770,137.081055 251.713837,123.369316 
	C254.629089,119.379227 257.248749,115.173187 260.433044,111.080246 
	C269.190186,111.481186 271.593628,108.867332 271.393433,99.934204 
	C274.362976,97.866753 277.026672,95.906548 279.628387,93.867279 
	C294.849091,81.937035 311.658386,73.139290 330.226501,68.437294 
	C328.155304,74.703651 329.806793,79.006363 334.609192,80.585358 
	C338.866638,81.985176 343.603821,79.407860 344.715942,74.973549 
	C345.688904,71.094215 343.945068,68.224442 341.344055,65.678680 
	C370.644958,59.884865 398.754456,62.711849 425.846954,74.479935 
	C433.262177,77.700867 440.413330,81.529747 447.685669,85.079636 
	C463.553741,103.836555 473.403076,125.469276 478.624573,149.725143 
	C478.864563,150.483521 478.903015,150.926270 479.002350,152.032196 
	C479.313507,153.316696 479.563843,153.938049 479.814148,154.559402 
	C479.942169,166.675156 481.058502,178.875351 480.031738,190.892441 
	C474.855652,251.472824 430.425812,302.612274 371.201141,316.903290 
	C341.501282,324.069885 312.421875,321.722870 283.285950,310.731018 
	C272.790863,304.893158 262.925659,299.345398 253.026917,293.449280 
	C250.286545,288.673035 247.579651,284.245117 244.872772,279.817230 
M360.936798,184.998688 
	C368.552979,184.999115 376.169861,185.064804 383.785065,184.978531 
	C389.466003,184.914185 393.090485,181.573395 392.950836,176.775269 
	C392.816284,172.152771 389.324768,169.078674 383.840698,169.022293 
	C375.894318,168.940582 367.946350,169.009842 359.656586,168.415588 
	C357.739502,165.626266 355.822418,162.836945 353.544434,159.490265 
	C350.667908,157.650238 347.791382,155.810196 344.977997,153.039200 
	C344.985077,137.543304 345.027466,122.047295 344.981201,106.551559 
	C344.963654,100.668968 341.848846,97.063004 337.029297,97.040237 
	C332.208618,97.017464 329.030731,100.637192 329.020203,106.484848 
	C328.991699,122.313171 329.057037,138.141678 328.559509,154.419693 
	C311.577271,162.916290 307.884338,180.046494 320.414276,194.462753 
	C331.131012,205.196701 352.328125,203.608719 360.936798,184.998688 
M330.607819,276.254028 
	C327.989929,281.824066 329.218292,286.279572 333.931000,288.307648 
	C338.134003,290.116394 342.905396,288.051880 344.464996,283.664673 
	C345.725433,280.119049 344.785919,277.001831 341.868439,274.783691 
	C338.151398,271.957611 334.458099,272.472321 330.607819,276.254028 
M433.829681,180.387711 
	C437.943298,185.939590 443.900726,186.559860 447.369812,181.712509 
	C449.663788,178.507141 449.656250,175.116440 447.164856,172.060104 
	C444.708374,169.046616 441.424774,168.048798 437.814667,169.781036 
	C433.646027,171.781326 432.207062,175.187454 433.829681,180.387711 
M404.141357,108.126991 
	C409.540344,112.998070 416.266327,111.888870 418.043121,105.785149 
	C419.079987,102.223259 418.160248,99.134155 415.082367,96.994164 
	C412.031677,94.873093 408.741669,94.891579 405.808044,97.160881 
	C402.274353,99.894325 401.940247,103.502113 404.141357,108.126991 
M257.731964,245.063980 
	C255.166687,248.058411 254.398819,251.631195 256.881836,254.614136 
	C258.465118,256.516174 261.735870,258.469574 263.850067,258.101654 
	C266.437225,257.651398 269.858093,255.199493 270.605560,252.870697 
	C271.360657,250.518356 270.068878,246.550247 268.269043,244.560745 
	C265.553253,241.558655 261.646179,242.113052 257.731964,245.063980 
M405.674133,256.791779 
	C412.484406,260.068085 419.171539,256.815308 418.212280,250.297760 
	C417.830536,247.703918 415.398712,244.640823 413.042023,243.301682 
	C410.023163,241.586288 406.393188,242.678497 404.247894,245.817764 
	C401.798676,249.401810 402.106232,253.008728 405.674133,256.791779 
z"/>
<path fill="#EF9C74" opacity="1.000000" stroke="none" 
	d="
M253.060425,293.797668 
	C262.925659,299.345398 272.790863,304.893158 282.921539,310.679932 
	C264.830750,309.781525 247.648773,304.484589 231.034821,295.996979 
	C233.956635,292.184174 237.134552,288.642700 240.896210,285.099854 
	C245.340103,287.998199 249.200272,290.897919 253.060425,293.797668 
z"/>
<path fill="#F09B73" opacity="1.000000" stroke="none" 
	d="
M479.812927,154.218842 
	C479.563843,153.938049 479.313507,153.316696 479.090881,152.354462 
	C479.349640,152.635132 479.580658,153.256699 479.812927,154.218842 
z"/>
<path fill="#E2DBD5" opacity="1.000000" stroke="none" 
	d="
M447.573792,84.776779 
	C440.413330,81.529747 433.262177,77.700867 425.846954,74.479935 
	C398.754456,62.711849 370.644958,59.884865 340.970703,65.600418 
	C336.385864,64.022346 333.249542,65.514046 330.363098,68.063667 
	C311.658386,73.139290 294.849091,81.937035 279.628387,93.867279 
	C277.026672,95.906548 274.362976,97.866753 271.127014,99.719009 
	C268.162933,96.373138 264.899536,94.190094 261.220917,96.092148 
	C258.815460,97.335915 255.974045,100.415901 255.889404,102.765686 
	C255.791641,105.479576 258.508911,108.294868 260.003906,111.066139 
	C257.248749,115.173187 254.629089,119.379227 251.713837,123.369316 
	C241.695770,137.081055 234.809296,152.265396 229.842072,169.130585 
	C224.315338,173.810287 223.809326,176.445541 227.044815,182.761261 
	C226.694519,186.524094 226.344238,190.286926 225.581589,194.527100 
	C216.466827,194.090408 207.764435,193.176361 199.062042,192.262329 
	C197.449142,192.172775 195.836227,192.083237 193.837341,191.949463 
	C186.249786,116.787483 235.869507,50.812756 306.528839,36.300793 
	C362.368927,24.832386 409.603424,41.732845 447.573792,84.776779 
z"/>
<path fill="#000000" opacity="1.000000" stroke="none" 
	d="
M137.034332,244.514404 
	C144.644531,249.896332 153.585678,250.582779 163.319763,250.385452 
	C167.937546,249.684906 171.895569,249.360229 175.920654,249.400360 
	C177.655396,253.126663 179.323059,256.488159 180.990707,259.849670 
	C166.794205,262.321503 153.953705,267.849762 142.651215,276.849976 
	C140.996536,278.167572 139.323914,279.462708 137.319962,280.828400 
	C136.990891,268.919159 137.001450,256.949768 137.034332,244.514404 
z"/>
<path fill="#E2DBD5" opacity="1.000000" stroke="none" 
	d="
M224.892822,216.776703 
	C227.216812,227.978455 229.412735,239.209137 231.932693,250.366638 
	C232.842972,254.397049 234.530243,258.251953 235.938049,262.548462 
	C230.577179,262.014801 225.141251,261.119629 219.175323,259.801636 
	C214.030258,251.169266 209.415161,242.959747 204.998566,234.484680 
	C211.762329,228.404984 218.327576,222.590836 224.892822,216.776703 
z"/>
<path fill="#EF9C73" opacity="1.000000" stroke="none" 
	d="
M204.800064,234.750244 
	C209.415161,242.959747 214.030258,251.169266 218.788025,259.680237 
	C212.948074,259.685669 206.965439,259.389648 200.533142,259.156860 
	C194.011414,259.467285 187.939346,259.714447 181.428986,259.905640 
	C179.323059,256.488159 177.655396,253.126663 176.174133,249.126190 
	C185.840378,243.908218 195.320221,239.329224 204.800064,234.750244 
z"/>
<path fill="#E2DBD5" opacity="1.000000" stroke="none" 
	d="
M253.026932,293.449280 
	C249.200272,290.897919 245.340103,287.998199 241.178253,284.910889 
	C242.024033,283.201294 243.171478,281.679291 244.595856,279.987244 
	C247.579651,284.245117 250.286545,288.673035 253.026932,293.449280 
z"/>
<path fill="#BCAAA3" opacity="1.000000" stroke="none" 
	d="
M89.549400,480.121704 
	C88.672485,473.368134 90.774910,468.900085 95.727432,466.348694 
	C100.225090,464.031647 105.264816,464.837555 109.042366,468.477875 
	C112.944618,472.238281 114.095917,477.017548 111.882462,481.635773 
	C109.707085,486.174500 106.052444,489.012115 100.888802,488.888611 
	C95.332924,488.755676 91.648354,485.655609 89.549400,480.121704 
z"/>
<path fill="#C5E5C6" opacity="1.000000" stroke="none" 
	d="
M162.552933,361.177856 
	C164.938431,363.633606 167.934708,365.766022 168.612808,368.478088 
	C169.111252,370.471588 167.110001,373.807831 165.263947,375.499542 
	C162.572266,377.966278 158.574371,377.861176 156.251480,375.120483 
	C154.475784,373.025360 153.204071,369.463989 153.579926,366.821014 
	C154.186935,362.552673 157.789703,360.765686 162.552933,361.177856 
z"/>
<path fill="#C7E6C8" opacity="1.000000" stroke="none" 
	d="
M163.155243,291.628174 
	C159.373322,283.476288 161.849106,276.411469 169.075226,273.794708 
	C175.640076,271.417480 182.756683,275.270416 184.574509,282.186035 
	C185.882187,287.160889 183.504379,292.645203 178.863678,295.358063 
	C173.699005,298.377197 168.536865,297.237213 163.155243,291.628174 
z"/>
<path fill="#C5E5C6" opacity="1.000000" stroke="none" 
	d="
M146.843292,310.053650 
	C144.308563,306.263916 144.072144,302.368774 147.232117,299.829132 
	C149.330338,298.142792 153.194550,297.112427 155.639542,297.855927 
	C157.846436,298.527039 160.372314,301.896393 160.598282,304.280457 
	C160.824234,306.664490 158.966736,310.033752 156.960114,311.661041 
	C153.774017,314.244781 150.072556,313.237610 146.843292,310.053650 
z"/>
<path fill="#C7E6C8" opacity="1.000000" stroke="none" 
	d="
M58.317551,367.654419 
	C50.046509,370.302277 43.431183,367.135101 41.457390,359.919189 
	C39.701000,353.498047 43.997219,346.714264 50.727562,345.281525 
	C55.903664,344.179596 61.532688,347.093109 63.835636,352.066101 
	C66.413490,357.632690 64.688438,362.774994 58.317551,367.654419 
z"/>
<path fill="#C5E5C6" opacity="1.000000" stroke="none" 
	d="
M77.247849,376.006042 
	C73.471199,373.478363 71.723656,369.995941 73.704453,366.428497 
	C75.015152,364.067963 78.172249,361.630951 80.713493,361.382324 
	C83.001213,361.158478 86.750359,363.331177 87.709839,365.428253 
	C88.772102,367.750000 88.236618,371.667938 86.883934,374.021027 
	C84.985573,377.323456 81.242912,377.743286 77.247849,376.006042 
z"/>
<path fill="#C7E6C8" opacity="1.000000" stroke="none" 
	d="
M41.065266,276.207550 
	C41.973682,270.547424 44.898907,266.975861 50.042244,265.501068 
	C54.433117,264.242065 58.283417,265.492310 61.431931,268.755737 
	C65.032112,272.487335 66.029785,276.862152 63.902199,281.621582 
	C61.821442,286.276245 58.071404,288.953430 52.913750,288.901794 
	C47.771290,288.850372 44.088543,286.131836 42.044250,281.450409 
	C41.398418,279.971466 41.357044,278.228607 41.065266,276.207550 
z"/>
<path fill="#C5E5C6" opacity="1.000000" stroke="none" 
	d="
M77.247849,288.006042 
	C73.471199,285.478363 71.723663,281.995941 73.704468,278.428528 
	C75.015160,276.067963 78.172249,273.630920 80.713493,273.382294 
	C83.001213,273.158417 86.750381,275.331146 87.709862,277.428253 
	C88.772125,279.750000 88.236603,283.667938 86.883919,286.021027 
	C84.985558,289.323456 81.242912,289.743286 77.247849,288.006042 
z"/>
<path fill="#67BB6B" opacity="1.000000" stroke="none" 
	d="
M204.998566,234.484680 
	C195.320221,239.329224 185.840378,243.908218 176.107056,248.761383 
	C171.895569,249.360229 167.937546,249.684906 163.535370,250.030640 
	C162.463654,249.937256 161.836090,249.822800 160.101913,249.506531 
	C180.243759,234.972809 193.113083,216.337814 198.967163,192.617020 
	C207.764435,193.176361 216.466827,194.090408 225.585876,194.972992 
	C234.676422,198.720947 235.862137,203.805832 229.729187,210.941162 
	C228.220657,212.696243 226.700134,214.441010 225.038986,216.483612 
	C218.327576,222.590836 211.762329,228.404984 204.998566,234.484680 
z"/>
<path fill="#C5E5C6" opacity="1.000000" stroke="none" 
	d="
M154.842484,222.054321 
	C152.307236,218.264084 152.070923,214.368484 155.231293,211.828445 
	C157.329788,210.141861 161.194580,209.111221 163.639877,209.854843 
	C165.847076,210.526062 168.373291,213.895874 168.599319,216.280304 
	C168.825317,218.664642 166.967590,222.034409 164.960709,223.661911 
	C161.774170,226.246048 158.072189,225.238754 154.842484,222.054321 
z"/>
<path fill="#C5E5C6" opacity="1.000000" stroke="none" 
	d="
M61.420162,215.617065 
	C55.334332,217.882721 50.896996,216.181793 49.385033,211.341568 
	C48.086338,207.184067 50.383217,202.680222 54.593845,201.431183 
	C58.375313,200.309433 61.622139,201.404724 63.668751,204.753098 
	C66.092773,208.718918 65.245865,212.368805 61.420162,215.617065 
z"/>
<path fill="#C5E5C6" opacity="1.000000" stroke="none" 
	d="
M136.006729,133.246216 
	C137.644974,139.347168 135.777252,143.405853 131.074371,144.697296 
	C126.905212,145.842178 122.424385,143.361145 121.343727,139.136093 
	C120.369621,135.327637 121.550568,132.088577 124.989777,130.186966 
	C129.272049,127.819229 132.980194,128.933609 136.006729,133.246216 
z"/>
<path fill="#F09B74" opacity="1.000000" stroke="none" 
	d="
M344.914856,153.970154 
	C347.791382,155.810196 350.667908,157.650238 353.512573,160.053452 
	C352.996216,162.023102 352.420868,163.405518 352.041290,164.839737 
	C348.220947,179.274094 339.105072,188.344971 324.645294,192.095245 
	C323.064850,192.505173 321.579803,193.282867 320.050476,193.889984 
	C307.884338,180.046494 311.577271,162.916290 329.232422,154.172668 
	C334.908478,153.940491 339.911682,153.955322 344.914856,153.970154 
M327.058380,161.248596 
	C322.630493,162.700470 320.465546,165.793304 321.203888,170.368301 
	C321.865662,174.469177 324.621582,176.807327 328.817261,176.915771 
	C332.764954,177.017822 335.478394,174.984711 336.638031,171.208237 
	C338.318024,165.737030 334.551270,161.481552 327.058380,161.248596 
z"/>
<path fill="#DB8060" opacity="1.000000" stroke="none" 
	d="
M344.946411,153.504669 
	C339.911682,153.955322 334.908478,153.940491 329.495239,153.947876 
	C329.057037,138.141678 328.991699,122.313171 329.020203,106.484848 
	C329.030731,100.637192 332.208618,97.017464 337.029297,97.040237 
	C341.848846,97.063004 344.963654,100.668968 344.981201,106.551559 
	C345.027466,122.047295 344.985077,137.543304 344.946411,153.504669 
z"/>
<path fill="#E58C6D" opacity="1.000000" stroke="none" 
	d="
M320.232361,194.176361 
	C321.579803,193.282867 323.064850,192.505173 324.645294,192.095245 
	C339.105072,188.344971 348.220947,179.274094 352.041290,164.839737 
	C352.420868,163.405518 352.996216,162.023102 353.692993,160.332123 
	C355.822418,162.836945 357.739502,165.626266 359.908722,169.121185 
	C360.107117,174.880402 360.053406,179.934052 359.999664,184.987686 
	C352.328125,203.608719 331.131012,205.196701 320.232361,194.176361 
z"/>
<path fill="#DB8060" opacity="1.000000" stroke="none" 
	d="
M360.468231,184.993195 
	C360.053406,179.934052 360.107117,174.880402 360.079956,169.420746 
	C367.946350,169.009842 375.894318,168.940582 383.840698,169.022293 
	C389.324768,169.078674 392.816284,172.152771 392.950836,176.775269 
	C393.090485,181.573395 389.466003,184.914185 383.785065,184.978531 
	C376.169861,185.064804 368.552979,184.999115 360.468231,184.993195 
z"/>
<path fill="#DC8465" opacity="1.000000" stroke="none" 
	d="
M227.384842,182.923096 
	C223.809326,176.445541 224.315338,173.810287 229.787552,169.520142 
	C236.400162,168.745483 240.695938,171.036133 240.700119,175.878403 
	C240.702332,178.449783 239.176575,181.642151 237.285126,183.449905 
	C234.467072,186.143265 230.850632,185.294724 227.384842,182.923096 
z"/>
<path fill="#DC8465" opacity="1.000000" stroke="none" 
	d="
M330.226501,68.437294 
	C333.249542,65.514046 336.385864,64.022346 340.649414,65.800430 
	C343.945068,68.224442 345.688904,71.094215 344.715942,74.973549 
	C343.603821,79.407860 338.866638,81.985176 334.609192,80.585358 
	C329.806793,79.006363 328.155304,74.703651 330.226501,68.437294 
z"/>
<path fill="#DC8465" opacity="1.000000" stroke="none" 
	d="
M330.853882,275.952393 
	C334.458099,272.472321 338.151398,271.957611 341.868439,274.783691 
	C344.785919,277.001831 345.725433,280.119049 344.464996,283.664673 
	C342.905396,288.051880 338.134003,290.116394 333.931000,288.307648 
	C329.218292,286.279572 327.989929,281.824066 330.853882,275.952393 
z"/>
<path fill="#DC8465" opacity="1.000000" stroke="none" 
	d="
M433.669556,180.032684 
	C432.207062,175.187454 433.646027,171.781326 437.814667,169.781036 
	C441.424774,168.048798 444.708374,169.046616 447.164856,172.060104 
	C449.656250,175.116440 449.663788,178.507141 447.369812,181.712509 
	C443.900726,186.559860 437.943298,185.939590 433.669556,180.032684 
z"/>
<path fill="#DB8162" opacity="1.000000" stroke="none" 
	d="
M260.433044,111.080246 
	C258.508911,108.294868 255.791641,105.479576 255.889404,102.765686 
	C255.974045,100.415901 258.815460,97.335915 261.220917,96.092148 
	C264.899536,94.190094 268.162933,96.373138 270.792542,99.789742 
	C271.593628,108.867332 269.190186,111.481186 260.433044,111.080246 
z"/>
<path fill="#DB8162" opacity="1.000000" stroke="none" 
	d="
M403.925842,107.779419 
	C401.940247,103.502113 402.274353,99.894325 405.808044,97.160881 
	C408.741669,94.891579 412.031677,94.873093 415.082367,96.994164 
	C418.160248,99.134155 419.079987,102.223259 418.043121,105.785149 
	C416.266327,111.888870 409.540344,112.998070 403.925842,107.779419 
z"/>
<path fill="#DB8162" opacity="1.000000" stroke="none" 
	d="
M258.008179,244.788605 
	C261.646179,242.113052 265.553253,241.558655 268.269043,244.560745 
	C270.068878,246.550247 271.360657,250.518356 270.605560,252.870697 
	C269.858093,255.199493 266.437225,257.651398 263.850067,258.101654 
	C261.735870,258.469574 258.465118,256.516174 256.881836,254.614136 
	C254.398819,251.631195 255.166687,248.058411 258.008179,244.788605 
z"/>
<path fill="#DB8162" opacity="1.000000" stroke="none" 
	d="
M405.382751,256.534851 
	C402.106232,253.008728 401.798676,249.401810 404.247894,245.817764 
	C406.393188,242.678497 410.023163,241.586288 413.042023,243.301682 
	C415.398712,244.640823 417.830536,247.703918 418.212280,250.297760 
	C419.171539,256.815308 412.484406,260.068085 405.382751,256.534851 
z"/>
<path fill="#F2BAA3" opacity="1.000000" stroke="none" 
	d="
M327.443237,161.177628 
	C334.551270,161.481552 338.318024,165.737030 336.638031,171.208237 
	C335.478394,174.984711 332.764954,177.017822 328.817261,176.915771 
	C324.621582,176.807327 321.865662,174.469177 321.203888,170.368301 
	C320.465546,165.793304 322.630493,162.700470 327.443237,161.177628 
z"/>
</svg>