<svg version="1.1" id="Layer_1" xmlns="http://www.w3.org/2000/svg" xmlns:xlink="http://www.w3.org/1999/xlink" x="0px" y="0px"
	 width="100%" viewBox="0 0 512 512" enable-background="new 0 0 512 512" xml:space="preserve">
<path fill="#000000" opacity="1.000000" stroke="none" 
	d="
M376.000000,0.999998 
	C421.635315,1.000000 467.270630,1.000000 513.000000,1.000000 
	C513.000000,166.688095 513.000000,332.376190 512.617676,498.678894 
	C509.456818,498.528961 506.700714,497.220703 503.895325,497.104767 
	C496.306671,496.791107 488.697083,496.984283 481.059021,496.561035 
	C478.421539,478.093628 470.239899,463.390533 454.986725,452.661194 
	C454.726776,452.149445 454.464905,451.991272 454.077454,451.544128 
	C453.666870,448.393768 453.356964,445.653900 452.930908,442.932190 
	C450.973511,430.426788 449.109680,417.904785 446.960815,405.432037 
	C445.543915,397.207733 443.700104,389.056946 442.030579,380.453735 
	C441.285950,376.013428 440.558197,371.992645 439.890015,367.571869 
	C438.299896,359.780304 436.757385,352.362823 434.979462,345.002228 
	C430.586365,326.814606 419.936981,314.167206 402.540039,306.632721 
	C392.844116,302.433502 383.026733,303.256622 372.947968,302.696045 
	C371.840607,301.251373 370.809174,300.171509 369.965027,298.961029 
	C363.239044,289.316315 356.548553,279.646881 350.010468,269.639099 
	C355.178894,259.573944 353.999329,250.257217 348.403839,241.223572 
	C367.369873,238.524109 374.308838,218.760239 365.514832,203.205597 
	C364.432098,201.290512 364.413300,200.725693 365.496643,198.796524 
	C370.325775,190.197098 370.891815,181.190674 365.984863,172.389236 
	C364.437042,169.612961 361.950012,167.360352 359.750031,164.695068 
	C370.228363,156.139023 371.541290,145.355392 366.796173,133.758041 
	C363.958923,126.823524 354.557220,119.338966 344.528076,121.089691 
	C331.060333,120.961937 318.055115,120.910454 305.029053,120.399582 
	C305.008148,112.125397 305.008148,104.310593 305.008148,96.588585 
	C317.328217,98.933113 329.078766,99.615173 339.609100,91.419167 
	C356.295135,103.974869 380.530670,98.227943 389.915924,82.239899 
	C392.415405,82.507309 394.869843,83.152008 397.258240,82.962822 
	C411.704651,81.818497 425.988647,70.217239 425.353882,53.640381 
	C424.974976,43.745659 416.952698,31.156866 409.057159,28.703455 
	C403.140778,26.865034 399.124329,24.196342 396.545807,18.233643 
	C393.060394,10.173687 385.832764,5.850334 377.749084,2.949579 
	C377.025970,2.690099 376.576538,1.667944 376.000000,0.999998 
z"/>
<path fill="#FFEAD2" opacity="1.000000" stroke="none" 
	d="
M1.000000,265.000000 
	C1.000000,222.645767 1.000000,180.291550 1.468657,137.468567 
	C47.018177,136.999832 92.099045,137.014236 137.179886,136.984970 
	C144.306320,136.980347 149.813950,133.809113 154.937561,128.834259 
	C159.281464,124.616501 164.392410,120.805542 169.820923,118.165451 
	C182.202728,112.143700 195.473129,111.689743 209.076691,114.317215 
	C214.478317,116.919983 219.700668,119.203110 225.136597,121.720184 
	C230.605392,126.273796 235.860611,130.593460 241.453568,135.079422 
	C244.169220,135.801498 246.547150,136.357300 249.189362,137.210129 
	C248.763428,143.188492 251.794022,146.924011 255.666901,150.585419 
	C258.845947,153.590851 261.333435,157.327774 264.059692,161.106537 
	C251.247391,182.563080 232.212219,192.478439 207.626862,192.875977 
	C206.449615,191.118835 205.557617,189.526566 204.665619,187.934296 
	C204.092407,188.380325 203.519196,188.826355 202.945984,189.272385 
	C195.500229,213.846542 184.982803,237.030121 171.355072,258.986755 
	C162.980774,261.709991 154.970703,264.417053 146.564911,267.061829 
	C143.213013,266.333038 140.258408,265.093933 137.300461,265.085938 
	C91.867226,264.962799 46.433563,265.000061 1.000000,265.000000 
M70.338699,192.998184 
	C79.179634,192.184204 85.185188,187.510818 88.006638,179.210754 
	C90.645988,171.446381 88.691658,164.275681 82.966629,158.646423 
	C77.050087,152.828873 69.700356,151.316467 61.802162,154.242935 
	C52.826351,157.568726 47.446613,167.269974 49.125935,176.658524 
	C50.822117,186.141312 58.733929,192.495392 70.338699,192.998184 
M97.013023,205.408142 
	C97.363586,206.849182 97.528244,208.368500 98.096489,209.717880 
	C100.731415,215.974808 108.444885,218.768204 114.355019,215.697388 
	C120.263832,212.627213 122.699684,205.135162 119.624504,199.489685 
	C117.365898,195.343292 111.944878,192.483292 107.582565,193.072815 
	C102.689476,193.734100 97.066429,198.669373 97.013023,205.408142 
z"/>
<path fill="#81C784" opacity="1.000000" stroke="none" 
	d="
M316.000000,1.000003 
	C319.030609,1.000000 322.061188,1.000000 325.298584,1.363632 
	C327.563354,2.455653 329.658905,3.093905 331.670959,3.932484 
	C335.126007,5.372472 338.602570,8.267323 341.933380,8.082828 
	C345.390167,7.891354 348.711456,4.815814 352.022217,2.882154 
	C352.538483,2.580636 352.683380,1.643309 353.000000,0.999996 
	C356.692902,1.000000 360.385834,1.000000 364.392151,1.345359 
	C353.720856,41.250103 328.822083,69.031876 291.392975,87.011864 
	C293.637787,88.867012 295.094757,90.447533 296.874390,91.462112 
	C300.395599,93.469612 301.366150,95.755249 300.366882,100.011620 
	C298.672302,107.229561 298.067841,114.703438 296.771973,122.313850 
	C280.852295,129.594650 275.885376,147.562958 286.519684,159.991272 
	C289.732361,163.745895 289.502747,166.335388 286.556274,169.877213 
	C281.345490,176.140823 279.368408,183.471451 282.043213,191.310974 
	C283.575409,195.801651 283.252808,199.951065 282.501434,204.419312 
	C281.635193,209.570526 281.401276,214.828064 280.530212,220.127731 
	C278.822815,228.367813 277.477997,236.519592 275.848572,244.965027 
	C275.216583,246.878143 274.778503,248.484177 274.536774,250.119232 
	C273.009430,260.449432 271.525574,270.786102 269.997314,281.522827 
	C268.972229,287.215271 267.977234,292.505493 266.565491,297.823120 
	C261.084656,297.554443 256.020508,297.258301 250.964737,296.523560 
	C251.180313,293.960266 251.303558,291.823517 251.608566,289.713013 
	C253.441605,277.029877 255.316345,264.352753 257.431824,251.452454 
	C259.519806,240.438171 261.353058,229.645050 263.428009,218.582001 
	C265.506165,207.144775 267.342621,195.977448 269.404297,184.516541 
	C270.118317,180.485397 270.607117,176.747833 271.130768,172.623535 
	C272.469360,165.604446 273.918304,158.996323 275.029816,152.331940 
	C275.881348,147.226456 276.306824,142.049911 276.965118,136.501099 
	C277.337646,135.024719 277.782867,133.972931 277.978394,132.876602 
	C280.257538,120.098793 282.573883,107.326813 284.719849,94.526382 
	C285.839661,87.846931 287.859283,80.951561 282.726715,75.797729 
	C276.703613,74.457970 271.370728,73.271729 265.799377,71.803513 
	C260.029297,72.715843 254.497604,73.910141 248.598846,75.070015 
	C243.863754,80.387352 239.495728,85.739120 234.762482,91.101028 
	C231.262894,92.697258 228.128555,94.283340 224.575760,95.898117 
	C219.072220,96.640633 213.987152,97.354439 208.491318,98.039276 
	C204.515900,97.031845 200.724091,96.528603 197.441589,94.959763 
	C192.903778,92.790977 188.776306,90.542625 184.428009,95.091797 
	C183.922668,95.620499 182.983582,95.762764 182.222626,96.014854 
	C165.252258,101.636856 150.982635,96.925102 139.920715,82.057266 
	C123.574997,85.917686 110.706413,79.388542 106.149742,63.084263 
	C101.706543,47.185959 108.324524,27.871450 128.458130,25.863008 
	C129.407333,25.768320 130.452316,24.104128 131.004120,22.955400 
	C135.411758,13.779827 141.890167,6.796971 151.490173,2.933507 
	C152.146515,2.669362 152.503693,1.661818 153.000000,1.000002 
	C160.687576,1.000000 168.375168,1.000000 176.237564,1.310823 
	C182.929108,4.573784 188.800278,11.998751 196.839966,4.195147 
	C197.997833,3.071277 200.563324,3.490646 202.386887,2.911012 
	C203.059158,2.697326 203.469940,1.661071 204.000000,0.999999 
	C207.030594,1.000000 210.061188,1.000000 213.298462,1.363894 
	C213.852844,2.075202 214.170746,2.687730 214.552704,2.730695 
	C221.474472,3.509287 227.300400,6.322924 232.109299,11.457358 
	C232.901047,12.302720 235.046295,12.595714 236.269226,12.207952 
	C245.462204,9.293097 254.473236,9.021927 263.439667,13.071678 
	C264.399109,13.505010 265.921906,13.412857 266.904602,12.959817 
	C275.541199,8.978035 284.248260,9.507648 293.155365,11.929844 
	C294.751831,12.363978 297.247009,11.866692 298.488098,10.812027 
	C303.171051,6.832430 308.033417,3.532414 314.362946,2.905405 
	C314.965637,2.845704 315.456970,1.661930 316.000000,1.000003 
M149.995377,29.465269 
	C141.898407,38.358112 144.134583,51.221676 154.548462,55.656815 
	C162.007187,58.833393 170.413681,56.222958 174.687454,49.403160 
	C178.683838,43.025974 177.510269,34.754807 171.841187,29.343081 
	C165.881836,23.654259 157.757233,23.504854 149.995377,29.465269 
M188.578033,68.989586 
	C192.517258,71.597824 196.360168,70.948517 199.294434,67.698753 
	C201.802383,64.921120 201.991516,61.329960 199.645660,58.100063 
	C196.988586,54.441643 191.479446,53.672470 188.224380,56.366180 
	C184.488266,59.457973 184.411087,63.928864 188.578033,68.989586 
z"/>
<path fill="#000000" opacity="1.000000" stroke="none" 
	d="
M152.531342,1.000002 
	C152.503693,1.661818 152.146515,2.669362 151.490173,2.933507 
	C141.890167,6.796971 135.411758,13.779827 131.004120,22.955400 
	C130.452316,24.104128 129.407333,25.768320 128.458130,25.863008 
	C108.324524,27.871450 101.706543,47.185959 106.149742,63.084263 
	C110.706413,79.388542 123.574997,85.917686 139.920715,82.057266 
	C150.982635,96.925102 165.252258,101.636856 182.222626,96.014854 
	C182.983582,95.762764 183.922668,95.620499 184.428009,95.091797 
	C188.776306,90.542625 192.903778,92.790977 197.441589,94.959763 
	C200.724091,96.528603 204.515900,97.031845 208.531281,98.499817 
	C208.953796,103.992088 208.925598,108.994835 208.897400,113.997589 
	C195.473129,111.689743 182.202728,112.143700 169.820923,118.165451 
	C164.392410,120.805542 159.281464,124.616501 154.937561,128.834259 
	C149.813950,133.809113 144.306320,136.980347 137.179886,136.984970 
	C92.099045,137.014236 47.018177,136.999832 1.468657,136.999908 
	C1.000000,91.735611 1.000000,46.471226 1.000000,1.000000 
	C51.354038,1.000000 101.708359,1.000000 152.531342,1.000002 
z"/>
<path fill="#000000" opacity="1.000000" stroke="none" 
	d="
M1.000000,265.468658 
	C46.433563,265.000061 91.867226,264.962799 137.300461,265.085938 
	C140.258408,265.093933 143.213013,266.333038 146.714905,267.387207 
	C151.888870,270.170166 156.517090,272.565369 160.998138,275.283203 
	C154.458008,284.771637 148.065048,293.937439 141.237488,303.067139 
	C133.563370,303.355011 126.141632,302.779724 119.124588,304.201630 
	C106.843437,306.690216 96.706734,313.238708 88.904366,323.335266 
	C78.710358,336.526733 76.998009,352.407776 74.086960,368.372162 
	C73.055023,373.524078 72.109840,378.275452 71.097000,383.436096 
	C69.351486,392.857513 67.539299,401.847412 66.039047,410.889038 
	C64.877525,417.889343 64.106293,424.954407 62.971832,432.360718 
	C61.830853,439.134399 60.879593,445.538055 59.611214,452.077271 
	C43.111847,462.781281 35.255806,478.254303 32.459370,496.988281 
	C21.670818,497.773468 11.124497,495.125244 1.000000,499.000000 
	C1.000000,421.312439 1.000000,343.624878 1.000000,265.468658 
z"/>
<path fill="#876559" opacity="1.000000" stroke="none" 
	d="
M1.000000,499.474121 
	C11.124497,495.125244 21.670818,497.773468 32.933174,496.994049 
	C56.902802,496.971466 79.934830,496.950439 103.438522,496.954773 
	C143.950745,496.961090 183.991318,496.942017 224.498352,496.935120 
	C233.299271,496.939667 241.633713,496.932068 250.439224,496.951233 
	C295.284180,496.959625 339.658081,496.941284 384.498413,496.935120 
	C393.299347,496.939728 401.633789,496.932190 410.439331,496.951355 
	C434.305511,496.977509 457.700653,496.976959 481.095795,496.976440 
	C488.697083,496.984283 496.306671,496.791107 503.895325,497.104767 
	C506.700714,497.220703 509.456818,498.528961 512.617676,499.146729 
	C513.000000,503.662781 513.000000,508.325562 513.000000,512.968750 
	C342.333344,512.968750 171.666656,512.968750 1.000000,512.968750 
	C1.000000,508.607697 1.000000,504.277985 1.000000,499.474121 
z"/>
<path fill="#66BB6A" opacity="1.000000" stroke="none" 
	d="
M297.005157,122.069733 
	C298.067841,114.703438 298.672302,107.229561 300.366882,100.011620 
	C301.366150,95.755249 300.395599,93.469612 296.874390,91.462112 
	C295.094757,90.447533 293.637787,88.867012 291.392975,87.011864 
	C328.822083,69.031876 353.720856,41.250103 364.852783,1.345359 
	C368.361298,1.000000 371.722565,1.000000 375.541931,0.999998 
	C376.576538,1.667944 377.025970,2.690099 377.749084,2.949579 
	C385.832764,5.850334 393.060394,10.173687 396.545807,18.233643 
	C399.124329,24.196342 403.140778,26.865034 409.057159,28.703455 
	C416.952698,31.156866 424.974976,43.745659 425.353882,53.640381 
	C425.988647,70.217239 411.704651,81.818497 397.258240,82.962822 
	C394.869843,83.152008 392.415405,82.507309 389.915924,82.239899 
	C380.530670,98.227943 356.295135,103.974869 339.609100,91.419167 
	C329.078766,99.615173 317.328217,98.933113 305.008148,96.588585 
	C305.008148,104.310593 305.008148,112.125397 304.622253,120.458931 
	C301.825928,121.341682 299.415558,121.705711 297.005157,122.069733 
z"/>
<path fill="#000000" opacity="1.000000" stroke="none" 
	d="
M315.531342,1.000003 
	C315.456970,1.661930 314.965637,2.845704 314.362946,2.905405 
	C308.033417,3.532414 303.171051,6.832430 298.488098,10.812027 
	C297.247009,11.866692 294.751831,12.363978 293.155365,11.929844 
	C284.248260,9.507648 275.541199,8.978035 266.904602,12.959817 
	C265.921906,13.412857 264.399109,13.505010 263.439667,13.071678 
	C254.473236,9.021927 245.462204,9.293097 236.269226,12.207952 
	C235.046295,12.595714 232.901047,12.302720 232.109299,11.457358 
	C227.300400,6.322924 221.474472,3.509287 214.552704,2.730695 
	C214.170746,2.687730 213.852844,2.075202 213.752563,1.363894 
	C247.687561,1.000000 281.375122,1.000000 315.531342,1.000003 
z"/>
<path fill="#000000" opacity="1.000000" stroke="none" 
	d="
M352.531311,0.999996 
	C352.683380,1.643309 352.538483,2.580636 352.022217,2.882154 
	C348.711456,4.815814 345.390167,7.891354 341.933380,8.082828 
	C338.602570,8.267323 335.126007,5.372472 331.670959,3.932484 
	C329.658905,3.093905 327.563354,2.455653 325.752686,1.363632 
	C334.687561,1.000000 343.375122,1.000000 352.531311,0.999996 
z"/>
<path fill="#000000" opacity="1.000000" stroke="none" 
	d="
M203.531342,0.999999 
	C203.469940,1.661071 203.059158,2.697326 202.386887,2.911012 
	C200.563324,3.490646 197.997833,3.071277 196.839966,4.195147 
	C188.800278,11.998751 182.929108,4.573784 176.706192,1.310823 
	C185.687561,1.000000 194.375137,1.000000 203.531342,0.999999 
z"/>
<path fill="#F09B73" opacity="1.000000" stroke="none" 
	d="
M373.110657,303.000366 
	C383.026733,303.256622 392.844116,302.433502 402.540039,306.632721 
	C419.936981,314.167206 430.586365,326.814606 434.979462,345.002228 
	C436.757385,352.362823 438.299896,359.780304 439.475922,367.578308 
	C423.739166,370.969666 408.478851,373.968842 393.211609,376.932556 
	C387.104950,378.118011 384.132599,381.619781 385.109192,386.606354 
	C386.079773,391.562500 390.242462,393.570953 396.367401,392.413422 
	C408.229614,390.171692 420.125366,388.107300 431.855896,386.271240 
	C423.802979,395.054291 415.901398,403.535492 407.681030,411.849640 
	C404.528931,409.199707 401.460052,408.616760 397.683960,409.512482 
	C390.300507,411.263855 382.786133,412.454681 375.358521,414.030823 
	C366.209442,415.972198 357.093567,418.069946 347.633911,419.910645 
	C346.528778,417.432404 345.778870,415.134521 344.973175,412.856384 
	C340.039825,398.907288 335.093811,384.962708 330.525452,370.949249 
	C343.939575,367.589020 356.984344,364.312225 370.018951,360.995361 
	C375.203949,359.675934 377.904694,355.721222 376.851288,351.141418 
	C375.797760,346.561066 371.499054,344.132568 366.326874,345.407959 
	C353.590759,348.548584 340.877686,351.782837 328.088928,354.554016 
	C329.615143,347.620270 330.883301,341.010559 332.878265,334.627960 
	C335.706299,325.580078 343.074799,319.732239 349.504089,312.998901 
	C351.901520,311.931061 353.947632,310.873260 356.326050,309.718933 
	C362.142456,307.415039 367.626556,305.207703 373.110657,303.000366 
M390.605621,318.093231 
	C385.935089,312.062836 379.672729,312.050903 375.146698,314.620209 
	C370.431976,317.296600 368.094269,322.928162 369.420105,327.795380 
	C371.318542,334.764679 378.282196,338.495911 384.909302,336.192291 
	C390.538330,334.235687 395.990570,326.374115 390.605621,318.093231 
M401.009399,345.397705 
	C402.495270,351.469849 406.713959,354.379791 411.627075,352.568604 
	C415.548462,351.122986 417.316162,348.127625 416.940125,344.003387 
	C416.575775,340.007385 413.254852,336.983521 409.193390,337.040680 
	C404.297150,337.109528 401.567871,339.738586 401.009399,345.397705 
z"/>
<path fill="#FFEAD2" opacity="1.000000" stroke="none" 
	d="
M296.771973,122.313850 
	C299.415558,121.705711 301.825928,121.341682 304.643127,120.918312 
	C318.055115,120.910454 331.060333,120.961937 344.530823,121.520660 
	C344.132233,141.562576 335.497467,156.960342 318.459808,169.000824 
	C326.260254,169.000824 332.412811,169.139862 338.555298,168.950638 
	C342.470612,168.830002 343.985321,170.278687 342.460205,173.970016 
	C340.437073,178.866699 338.937286,184.241364 335.830597,188.370956 
	C330.341675,195.667084 323.809021,202.178024 317.497925,209.259216 
	C324.863251,209.259216 332.799774,209.259216 341.280884,209.259216 
	C336.468567,223.159775 327.450470,232.463470 317.126434,241.306244 
	C323.812988,241.306244 330.499573,241.306244 337.246094,241.306244 
	C337.116364,242.165146 337.160217,242.540665 337.006378,242.798004 
	C326.391266,260.555176 310.604706,270.351868 290.225037,272.795319 
	C288.678650,272.980713 286.371216,271.668304 285.326416,270.338226 
	C281.077637,264.929413 280.615997,258.463654 281.312561,251.680328 
	C284.240234,246.652771 286.884247,241.817474 289.285156,237.426819 
	C286.555573,231.771652 283.724152,225.905533 280.892761,220.039429 
	C281.401276,214.828064 281.635193,209.570526 282.501434,204.419312 
	C283.252808,199.951065 283.575409,195.801651 282.043213,191.310974 
	C279.368408,183.471451 281.345490,176.140823 286.556274,169.877213 
	C289.502747,166.335388 289.732361,163.745895 286.519684,159.991272 
	C275.885376,147.562958 280.852295,129.594650 296.771973,122.313850 
z"/>
<path fill="#FADDC3" opacity="1.000000" stroke="none" 
	d="
M281.028900,251.872589 
	C280.615997,258.463654 281.077637,264.929413 285.326416,270.338226 
	C286.371216,271.668304 288.678650,272.980713 290.225037,272.795319 
	C310.604706,270.351868 326.391266,260.555176 337.006378,242.798004 
	C337.160217,242.540665 337.116364,242.165146 337.246094,241.306244 
	C330.499573,241.306244 323.812988,241.306244 317.126434,241.306244 
	C327.450470,232.463470 336.468567,223.159775 341.280884,209.259216 
	C332.799774,209.259216 324.863251,209.259216 317.497925,209.259216 
	C323.809021,202.178024 330.341675,195.667084 335.830597,188.370956 
	C338.937286,184.241364 340.437073,178.866699 342.460205,173.970016 
	C343.985321,170.278687 342.470612,168.830002 338.555298,168.950638 
	C332.412811,169.139862 326.260254,169.000824 318.459808,169.000824 
	C335.497467,156.960342 344.132233,141.562576 344.993408,121.596931 
	C354.557220,119.338966 363.958923,126.823524 366.796173,133.758041 
	C371.541290,145.355392 370.228363,156.139023 359.750031,164.695068 
	C361.950012,167.360352 364.437042,169.612961 365.984863,172.389236 
	C370.891815,181.190674 370.325775,190.197098 365.496643,198.796524 
	C364.413300,200.725693 364.432098,201.290512 365.514832,203.205597 
	C374.308838,218.760239 367.369873,238.524109 348.403839,241.223572 
	C353.999329,250.257217 355.178894,259.573944 349.725037,269.800842 
	C345.629242,273.289581 341.955414,276.238922 338.353729,279.273926 
	C337.447601,280.037506 336.772675,281.075470 335.559662,281.996155 
	C325.410187,281.721985 315.692505,281.438995 305.512573,281.085052 
	C293.375977,281.049591 281.701691,281.085114 270.027374,281.120636 
	C271.525574,270.786102 273.009430,260.449432 274.536774,250.119232 
	C274.778503,248.484177 275.216583,246.878143 276.084351,245.215012 
	C278.079468,247.405075 279.554199,249.638840 281.028900,251.872589 
z"/>
<path fill="#A1887F" opacity="1.000000" stroke="none" 
	d="
M409.968262,496.924683 
	C401.633789,496.932190 393.299347,496.939728 384.402100,496.590424 
	C381.120087,495.172333 378.376007,494.170288 375.686218,493.039215 
	C366.281158,489.084290 357.422302,484.387390 352.379944,475.095337 
	C357.208679,478.112640 359.886780,476.861359 361.723511,471.869232 
	C362.642578,469.371216 364.645752,467.272064 366.444092,464.836914 
	C368.146759,463.277985 369.583496,461.893768 370.978241,460.468445 
	C388.348511,442.716492 409.284821,437.521179 432.976959,443.627777 
	C440.258545,445.504608 447.088043,449.135376 454.124573,451.963013 
	C454.464905,451.991272 454.726776,452.149445 454.834900,453.001953 
	C447.671814,474.808929 433.721924,488.952759 411.949402,495.070770 
	C411.176422,495.288025 410.623657,496.288971 409.968262,496.924683 
M381.536530,486.072510 
	C386.903778,490.798950 394.106934,489.558136 398.554291,483.977081 
	C402.506439,479.017395 401.568207,472.266205 396.194946,467.672089 
	C391.569733,463.717529 385.173157,464.207886 380.588867,468.868469 
	C375.643982,473.895569 375.790833,479.879395 381.536530,486.072510 
M424.989868,464.601929 
	C423.630829,459.013428 420.435547,456.385681 415.804626,457.048126 
	C411.663635,457.640503 408.765991,461.247375 409.014954,465.499664 
	C409.252441,469.556213 412.269073,472.649200 416.307159,472.976440 
	C420.840637,473.343842 423.652008,470.888031 424.989868,464.601929 
z"/>
<path fill="#E58B6C" opacity="1.000000" stroke="none" 
	d="
M454.077454,451.544128 
	C447.088043,449.135376 440.258545,445.504608 432.976959,443.627777 
	C409.284821,437.521179 388.348511,442.716492 370.978241,460.468445 
	C369.583496,461.893768 368.146759,463.277985 366.272949,464.502502 
	C364.962341,462.428162 364.029327,460.563721 363.268402,458.631561 
	C360.439911,451.449249 357.668030,444.244629 355.292175,437.034363 
	C361.807159,435.009155 367.904816,432.997986 374.275696,430.719543 
	C382.972534,428.710205 391.399841,426.985687 399.818756,425.221191 
	C408.642029,423.371948 410.270844,420.719208 407.999817,412.016663 
	C415.901398,403.535492 423.802979,395.054291 432.125549,386.011414 
	C435.654022,383.800781 440.620819,386.011810 442.047424,380.873260 
	C443.700104,389.056946 445.543915,397.207733 446.960815,405.432037 
	C449.109680,417.904785 450.973511,430.426788 452.930908,442.932190 
	C453.356964,445.653900 453.666870,448.393768 454.077454,451.544128 
z"/>
<path fill="#9C7B70" opacity="1.000000" stroke="none" 
	d="
M410.439331,496.951355 
	C410.623657,496.288971 411.176422,495.288025 411.949402,495.070770 
	C433.721924,488.952759 447.671814,474.808929 454.911438,453.225647 
	C470.239899,463.390533 478.421539,478.093628 481.059021,496.561035 
	C457.700653,496.976959 434.305511,496.977509 410.439331,496.951355 
z"/>
<path fill="#DB7F5F" opacity="1.000000" stroke="none" 
	d="
M442.030548,380.453735 
	C440.620819,386.011810 435.654022,383.800781 432.276855,385.709564 
	C420.125366,388.107300 408.229614,390.171692 396.367401,392.413422 
	C390.242462,393.570953 386.079773,391.562500 385.109192,386.606354 
	C384.132599,381.619781 387.104950,378.118011 393.211609,376.932556 
	C408.478851,373.968842 423.739166,370.969666 439.416382,367.978271 
	C440.558197,371.992645 441.285950,376.013428 442.030548,380.453735 
z"/>
<path fill="#67BB6A" opacity="1.000000" stroke="none" 
	d="
M335.991486,281.987366 
	C336.772675,281.075470 337.447601,280.037506 338.353729,279.273926 
	C341.955414,276.238922 345.629242,273.289581 349.561768,270.146759 
	C356.548553,279.646881 363.239044,289.316315 369.965027,298.961029 
	C370.809174,300.171509 371.840607,301.251373 372.947968,302.696045 
	C367.626556,305.207703 362.142456,307.415039 356.278778,309.380798 
	C355.002502,307.558441 354.268524,305.854706 353.181976,304.417542 
	C347.501099,296.903564 341.730743,289.457214 335.991486,281.987366 
z"/>
<path fill="#4BAE4E" opacity="1.000000" stroke="none" 
	d="
M141.672089,303.103210 
	C148.065048,293.937439 154.458008,284.771637 161.324005,275.200500 
	C165.104462,269.520325 168.411896,264.245422 171.719315,258.970551 
	C184.982803,237.030121 195.500229,213.846542 202.945984,189.272385 
	C203.519196,188.826355 204.092407,188.380325 204.665619,187.934296 
	C205.557617,189.526566 206.449615,191.118835 207.750580,193.189362 
	C210.537064,196.448395 212.914581,199.229187 215.149506,202.364685 
	C209.288681,216.798965 203.570450,230.878525 197.584976,245.170197 
	C191.449265,255.905258 185.547546,266.409943 179.750061,276.971832 
	C178.929291,278.467102 178.616074,280.240997 177.931091,282.204895 
	C172.692871,289.354126 167.644424,296.224854 162.459732,302.991241 
	C160.782318,305.180420 158.747421,307.095642 156.520508,309.053680 
	C151.334000,307.015167 146.503036,305.059204 141.672089,303.103210 
z"/>
<path fill="#67BB6B" opacity="1.000000" stroke="none" 
	d="
M248.965912,75.104431 
	C254.497604,73.910141 260.029297,72.715843 265.782562,72.266685 
	C266.017883,94.315285 266.031647,115.618752 265.934235,137.384842 
	C265.861847,145.855560 265.900604,153.863647 265.675995,161.803131 
	C264.984222,161.403168 264.555847,161.071823 264.127441,160.740479 
	C261.333435,157.327774 258.845947,153.590851 255.666901,150.585419 
	C251.794022,146.924011 248.763428,143.188492 249.220978,136.748260 
	C248.980835,115.694366 248.973373,95.399399 248.965912,75.104431 
z"/>
<path fill="#F9DDC3" opacity="1.000000" stroke="none" 
	d="
M264.059692,161.106537 
	C264.555847,161.071823 264.984222,161.403168 265.705933,162.203568 
	C267.771057,166.082565 266.085327,171.197128 271.095917,173.010284 
	C270.607117,176.747833 270.118317,180.485397 269.180328,184.287384 
	C265.110504,190.156189 261.489868,195.960556 257.518402,201.849915 
	C250.695786,206.824387 243.556595,209.673782 234.867126,209.063690 
	C232.837158,208.703156 231.148712,208.587204 229.647705,207.995621 
	C224.825226,206.094940 220.072021,204.018570 215.292084,202.009964 
	C212.914581,199.229187 210.537064,196.448395 208.035828,193.354218 
	C232.212219,192.478439 251.247391,182.563080 264.059692,161.106537 
z"/>
<path fill="#FFF7F0" opacity="1.000000" stroke="none" 
	d="
M69.905792,192.998810 
	C58.733929,192.495392 50.822117,186.141312 49.125935,176.658524 
	C47.446613,167.269974 52.826351,157.568726 61.802162,154.242935 
	C69.700356,151.316467 77.050087,152.828873 82.966629,158.646423 
	C88.691658,164.275681 90.645988,171.446381 88.006638,179.210754 
	C85.185188,187.510818 79.179634,192.184204 69.905792,192.998810 
z"/>
<path fill="#000000" opacity="1.000000" stroke="none" 
	d="
M248.598846,75.070007 
	C248.973373,95.399399 248.980835,115.694366 248.956696,136.451202 
	C246.547150,136.357300 244.169220,135.801498 241.406433,134.654083 
	C240.135117,127.951546 239.206970,121.846329 238.372452,115.728333 
	C237.252945,107.521027 236.205872,99.303833 235.127716,91.090881 
	C239.495728,85.739120 243.863754,80.387352 248.598846,75.070007 
z"/>
<path fill="#FFF7F0" opacity="1.000000" stroke="none" 
	d="
M97.012932,205.004150 
	C97.066429,198.669373 102.689476,193.734100 107.582565,193.072815 
	C111.944878,192.483292 117.365898,195.343292 119.624504,199.489685 
	C122.699684,205.135162 120.263832,212.627213 114.355019,215.697388 
	C108.444885,218.768204 100.731415,215.974808 98.096489,209.717880 
	C97.528244,208.368500 97.363586,206.849182 97.012932,205.004150 
z"/>
<path fill="#66BB6A" opacity="1.000000" stroke="none" 
	d="
M234.762482,91.101028 
	C236.205872,99.303833 237.252945,107.521027 238.372452,115.728333 
	C239.206970,121.846329 240.135117,127.951546 241.068695,134.487793 
	C235.860611,130.593460 230.605392,126.273796 225.157227,121.213051 
	C224.974258,112.271126 224.984238,104.070274 224.994217,95.869415 
	C228.128555,94.283340 231.262894,92.697258 234.762482,91.101028 
z"/>
<path fill="#4BAE4E" opacity="1.000000" stroke="none" 
	d="
M224.575760,95.898125 
	C224.984238,104.070274 224.974258,112.271126 224.943634,120.979111 
	C219.700668,119.203110 214.478317,116.919983 209.076691,114.317215 
	C208.925598,108.994835 208.953796,103.992088 208.942047,98.528793 
	C213.987152,97.354439 219.072220,96.640633 224.575760,95.898125 
z"/>
<path fill="#F8DCC2" opacity="1.000000" stroke="none" 
	d="
M171.355072,258.986755 
	C168.411896,264.245422 165.104462,269.520325 161.471161,274.877869 
	C156.517090,272.565369 151.888870,270.170166 147.110626,267.449554 
	C154.970703,264.417053 162.980774,261.709991 171.355072,258.986755 
z"/>
<path fill="#F09B73" opacity="1.000000" stroke="none" 
	d="
M250.956375,296.962189 
	C256.020508,297.258301 261.084656,297.554443 266.983276,297.911926 
	C268.813416,297.992340 269.864105,297.807800 270.796570,298.060120 
	C293.485870,304.199493 313.666626,325.789948 312.977478,350.308777 
	C312.727539,359.200439 312.219543,368.084869 311.371765,376.974365 
	C293.463623,376.984161 276.013000,376.975037 258.562439,377.009521 
	C252.475769,377.021545 249.151627,379.770538 249.012009,384.756866 
	C248.866470,389.953796 252.317612,392.968689 258.574768,392.991028 
	C269.377380,393.029602 280.180237,393.013062 290.833130,393.314758 
	C282.112793,400.417755 273.542297,407.225586 264.706482,413.814148 
	C262.436737,409.983398 259.280701,408.930084 255.293472,408.954407 
	C238.579590,409.056427 221.864670,408.987671 205.084717,408.545044 
	C204.657974,403.020630 204.350250,397.928192 203.924118,392.845642 
	C203.034424,382.234436 202.082199,371.628479 201.614243,361.013214 
	C217.017532,361.004028 231.962234,361.012573 246.906921,360.995209 
	C253.629944,360.987396 257.116760,358.124146 256.987885,352.789917 
	C256.863953,347.659454 253.499954,345.014648 246.984772,345.005035 
	C231.708023,344.982422 216.431244,344.986298 201.087311,344.569580 
	C201.346802,342.418518 201.566147,340.649048 202.016953,338.940674 
	C205.868515,324.344696 213.715576,312.499115 227.059769,305.126495 
	C233.305923,301.675537 240.306183,299.589478 247.228500,297.045227 
	C248.647034,297.124481 249.801697,297.043335 250.956375,296.962189 
M244.996811,316.453613 
	C239.791656,322.121277 239.644043,328.104767 244.585388,333.131866 
	C249.163361,337.789307 255.568787,338.281097 260.196838,334.330566 
	C265.568848,329.744965 266.508636,322.985474 262.555664,318.021820 
	C258.096924,312.423065 250.887482,311.210846 244.996811,316.453613 
M282.963501,337.169220 
	C277.023621,336.996704 273.691071,339.231812 273.044739,343.821625 
	C272.484680,347.798920 274.860199,351.555817 278.659546,352.701385 
	C282.650146,353.904663 286.888489,351.859253 288.438171,347.982300 
	C290.117371,343.781372 288.553345,340.290100 282.963501,337.169220 
z"/>
<path fill="#000000" opacity="1.000000" stroke="none" 
	d="
M311.829285,376.972595 
	C312.219543,368.084869 312.727539,359.200439 312.977478,350.308777 
	C313.666626,325.789948 293.485870,304.199493 270.796570,298.060120 
	C269.864105,297.807800 268.813416,297.992340 267.400024,297.884521 
	C267.977234,292.505493 268.972229,287.215271 269.997314,281.522827 
	C281.701691,281.085114 293.375977,281.049591 305.657532,281.377228 
	C308.917358,284.181427 311.339996,286.949310 314.263092,289.005859 
	C325.807709,297.128052 337.509338,305.027100 349.152740,313.008911 
	C343.074799,319.732239 335.706299,325.580078 332.878265,334.627960 
	C330.883301,341.010559 329.615143,347.620270 328.014526,355.002747 
	C328.721771,360.923492 329.436890,365.970032 330.152039,371.016602 
	C335.093811,384.962708 340.039825,398.907288 344.973175,412.856384 
	C345.778870,415.134521 346.528778,417.432404 347.652222,420.288879 
	C349.724518,425.247284 351.449097,429.638000 353.194550,434.337341 
	C353.768585,435.446777 354.321747,436.247589 354.874878,437.048401 
	C357.668030,444.244629 360.439911,451.449249 363.268402,458.631561 
	C364.029327,460.563721 364.962341,462.428162 365.987488,464.658081 
	C364.645752,467.272064 362.642578,469.371216 361.723511,471.869232 
	C359.886780,476.861359 357.208679,478.112640 352.024536,474.905823 
	C339.110168,471.251617 327.176086,472.433411 316.186310,476.722260 
	C311.595306,470.860992 307.318420,465.400696 303.032532,459.530548 
	C303.303070,458.539429 303.767487,457.978821 303.835205,457.373840 
	C305.582977,441.758148 307.295868,426.138550 308.999786,410.517975 
	C309.636230,404.683594 310.235138,398.845123 310.923889,392.556305 
	C311.274170,387.060272 311.551727,382.016418 311.829285,376.972595 
z"/>
<path fill="#68BB6B" opacity="1.000000" stroke="none" 
	d="
M250.964737,296.523560 
	C249.801697,297.043335 248.647034,297.124481 247.243546,296.621826 
	C246.314774,291.052826 245.634796,286.067657 245.042374,280.642883 
	C243.498093,267.985962 241.866272,255.768600 240.307632,244.099152 
	C229.812378,256.502289 219.462845,268.733215 208.984619,281.282227 
	C204.037262,285.765381 199.557556,290.428436 194.327057,293.988495 
	C184.430786,300.724213 174.103348,306.826477 163.611267,313.119263 
	C161.137009,311.743103 159.006531,310.439636 156.876053,309.136200 
	C158.747421,307.095642 160.782318,305.180420 162.459732,302.991241 
	C167.644424,296.224854 172.692871,289.354126 178.321320,282.244446 
	C181.533447,280.893250 184.790024,280.454773 186.802887,278.638184 
	C194.787415,271.432220 202.822098,264.191467 210.014206,256.220184 
	C219.463699,245.746902 227.399109,234.096710 233.150986,220.694122 
	C235.737991,216.927979 236.477753,213.173141 235.294434,209.090561 
	C243.556595,209.673782 250.695786,206.824387 257.557983,202.235199 
	C257.949310,203.050552 257.950195,203.565598 257.618103,204.195007 
	C253.912354,211.063126 251.969009,217.855331 253.598831,225.691498 
	C255.374908,234.230881 256.032135,243.002975 257.177124,251.673615 
	C255.316345,264.352753 253.441605,277.029877 251.608566,289.713013 
	C251.303558,291.823517 251.180313,293.960266 250.964737,296.523560 
z"/>
<path fill="#000000" opacity="1.000000" stroke="none" 
	d="
M266.045380,136.922211 
	C266.031647,115.618752 266.017883,94.315285 266.020996,72.548653 
	C271.370728,73.271729 276.703613,74.457970 282.726715,75.797729 
	C287.859283,80.951561 285.839661,87.846931 284.719849,94.526382 
	C282.573883,107.326813 280.257538,120.098793 277.978394,132.876602 
	C277.782867,133.972931 277.337646,135.024719 276.513245,136.543396 
	C272.693848,136.967117 269.369598,136.944672 266.045380,136.922211 
z"/>
<path fill="#C7E5C8" opacity="1.000000" stroke="none" 
	d="
M150.260178,29.208179 
	C157.757233,23.504854 165.881836,23.654259 171.841187,29.343081 
	C177.510269,34.754807 178.683838,43.025974 174.687454,49.403160 
	C170.413681,56.222958 162.007187,58.833393 154.548462,55.656815 
	C144.134583,51.221676 141.898407,38.358112 150.260178,29.208179 
z"/>
<path fill="#FDE9D1" opacity="1.000000" stroke="none" 
	d="
M265.934235,137.384842 
	C269.369598,136.944672 272.693848,136.967117 276.469940,136.947266 
	C276.306824,142.049911 275.881348,147.226456 275.029816,152.331940 
	C273.918304,158.996323 272.469360,165.604446 271.130768,172.623535 
	C266.085327,171.197128 267.771057,166.082565 265.969299,162.272186 
	C265.900604,153.863647 265.861847,145.855560 265.934235,137.384842 
z"/>
<path fill="#F4DCBF" opacity="1.000000" stroke="none" 
	d="
M257.431824,251.452454 
	C256.032135,243.002975 255.374908,234.230881 253.598831,225.691498 
	C251.969009,217.855331 253.912354,211.063126 257.656006,204.566223 
	C259.746735,209.499359 261.466553,214.175629 263.186340,218.851913 
	C261.353058,229.645050 259.519806,240.438171 257.431824,251.452454 
z"/>
<path fill="#4FAF52" opacity="1.000000" stroke="none" 
	d="
M281.312561,251.680328 
	C279.554199,249.638840 278.079468,247.405075 276.368988,244.921356 
	C277.477997,236.519592 278.822815,228.367813 280.530212,220.127731 
	C283.724152,225.905533 286.555573,231.771652 289.285156,237.426819 
	C286.884247,241.817474 284.240234,246.652771 281.312561,251.680328 
z"/>
<path fill="#C7E5C8" opacity="1.000000" stroke="none" 
	d="
M188.296463,68.745750 
	C184.411087,63.928864 184.488266,59.457973 188.224380,56.366180 
	C191.479446,53.672470 196.988586,54.441643 199.645660,58.100063 
	C201.991516,61.329960 201.802383,64.921120 199.294434,67.698753 
	C196.360168,70.948517 192.517258,71.597824 188.296463,68.745750 
z"/>
<path fill="#4DAE50" opacity="1.000000" stroke="none" 
	d="
M263.428009,218.582001 
	C261.466553,214.175629 259.746735,209.499359 257.989014,204.451874 
	C257.950195,203.565598 257.949310,203.050552 257.908813,202.150208 
	C261.489868,195.960556 265.110504,190.156189 268.955109,184.580963 
	C267.342621,195.977448 265.506165,207.144775 263.428009,218.582001 
z"/>
<path fill="#F09B73" opacity="1.000000" stroke="none" 
	d="
M156.520508,309.053680 
	C159.006531,310.439636 161.137009,311.743103 163.774689,313.408844 
	C165.110123,314.268402 166.043564,314.648010 166.750870,315.280518 
	C178.592133,325.869202 184.943558,339.111572 185.458038,354.916901 
	C172.720978,351.739899 160.364166,348.591003 147.990234,345.510742 
	C142.288864,344.091522 138.774612,346.120361 137.345337,351.486664 
	C136.174377,355.883087 138.944000,359.680969 144.347366,361.047546 
	C157.512527,364.377350 170.680573,367.695831 183.783447,371.391846 
	C181.755753,377.171936 179.792053,382.579071 177.497528,388.039429 
	C169.630447,394.697906 162.114273,401.326202 154.547485,407.896210 
	C151.752380,410.323120 148.838165,412.612793 145.554688,414.969666 
	C135.420349,413.147400 125.697548,411.381470 116.003204,409.471191 
	C110.000542,408.288391 106.175682,410.442474 105.226402,415.805725 
	C104.400108,420.474182 107.265053,424.007568 112.651306,425.019592 
	C114.107216,425.293121 115.541733,425.680511 116.755280,426.294159 
	C99.163696,432.582764 81.385612,434.482880 63.161560,431.990662 
	C64.106293,424.954407 64.877525,417.889343 66.039047,410.889038 
	C67.539299,401.847412 69.351486,392.857513 71.478165,383.493988 
	C87.796570,386.399658 103.655930,389.708008 119.543037,392.877228 
	C123.443863,393.655334 128.080734,389.901245 128.861038,385.719299 
	C129.587326,381.826874 126.787865,378.011566 122.400871,377.089203 
	C117.871437,376.136871 113.322701,375.273346 108.773277,374.419617 
	C97.242821,372.255768 85.707237,370.119171 74.173706,367.971649 
	C76.998009,352.407776 78.710358,336.526733 88.904366,323.335266 
	C96.706734,313.238708 106.843437,306.690216 119.124588,304.201630 
	C126.141632,302.779724 133.563370,303.355011 141.237488,303.067139 
	C146.503036,305.059204 151.334000,307.015167 156.520508,309.053680 
M121.510483,313.692078 
	C115.886925,316.118530 112.786850,320.237305 113.037086,325.279633 
	C113.291634,330.408997 116.062820,333.979004 120.639206,335.994415 
	C125.591553,338.175476 130.069748,336.887756 134.006088,332.533752 
	C137.266037,328.927917 137.914139,323.884033 135.667969,319.600189 
	C133.109863,314.721405 128.578171,312.626892 121.510483,313.692078 
M103.807678,337.048187 
	C98.220055,339.110046 95.880890,342.868683 97.338058,347.443817 
	C98.547691,351.241791 102.321274,353.559601 106.285904,352.939758 
	C110.238739,352.321747 113.033218,348.973083 112.990700,344.905396 
	C112.942505,340.294647 110.281128,337.787994 103.807678,337.048187 
z"/>
<path fill="#A1887F" opacity="1.000000" stroke="none" 
	d="
M102.966858,496.929413 
	C79.934830,496.950439 56.902802,496.971466 33.396965,496.986694 
	C35.255806,478.254303 43.111847,462.781281 59.945778,451.973511 
	C63.113499,450.453033 65.592918,449.093201 68.151489,447.903595 
	C85.493225,439.840546 103.101997,438.852173 120.996552,446.476868 
	C121.889137,462.414948 118.147980,476.566162 108.916946,489.135101 
	C106.982498,491.769104 104.952705,494.333130 102.966858,496.929413 
M59.398911,470.092438 
	C56.239174,475.727875 56.208290,480.005890 59.413918,483.905975 
	C62.582211,487.760559 66.493538,489.888458 71.633820,488.620087 
	C76.466309,487.427643 80.410934,482.923065 80.953575,478.122131 
	C81.455040,473.685486 78.431068,468.344330 74.232033,466.250031 
	C69.303574,463.791931 64.766876,464.835175 59.398911,470.092438 
M89.430107,462.279510 
	C88.345345,466.018890 89.184792,469.216003 92.350792,471.550964 
	C95.810638,474.102661 100.964981,473.232574 103.463745,469.827972 
	C106.139198,466.182739 105.262558,460.869446 101.574081,458.374634 
	C97.537384,455.644226 93.172287,456.823944 89.430107,462.279510 
z"/>
<path fill="#E58B6C" opacity="1.000000" stroke="none" 
	d="
M120.995537,446.011353 
	C103.101997,438.852173 85.493225,439.840546 68.151489,447.903595 
	C65.592918,449.093201 63.113499,450.453033 60.262894,451.837921 
	C60.879593,445.538055 61.830853,439.134399 62.971836,432.360718 
	C81.385612,434.482880 99.163696,432.582764 117.162964,426.299866 
	C120.226456,426.527802 122.644119,427.067963 125.077744,427.522644 
	C136.759689,429.705139 148.445953,431.864532 160.073730,434.417816 
	C155.961624,444.857208 151.906479,454.910889 147.564301,464.814087 
	C139.685486,456.799255 131.934494,449.159302 120.995537,446.011353 
z"/>
<path fill="#DB7F5F" opacity="1.000000" stroke="none" 
	d="
M74.086960,368.372162 
	C85.707237,370.119171 97.242821,372.255768 108.773277,374.419617 
	C113.322701,375.273346 117.871437,376.136871 122.400871,377.089203 
	C126.787865,378.011566 129.587326,381.826874 128.861038,385.719299 
	C128.080734,389.901245 123.443863,393.655334 119.543037,392.877228 
	C103.655930,389.708008 87.796570,386.399658 71.545815,383.084747 
	C72.109840,378.275452 73.055023,373.524078 74.086960,368.372162 
z"/>
<path fill="#A1887F" opacity="1.000000" stroke="none" 
	d="
M249.968140,496.924438 
	C241.633713,496.932068 233.299271,496.939667 224.402039,496.590393 
	C221.120193,495.172180 218.376648,494.169098 215.686493,493.038910 
	C206.279114,489.086609 197.423599,484.385071 192.379211,475.095306 
	C196.854568,477.740906 199.259476,477.238861 201.610779,472.261566 
	C203.768616,467.693817 207.773468,463.998657 211.267761,459.791138 
	C227.279968,444.881683 245.721848,438.550690 267.167419,442.038269 
	C277.402496,443.702728 287.066895,446.987000 294.833496,454.169464 
	C287.222443,475.162048 273.403290,489.105072 251.933563,495.073303 
	C251.166199,495.286621 250.618317,496.289551 249.968140,496.924438 
M240.489273,465.695587 
	C233.028259,464.011688 226.958557,467.570984 225.287354,474.610046 
	C223.847672,480.673981 228.313644,487.332916 234.780563,488.764618 
	C240.135406,489.950134 246.193512,486.404694 248.168182,480.929749 
	C250.410263,474.713318 248.116196,469.747681 240.489273,465.695587 
M257.763947,461.569672 
	C256.208038,467.725281 258.516937,472.251190 263.736725,472.910339 
	C267.811951,473.424957 270.979401,471.811249 272.445770,467.868744 
	C273.884003,464.001862 272.834381,460.631134 269.380524,458.287964 
	C265.709778,455.797607 261.819092,456.758423 257.763947,461.569672 
z"/>
<path fill="#9C7B70" opacity="1.000000" stroke="none" 
	d="
M192.006378,475.144501 
	C197.423599,484.385071 206.279114,489.086609 215.686493,493.038910 
	C218.376648,494.169098 221.120193,495.172180 223.935577,496.578247 
	C183.991318,496.942017 143.950745,496.961090 103.438515,496.954773 
	C104.952705,494.333130 106.982498,491.769104 108.916946,489.135101 
	C118.147980,476.566162 121.889137,462.414948 120.996552,446.476868 
	C131.934494,449.159302 139.685486,456.799255 147.714355,465.133636 
	C150.622894,469.386383 153.094376,473.169006 155.537567,476.908356 
	C158.019241,476.143188 160.306793,475.338287 162.646149,474.733887 
	C172.462814,472.197510 182.266556,471.678070 192.006378,475.144501 
z"/>
<path fill="#9C7B70" opacity="1.000000" stroke="none" 
	d="
M250.439209,496.951233 
	C250.618317,496.289551 251.166199,495.286621 251.933563,495.073303 
	C273.403290,489.105072 287.222443,475.162048 295.161804,454.230927 
	C298.191254,456.019531 300.616394,457.979980 303.041534,459.940399 
	C307.318420,465.400696 311.595306,470.860992 316.186310,476.722260 
	C327.176086,472.433411 339.110168,471.251617 351.651917,474.954987 
	C357.422302,484.387390 366.281158,489.084290 375.686218,493.039215 
	C378.376007,494.170288 381.120087,495.172333 383.935638,496.578247 
	C339.658081,496.941284 295.284180,496.959625 250.439209,496.951233 
z"/>
<path fill="#DB7F5F" opacity="1.000000" stroke="none" 
	d="
M353.173676,434.028717 
	C351.449097,429.638000 349.724518,425.247284 347.981628,420.478333 
	C357.093567,418.069946 366.209442,415.972198 375.358521,414.030823 
	C382.786133,412.454681 390.300507,411.263855 397.683960,409.512482 
	C401.460052,408.616760 404.528931,409.199707 407.681030,411.849609 
	C410.270844,420.719208 408.642029,423.371948 399.818756,425.221191 
	C391.399841,426.985687 382.972534,428.710205 373.850433,430.724701 
	C366.492523,432.007629 359.833099,433.018188 353.173676,434.028717 
z"/>
<path fill="#DC805F" opacity="1.000000" stroke="none" 
	d="
M330.525452,370.949249 
	C329.436890,365.970032 328.721771,360.923492 328.080994,355.428162 
	C340.877686,351.782837 353.590759,348.548584 366.326874,345.407959 
	C371.499054,344.132568 375.797760,346.561066 376.851288,351.141418 
	C377.904694,355.721222 375.203949,359.675934 370.018951,360.995361 
	C356.984344,364.312225 343.939575,367.589020 330.525452,370.949249 
z"/>
<path fill="#49AD4D" opacity="1.000000" stroke="none" 
	d="
M349.504089,312.998901 
	C337.509338,305.027100 325.807709,297.128052 314.263092,289.005859 
	C311.339996,286.949310 308.917358,284.181427 306.119812,281.448212 
	C315.692505,281.438995 325.410187,281.721985 335.559662,281.996155 
	C341.730743,289.457214 347.501099,296.903564 353.181976,304.417542 
	C354.268524,305.854706 355.002502,307.558441 355.946472,309.477295 
	C353.947632,310.873260 351.901520,311.931061 349.504089,312.998901 
z"/>
<path fill="#F2BBA4" opacity="1.000000" stroke="none" 
	d="
M390.850403,318.385681 
	C395.990570,326.374115 390.538330,334.235687 384.909302,336.192291 
	C378.282196,338.495911 371.318542,334.764679 369.420105,327.795380 
	C368.094269,322.928162 370.431976,317.296600 375.146698,314.620209 
	C379.672729,312.050903 385.935089,312.062836 390.850403,318.385681 
z"/>
<path fill="#F2BAA3" opacity="1.000000" stroke="none" 
	d="
M401.009338,345.002747 
	C401.567871,339.738586 404.297150,337.109528 409.193390,337.040680 
	C413.254852,336.983521 416.575775,340.007385 416.940125,344.003387 
	C417.316162,348.127625 415.548462,351.122986 411.627075,352.568604 
	C406.713959,354.379791 402.495270,351.469849 401.009338,345.002747 
z"/>
<path fill="#BCAAA3" opacity="1.000000" stroke="none" 
	d="
M381.267303,485.806763 
	C375.790833,479.879395 375.643982,473.895569 380.588867,468.868469 
	C385.173157,464.207886 391.569733,463.717529 396.194946,467.672089 
	C401.568207,472.266205 402.506439,479.017395 398.554291,483.977081 
	C394.106934,489.558136 386.903778,490.798950 381.267303,485.806763 
z"/>
<path fill="#BBA9A2" opacity="1.000000" stroke="none" 
	d="
M424.989899,464.996857 
	C423.652008,470.888031 420.840637,473.343842 416.307159,472.976440 
	C412.269073,472.649200 409.252441,469.556213 409.014954,465.499664 
	C408.765991,461.247375 411.663635,457.640503 415.804626,457.048126 
	C420.435547,456.385681 423.630829,459.013428 424.989899,464.996857 
z"/>
<path fill="#F09B73" opacity="1.000000" stroke="none" 
	d="
M353.194550,434.337341 
	C359.833099,433.018188 366.492523,432.007629 373.577209,430.991943 
	C367.904816,432.997986 361.807159,435.009155 355.292175,437.034363 
	C354.321747,436.247589 353.768585,435.446777 353.194550,434.337341 
z"/>
<path fill="#F7DCC1" opacity="1.000000" stroke="none" 
	d="
M232.935669,220.983551 
	C227.399109,234.096710 219.463699,245.746902 210.014206,256.220184 
	C202.822098,264.191467 194.787415,271.432220 186.802887,278.638184 
	C184.790024,280.454773 181.533447,280.893250 178.458176,281.925476 
	C178.616074,280.240997 178.929291,278.467102 179.750061,276.971832 
	C185.547546,266.409943 191.449265,255.905258 197.950287,245.146332 
	C204.013916,241.479553 209.583984,238.247223 214.839874,234.566284 
	C221.014252,230.242096 226.915802,225.528351 232.935669,220.983551 
z"/>
<path fill="#FDE9D1" opacity="1.000000" stroke="none" 
	d="
M233.151001,220.694138 
	C226.915802,225.528351 221.014252,230.242096 214.839874,234.566284 
	C209.583984,238.247223 204.013916,241.479553 198.217529,244.934219 
	C203.570450,230.878525 209.288681,216.798965 215.149506,202.364685 
	C220.072021,204.018570 224.825226,206.094940 229.647705,207.995621 
	C231.148712,208.587204 232.837158,208.703156 234.867126,209.063690 
	C236.477753,213.173141 235.737991,216.927979 233.151001,220.694138 
z"/>
<path fill="#000000" opacity="1.000000" stroke="none" 
	d="
M192.379211,475.095306 
	C182.266556,471.678070 172.462814,472.197510 162.646149,474.733887 
	C160.306793,475.338287 158.019241,476.143188 155.537567,476.908356 
	C153.094376,473.169006 150.622894,469.386383 148.001373,465.284180 
	C151.906479,454.910889 155.961624,444.857208 160.393555,434.248657 
	C162.194672,429.834381 163.619019,425.974976 165.374420,421.928040 
	C165.980850,420.823761 166.212067,419.890991 166.538315,418.992737 
	C170.293335,408.654205 174.062759,398.320862 177.828369,387.986176 
	C179.792053,382.579071 181.755753,377.171936 183.858078,370.974396 
	C184.608246,365.113647 185.219772,360.043365 185.831314,354.973053 
	C184.943558,339.111572 178.592133,325.869202 166.750870,315.280518 
	C166.043564,314.648010 165.110123,314.268402 164.118484,313.481567 
	C174.103348,306.826477 184.430786,300.724213 194.327057,293.988495 
	C199.557556,290.428436 204.037262,285.765381 209.441315,281.290100 
	C221.669418,281.014069 233.312134,281.048248 244.954834,281.082458 
	C245.634796,286.067657 246.314774,291.052826 246.979691,296.461426 
	C240.306183,299.589478 233.305923,301.675537 227.059769,305.126495 
	C213.715576,312.499115 205.868515,324.344696 202.016953,338.940674 
	C201.566147,340.649048 201.346802,342.418518 201.014893,345.032776 
	C201.058319,350.944031 201.106995,355.982208 201.155655,361.020386 
	C202.082199,371.628479 203.034424,382.234436 203.924118,392.845642 
	C204.350250,397.928192 204.657974,403.020630 205.010590,408.975830 
	C205.722443,414.903046 206.443024,419.963074 207.092468,425.434937 
	C207.300262,427.913330 207.579178,429.979889 207.914795,432.490417 
	C208.184158,435.356812 208.342712,437.785370 208.619888,440.200378 
	C209.374634,446.776337 210.179504,453.346558 210.964523,459.919037 
	C207.773468,463.998657 203.768616,467.693817 201.610779,472.261566 
	C199.259476,477.238861 196.854568,477.740906 192.379211,475.095306 
z"/>
<path fill="#E58B6C" opacity="1.000000" stroke="none" 
	d="
M211.267761,459.791138 
	C210.179504,453.346558 209.374634,446.776337 208.619888,440.200378 
	C208.342712,437.785370 208.184158,435.356812 208.376328,432.479706 
	C219.940750,431.680817 230.664185,429.331360 241.432739,425.018066 
	C246.031723,425.007080 250.160065,425.006256 254.288422,424.999451 
	C262.724274,424.985565 265.005859,422.642181 264.971832,414.033447 
	C273.542297,407.225586 282.112793,400.417755 291.303345,393.307800 
	C298.232666,393.006622 304.541901,393.007568 310.851135,393.008514 
	C310.235138,398.845123 309.636230,404.683594 308.999786,410.517975 
	C307.295868,426.138550 305.582977,441.758148 303.835205,457.373840 
	C303.767487,457.978821 303.303070,458.539429 303.032532,459.530548 
	C300.616394,457.979980 298.191254,456.019531 295.437836,453.997620 
	C287.066895,446.987000 277.402496,443.702728 267.167419,442.038269 
	C245.721848,438.550690 227.279968,444.881683 211.267761,459.791138 
z"/>
<path fill="#DB7F5F" opacity="1.000000" stroke="none" 
	d="
M310.923889,392.556305 
	C304.541901,393.007568 298.232666,393.006622 291.453186,393.012665 
	C280.180237,393.013062 269.377380,393.029602 258.574768,392.991028 
	C252.317612,392.968689 248.866470,389.953796 249.012009,384.756866 
	C249.151627,379.770538 252.475769,377.021545 258.562439,377.009521 
	C276.013000,376.975037 293.463623,376.984161 311.371765,376.974365 
	C311.551727,382.016418 311.274170,387.060272 310.923889,392.556305 
z"/>
<path fill="#DB7F5F" opacity="1.000000" stroke="none" 
	d="
M264.706482,413.814148 
	C265.005859,422.642181 262.724274,424.985565 254.288422,424.999451 
	C250.160065,425.006256 246.031723,425.007080 240.968597,425.010834 
	C229.077087,425.015076 218.120331,425.019073 207.163589,425.023071 
	C206.443024,419.963074 205.722443,414.903046 205.076004,409.412262 
	C221.864670,408.987671 238.579590,409.056427 255.293472,408.954407 
	C259.280701,408.930084 262.436737,409.983398 264.706482,413.814148 
z"/>
<path fill="#DB7F5F" opacity="1.000000" stroke="none" 
	d="
M201.614243,361.013214 
	C201.106995,355.982208 201.058319,350.944031 201.082062,345.442657 
	C216.431244,344.986298 231.708023,344.982422 246.984772,345.005035 
	C253.499954,345.014648 256.863953,347.659454 256.987885,352.789917 
	C257.116760,358.124146 253.629944,360.987396 246.906921,360.995209 
	C231.962234,361.012573 217.017532,361.004028 201.614243,361.013214 
z"/>
<path fill="#F2BBA4" opacity="1.000000" stroke="none" 
	d="
M245.266464,316.187744 
	C250.887482,311.210846 258.096924,312.423065 262.555664,318.021820 
	C266.508636,322.985474 265.568848,329.744965 260.196838,334.330566 
	C255.568787,338.281097 249.163361,337.789307 244.585388,333.131866 
	C239.644043,328.104767 239.791656,322.121277 245.266464,316.187744 
z"/>
<path fill="#F2BAA3" opacity="1.000000" stroke="none" 
	d="
M283.337952,337.301270 
	C288.553345,340.290100 290.117371,343.781372 288.438171,347.982300 
	C286.888489,351.859253 282.650146,353.904663 278.659546,352.701385 
	C274.860199,351.555817 272.484680,347.798920 273.044739,343.821625 
	C273.691071,339.231812 277.023621,336.996704 283.337952,337.301270 
z"/>
<path fill="#F8DCC2" opacity="1.000000" stroke="none" 
	d="
M245.042374,280.642883 
	C233.312134,281.048248 221.669418,281.014069 209.570007,280.972015 
	C219.462845,268.733215 229.812378,256.502289 240.307632,244.099152 
	C241.866272,255.768600 243.498093,267.985962 245.042374,280.642883 
z"/>
<path fill="#DB7F5F" opacity="1.000000" stroke="none" 
	d="
M165.043365,422.115540 
	C163.619019,425.974976 162.194672,429.834381 160.450500,433.862976 
	C148.445953,431.864532 136.759689,429.705139 125.077744,427.522644 
	C122.644119,427.067963 120.226456,426.527802 117.393753,426.021362 
	C115.541733,425.680511 114.107216,425.293121 112.651306,425.019592 
	C107.265053,424.007568 104.400108,420.474182 105.226402,415.805725 
	C106.175682,410.442474 110.000542,408.288391 116.003204,409.471191 
	C125.697548,411.381470 135.420349,413.147400 145.904938,415.135254 
	C151.129669,416.211731 155.595245,417.062805 160.025436,418.069580 
	C162.291397,418.584473 165.205643,418.502441 165.043365,422.115540 
z"/>
<path fill="#DC805F" opacity="1.000000" stroke="none" 
	d="
M185.458038,354.916901 
	C185.219772,360.043365 184.608246,365.113647 183.922089,370.601410 
	C170.680573,367.695831 157.512527,364.377350 144.347366,361.047546 
	C138.944000,359.680969 136.174377,355.883087 137.345337,351.486664 
	C138.774612,346.120361 142.288864,344.091522 147.990234,345.510742 
	C160.364166,348.591003 172.720978,351.739899 185.458038,354.916901 
z"/>
<path fill="#F2BBA4" opacity="1.000000" stroke="none" 
	d="
M121.880478,313.545380 
	C128.578171,312.626892 133.109863,314.721405 135.667969,319.600189 
	C137.914139,323.884033 137.266037,328.927917 134.006088,332.533752 
	C130.069748,336.887756 125.591553,338.175476 120.639206,335.994415 
	C116.062820,333.979004 113.291634,330.408997 113.037086,325.279633 
	C112.786850,320.237305 115.886925,316.118530 121.880478,313.545380 
z"/>
<path fill="#E58B6C" opacity="1.000000" stroke="none" 
	d="
M165.374435,421.928040 
	C165.205643,418.502441 162.291397,418.584473 160.025436,418.069580 
	C155.595245,417.062805 151.129669,416.211731 146.328491,415.130646 
	C148.838165,412.612793 151.752380,410.323120 154.547485,407.896210 
	C162.114273,401.326202 169.630447,394.697906 177.497528,388.039429 
	C174.062759,398.320862 170.293335,408.654205 166.538315,418.992737 
	C166.212067,419.890991 165.980850,420.823761 165.374435,421.928040 
z"/>
<path fill="#F2BAA3" opacity="1.000000" stroke="none" 
	d="
M104.207779,337.029114 
	C110.281128,337.787994 112.942505,340.294647 112.990700,344.905396 
	C113.033218,348.973083 110.238739,352.321747 106.285904,352.939758 
	C102.321274,353.559601 98.547691,351.241791 97.338058,347.443817 
	C95.880890,342.868683 98.220055,339.110046 104.207779,337.029114 
z"/>
<path fill="#BCAAA3" opacity="1.000000" stroke="none" 
	d="
M59.662201,469.816162 
	C64.766876,464.835175 69.303574,463.791931 74.232033,466.250031 
	C78.431068,468.344330 81.455040,473.685486 80.953575,478.122131 
	C80.410934,482.923065 76.466309,487.427643 71.633820,488.620087 
	C66.493538,489.888458 62.582211,487.760559 59.413918,483.905975 
	C56.208290,480.005890 56.239174,475.727875 59.662201,469.816162 
z"/>
<path fill="#BBA9A2" opacity="1.000000" stroke="none" 
	d="
M89.597092,461.922974 
	C93.172287,456.823944 97.537384,455.644226 101.574081,458.374634 
	C105.262558,460.869446 106.139198,466.182739 103.463745,469.827972 
	C100.964981,473.232574 95.810638,474.102661 92.350792,471.550964 
	C89.184792,469.216003 88.345345,466.018890 89.597092,461.922974 
z"/>
<path fill="#BCAAA3" opacity="1.000000" stroke="none" 
	d="
M240.862762,465.810425 
	C248.116196,469.747681 250.410263,474.713318 248.168182,480.929749 
	C246.193512,486.404694 240.135406,489.950134 234.780563,488.764618 
	C228.313644,487.332916 223.847672,480.673981 225.287354,474.610046 
	C226.958557,467.570984 233.028259,464.011688 240.862762,465.810425 
z"/>
<path fill="#BBA9A2" opacity="1.000000" stroke="none" 
	d="
M257.933777,461.213684 
	C261.819092,456.758423 265.709778,455.797607 269.380524,458.287964 
	C272.834381,460.631134 273.884003,464.001862 272.445770,467.868744 
	C270.979401,471.811249 267.811951,473.424957 263.736725,472.910339 
	C258.516937,472.251190 256.208038,467.725281 257.933777,461.213684 
z"/>
<path fill="#F09B73" opacity="1.000000" stroke="none" 
	d="
M207.092468,425.434937 
	C218.120331,425.019073 229.077087,425.015076 240.497955,425.018311 
	C230.664185,429.331360 219.940750,431.680817 208.319626,432.035706 
	C207.579178,429.979889 207.300262,427.913330 207.092468,425.434937 
z"/>
</svg>