<svg version="1.1" id="Layer_1" xmlns="http://www.w3.org/2000/svg" xmlns:xlink="http://www.w3.org/1999/xlink" x="0px" y="0px"
	 width="100%" viewBox="0 0 512 512" enable-background="new 0 0 512 512" xml:space="preserve">
<path fill="#81C784" opacity="1.000000" stroke="none" 
	d="
M467.000000,0.999997 
	C482.256683,1.000000 497.513397,1.000000 513.000000,1.000000 
	C513.000000,14.686704 513.000000,28.374693 512.592041,42.341663 
	C511.798462,43.301304 511.122955,43.961258 511.072601,44.665871 
	C510.650085,50.579224 510.414276,56.506020 509.982880,62.418598 
	C509.361938,70.929955 508.848969,79.458405 507.882965,87.933189 
	C506.441162,100.582451 504.735626,113.204094 502.958801,125.811638 
	C502.146576,131.574951 500.896942,137.276642 499.585999,143.203796 
	C493.656525,149.701614 487.976776,155.993027 482.319946,162.304932 
	C477.888916,167.249115 473.486206,172.218689 469.029358,177.141846 
	C468.987823,177.106705 469.040039,177.011246 468.837982,177.201904 
	C468.425110,177.699539 468.214264,178.006516 467.784485,178.549164 
	C460.723389,183.412003 453.977234,188.190872 447.001892,192.607788 
	C443.008789,195.136276 440.652985,198.269211 440.590027,203.261139 
	C427.467041,213.688034 414.609161,223.939484 401.541504,233.918823 
	C397.299622,224.339569 391.276978,216.525482 382.619843,209.960297 
	C384.917419,208.288315 386.663361,207.108932 388.309723,205.803925 
	C395.474030,200.125031 402.991333,194.820084 409.664917,188.610367 
	C419.463257,179.493134 424.312744,167.804871 424.953186,154.401947 
	C425.191315,149.419067 422.956024,146.480698 418.472961,146.043594 
	C412.551788,145.466278 409.237305,147.312180 409.181000,152.311249 
	C408.986023,169.623596 399.315521,180.670853 385.648987,189.295471 
	C379.037903,193.467560 372.452209,197.679932 365.431671,201.901703 
	C356.726288,201.905014 348.444275,201.880676 339.958252,201.629333 
	C338.824249,200.639267 337.894226,199.876190 337.246216,198.925385 
	C346.044403,190.294815 354.761566,182.041962 362.994171,173.331177 
	C367.281281,168.795044 370.504608,163.291946 368.158447,156.559998 
	C363.831390,144.144440 350.449188,141.153885 341.076996,150.417740 
	C330.771240,160.604309 320.489685,170.815292 309.896057,180.838974 
	C301.669708,173.518829 297.542114,164.595749 296.987946,153.959564 
	C296.704712,148.524460 294.750092,146.347916 290.075531,146.022964 
	C283.475769,145.564209 280.953156,147.844376 281.032990,154.651535 
	C281.212067,169.914307 288.253662,181.948303 298.823334,192.429840 
	C287.468353,203.788971 276.307068,214.887268 265.105774,225.519745 
	C265.044830,218.577927 264.680389,212.079605 265.100067,205.632309 
	C265.515015,199.257156 263.358002,194.969345 257.756226,191.714737 
	C251.894516,188.309174 246.502625,184.094955 240.925003,179.753616 
	C240.950806,175.607727 241.133881,171.932297 240.924500,168.279327 
	C240.547745,161.705673 237.263748,156.874802 231.208923,154.322662 
	C220.183563,149.675461 209.065506,157.485901 209.034668,169.977737 
	C208.946655,205.631836 209.069061,241.286682 208.869476,276.939880 
	C208.853500,279.792664 207.783356,283.390808 205.878021,285.361328 
	C192.329910,299.373047 178.443726,313.058136 164.635666,326.817596 
	C163.812134,327.638245 162.733887,328.203278 161.000366,329.438751 
	C161.000366,326.423065 161.000412,324.445007 161.000351,322.466980 
	C160.999481,295.809540 160.958328,269.152039 161.023819,242.494751 
	C161.041962,235.112762 158.238831,229.433105 151.406921,226.413315 
	C140.461136,221.575165 129.092621,229.350433 129.041794,241.759186 
	C128.925110,270.248810 129.003738,298.739288 128.998260,327.229401 
	C128.996780,334.940186 128.627014,335.511841 121.006271,335.884094 
	C110.373070,336.403412 99.725288,336.948212 89.085136,336.921753 
	C74.777908,336.886200 60.472012,336.316376 45.961296,335.614532 
	C44.505024,325.221436 42.288586,315.196594 42.216618,305.156342 
	C42.094654,288.141876 43.083942,271.103790 44.058506,254.101562 
	C45.006317,237.566010 49.774014,221.814987 55.012760,206.209518 
	C56.478783,201.842453 59.494911,199.332413 63.977436,199.152435 
	C67.210083,199.022675 70.476067,199.675293 73.724792,200.002625 
	C85.997810,201.239258 103.169815,187.182907 104.221001,171.559113 
	C104.759453,163.555862 105.453117,161.073151 113.218704,160.844345 
	C115.594238,160.774323 117.945236,159.827362 120.304955,159.271347 
	C138.799469,154.913651 151.741089,127.614525 138.127304,110.177750 
	C133.970200,104.853256 135.337143,99.781433 140.998749,96.009544 
	C145.332535,93.122269 149.716599,90.310509 154.051666,87.425125 
	C179.679977,70.367104 207.530594,57.955444 236.459930,47.729343 
	C240.415054,46.331257 243.900681,45.823570 247.164551,48.701706 
	C250.753433,51.866474 250.407883,55.924347 249.500656,60.129017 
	C249.169800,61.662376 249.170563,63.376148 249.471191,64.919746 
	C251.981827,77.810936 260.123444,84.744255 272.742981,87.428207 
	C282.818237,89.571053 295.607330,84.171356 300.460999,75.061295 
	C304.162476,68.113876 306.736847,67.139771 314.093933,69.541145 
	C327.023651,73.761452 339.454559,73.425537 351.108704,65.469063 
	C355.672211,62.353481 359.406891,62.901455 364.272644,66.757172 
	C371.984497,72.868202 380.452545,75.536407 389.764832,70.986145 
	C400.013214,65.978439 405.502808,57.304504 406.972351,46.113964 
	C408.123840,37.345379 405.383820,29.971409 398.632172,24.092819 
	C395.518341,21.381651 395.255890,17.691143 396.500214,14.100939 
	C397.760742,10.463933 400.664581,8.952619 404.600372,8.933490 
	C407.861908,8.917639 411.119720,8.310689 414.380737,7.981454 
	C430.860138,6.317693 447.343536,4.691385 463.812195,2.927369 
	C464.930756,2.807554 465.939941,1.666233 467.000000,0.999997 
M478.560059,79.310753 
	C497.258606,71.767441 503.184753,50.545502 490.938202,34.983891 
	C482.625366,24.420902 466.812653,21.632099 454.830444,28.615807 
	C443.114441,35.444359 438.090454,50.353397 442.793213,62.771885 
	C447.199493,74.407539 461.734619,85.041969 478.560059,79.310753 
M448.300751,126.375229 
	C455.996643,130.655792 463.540405,129.595184 468.993103,123.466003 
	C473.564545,118.327393 473.844940,109.230957 469.933167,103.581429 
	C465.886719,97.737411 455.971741,95.783775 450.249329,98.437370 
	C441.330597,102.573105 435.923096,117.161026 448.300751,126.375229 
z"/>
<path fill="#000000" opacity="1.000000" stroke="none" 
	d="
M466.531342,0.999997 
	C465.939941,1.666233 464.930756,2.807554 463.812195,2.927369 
	C447.343536,4.691385 430.860138,6.317693 414.380737,7.981454 
	C411.119720,8.310689 407.861908,8.917639 404.600372,8.933490 
	C400.664581,8.952619 397.760742,10.463933 396.500214,14.100939 
	C395.255890,17.691143 395.518341,21.381651 398.632172,24.092819 
	C405.383820,29.971409 408.123840,37.345379 406.972351,46.113964 
	C405.502808,57.304504 400.013214,65.978439 389.764832,70.986145 
	C380.452545,75.536407 371.984497,72.868202 364.272644,66.757172 
	C359.406891,62.901455 355.672211,62.353481 351.108704,65.469063 
	C339.454559,73.425537 327.023651,73.761452 314.093933,69.541145 
	C306.736847,67.139771 304.162476,68.113876 300.460999,75.061295 
	C295.607330,84.171356 282.818237,89.571053 272.742981,87.428207 
	C260.123444,84.744255 251.981827,77.810936 249.471191,64.919746 
	C249.170563,63.376148 249.169800,61.662376 249.500656,60.129017 
	C250.407883,55.924347 250.753433,51.866474 247.164551,48.701706 
	C243.900681,45.823570 240.415054,46.331257 236.459930,47.729343 
	C207.530594,57.955444 179.679977,70.367104 154.051666,87.425125 
	C149.716599,90.310509 145.332535,93.122269 140.998749,96.009544 
	C135.337143,99.781433 133.970200,104.853256 138.127304,110.177750 
	C151.741089,127.614525 138.799469,154.913651 120.304955,159.271347 
	C117.945236,159.827362 115.594238,160.774323 113.218704,160.844345 
	C105.453117,161.073151 104.759453,163.555862 104.221001,171.559113 
	C103.169815,187.182907 85.997810,201.239258 73.724792,200.002625 
	C70.476067,199.675293 67.210083,199.022675 63.977436,199.152435 
	C59.494911,199.332413 56.478783,201.842453 55.012760,206.209518 
	C49.774014,221.814987 45.006317,237.566010 44.058506,254.101562 
	C43.083942,271.103790 42.094654,288.141876 42.216618,305.156342 
	C42.288586,315.196594 44.505024,325.221436 45.886017,336.041687 
	C47.333328,344.184387 48.436222,351.585052 50.010715,358.883972 
	C54.598549,380.151855 60.505779,401.035126 68.781685,421.452423 
	C47.877186,442.548218 27.102158,463.350708 6.306357,484.132385 
	C4.610109,485.827515 2.772112,487.380798 0.999998,489.000000 
	C1.000000,326.407928 1.000000,163.815857 1.000000,1.000000 
	C156.020828,1.000000 311.041748,1.000000 466.531342,0.999997 
z"/>
<path fill="#49AD4D" opacity="1.000000" stroke="none" 
	d="
M0.999998,489.466858 
	C2.772112,487.380798 4.610109,485.827515 6.306357,484.132385 
	C27.102158,463.350708 47.877186,442.548218 69.116943,421.353516 
	C71.243797,419.605164 73.044930,418.388702 74.558067,416.882843 
	C88.965126,402.545563 102.890701,387.686829 117.864532,373.971375 
	C126.291847,366.252319 130.363327,358.232208 129.211029,346.674011 
	C128.196930,336.502319 129.113815,336.925171 139.576523,335.906219 
	C157.097687,334.199829 174.552872,331.783997 192.010452,329.474884 
	C197.600388,328.735504 203.110107,327.389771 208.656525,326.321472 
	C209.130859,326.994781 209.605179,327.668121 210.079514,328.341461 
	C201.785095,336.293579 193.490662,344.245697 184.331818,353.026581 
	C195.941345,353.026581 206.393600,353.026581 216.891205,353.491699 
	C216.955521,359.119690 217.269882,364.305969 216.863419,369.435120 
	C216.672729,371.841339 215.567886,374.526703 214.036270,376.396667 
	C211.420334,379.590515 208.141968,382.241821 204.664917,385.095215 
	C188.211258,385.047546 172.231232,384.855927 156.260864,385.164307 
	C153.473557,385.218140 150.069717,386.706299 148.064606,388.669647 
	C130.704147,405.668549 113.583763,422.912994 96.445351,440.137512 
	C95.074890,441.514893 94.103935,443.289764 92.655060,445.045746 
	C71.534195,466.031799 50.700333,486.846741 29.886793,507.681976 
	C28.186829,509.383698 26.625650,511.224060 24.999990,513.000000 
	C19.977907,513.000000 14.955815,513.000000 9.689889,512.684326 
	C6.630704,509.912384 3.815353,507.456207 1.000001,505.000000 
	C1.000000,499.977905 1.000000,494.955811 0.999998,489.466858 
z"/>
<path fill="#000000" opacity="1.000000" stroke="none" 
	d="
M25.468647,513.000000 
	C26.625650,511.224060 28.186829,509.383698 29.886793,507.681976 
	C50.700333,486.846741 71.534195,466.031799 93.051743,445.113342 
	C102.470428,447.504120 111.125427,450.304291 119.944298,452.422119 
	C143.620010,458.107727 167.307953,463.770966 191.111572,468.881714 
	C200.968872,470.998108 211.101288,472.113983 221.169739,472.865631 
	C227.674240,473.351257 234.289703,472.350342 240.913086,472.411865 
	C240.190918,474.833588 239.918839,477.335358 238.543198,478.801941 
	C232.656097,485.078247 226.426712,491.032562 220.355911,497.137848 
	C216.468887,501.046967 215.788406,505.721100 218.242081,510.587524 
	C218.616577,511.330231 218.753311,512.192810 219.000000,513.000000 
	C154.645767,513.000000 90.291542,513.000000 25.468647,513.000000 
z"/>
<path fill="#000000" opacity="1.000000" stroke="none" 
	d="
M475.000000,513.000000 
	C393.979095,513.000000 312.958221,513.000000 231.145416,512.757324 
	C235.327759,507.418365 239.918747,501.861084 245.365158,497.332581 
	C253.756943,490.355072 259.192902,482.475677 257.582886,471.022278 
	C270.305023,468.633270 282.608124,466.245270 295.239899,463.994995 
	C311.671326,475.076996 329.350555,480.984253 349.378357,480.900452 
	C352.568390,480.937561 355.306244,480.906708 358.491577,480.927368 
	C393.200592,479.500854 419.231354,463.196045 440.100220,435.375488 
	C441.276886,436.980011 442.104218,438.767120 443.481323,439.863953 
	C447.842194,443.337372 449.485718,447.475342 449.145355,453.190460 
	C448.602356,462.307983 448.737915,471.493561 449.157074,480.624146 
	C449.286255,483.438599 450.629547,486.760651 452.529297,488.828156 
	C459.051392,495.926117 466.096191,502.541870 472.860107,509.421722 
	C473.806976,510.384857 474.297974,511.796173 475.000000,513.000000 
z"/>
<path fill="#000000" opacity="1.000000" stroke="none" 
	d="
M499.845642,143.006271 
	C500.896942,137.276642 502.146576,131.574951 502.958801,125.811638 
	C504.735626,113.204094 506.441162,100.582451 507.882965,87.933189 
	C508.848969,79.458405 509.361938,70.929955 509.982880,62.418598 
	C510.414276,56.506020 510.650085,50.579224 511.072601,44.665871 
	C511.122955,43.961258 511.798462,43.301304 512.592041,42.810322 
	C513.000000,160.020889 513.000000,277.041779 512.776306,394.873047 
	C505.562805,388.818237 498.453430,382.067657 491.676086,374.998749 
	C490.180481,373.438812 489.176331,370.769592 489.117462,368.579712 
	C488.849548,358.611206 488.721588,348.620667 489.110901,338.660187 
	C489.322998,333.233734 487.269257,330.250549 482.460724,328.032593 
	C473.543854,323.919647 464.859863,319.301788 456.044281,314.505615 
	C455.625488,312.374512 455.241302,310.631958 454.942139,308.524506 
	C455.609283,306.648071 456.127991,305.108490 456.783142,303.629303 
	C468.266174,277.701813 476.787872,250.746078 483.895416,223.368286 
	C488.468018,205.755005 492.186829,187.908142 495.852936,170.076462 
	C497.686859,161.156479 498.545776,152.036041 499.845642,143.006271 
z"/>
<path fill="#000000" opacity="1.000000" stroke="none" 
	d="
M513.000000,407.000000 
	C513.000000,442.215820 513.000000,477.431641 513.000000,513.000000 
	C504.649078,513.000000 496.293182,513.000000 487.166321,512.684692 
	C490.623230,506.074341 490.255798,501.815979 485.023346,496.535400 
	C483.498901,494.996857 481.962341,493.470337 480.436371,491.933319 
	C475.390961,486.851288 468.364624,482.580231 465.854126,476.457916 
	C463.273285,470.164093 464.289734,461.962311 465.176758,454.773712 
	C466.786957,441.723999 463.158600,431.401123 452.304504,423.786072 
	C451.633301,423.315186 450.789154,422.716644 450.592377,422.017883 
	C450.110901,420.308105 449.199341,418.177521 449.795380,416.789215 
	C456.531464,401.099365 457.978973,384.707703 456.872314,367.455231 
	C456.981812,356.367126 457.034943,345.739044 457.450684,335.079895 
	C461.629395,336.921936 465.355377,339.020599 469.291504,340.593262 
	C472.178558,341.746735 473.141754,343.347900 473.077972,346.458313 
	C472.869873,356.602936 472.779938,366.762512 473.149475,376.897949 
	C473.246399,379.556122 474.557068,382.719421 476.367889,384.667938 
	C483.158142,391.974731 490.490601,398.774323 497.405151,405.970306 
	C500.775269,409.477509 504.663086,409.418610 508.813965,408.595734 
	C510.257996,408.309509 511.607361,407.545685 513.000000,407.000000 
z"/>
<path fill="#9C7B70" opacity="1.000000" stroke="none" 
	d="
M456.815918,367.915283 
	C457.978973,384.707703 456.531464,401.099365 449.795380,416.789215 
	C449.199341,418.177521 450.110901,420.308105 450.592377,422.017883 
	C450.789154,422.716644 451.633301,423.315186 452.304504,423.786072 
	C463.158600,431.401123 466.786957,441.723999 465.176758,454.773712 
	C464.289734,461.962311 463.273285,470.164093 465.854126,476.457916 
	C468.364624,482.580231 475.390961,486.851288 480.436371,491.933319 
	C481.962341,493.470337 483.498901,494.996857 485.023346,496.535400 
	C490.255798,501.815979 490.623230,506.074341 486.697632,512.684692 
	C483.307098,513.000000 479.614166,513.000000 475.460632,513.000000 
	C474.297974,511.796173 473.806976,510.384857 472.860107,509.421722 
	C466.096191,502.541870 459.051392,495.926117 452.529297,488.828156 
	C450.629547,486.760651 449.286255,483.438599 449.157074,480.624146 
	C448.737915,471.493561 448.602356,462.307983 449.145355,453.190460 
	C449.485718,447.475342 447.842194,443.337372 443.481323,439.863953 
	C442.104218,438.767120 441.276886,436.980011 440.100220,435.375488 
	C419.231354,463.196045 393.200592,479.500854 358.684967,480.665649 
	C372.762421,470.060547 385.097870,457.704468 393.071533,441.957489 
	C398.714172,430.814087 402.416626,418.688232 407.265747,406.820557 
	C414.438690,398.792145 421.847931,391.332092 428.099640,383.003174 
	C437.005432,371.138367 444.156769,358.180054 448.352936,343.910706 
	C451.357269,352.063354 454.086578,359.989319 456.815918,367.915283 
z"/>
<path fill="#9C7B70" opacity="1.000000" stroke="none" 
	d="
M513.000000,406.539368 
	C511.607361,407.545685 510.257996,408.309509 508.813965,408.595734 
	C504.663086,409.418610 500.775269,409.477509 497.405151,405.970306 
	C490.490601,398.774323 483.158142,391.974731 476.367889,384.667938 
	C474.557068,382.719421 473.246399,379.556122 473.149475,376.897949 
	C472.779938,366.762512 472.869873,356.602936 473.077972,346.458313 
	C473.141754,343.347900 472.178558,341.746735 469.291504,340.593262 
	C465.355377,339.020599 461.629395,336.921936 457.428406,334.608704 
	C456.721954,327.743835 456.400452,321.319000 456.078918,314.894196 
	C464.859863,319.301788 473.543854,323.919647 482.460724,328.032593 
	C487.269257,330.250549 489.322998,333.233734 489.110901,338.660187 
	C488.721588,348.620667 488.849548,358.611206 489.117462,368.579712 
	C489.176331,370.769592 490.180481,373.438812 491.676086,374.998749 
	C498.453430,382.067657 505.562805,388.818237 512.776306,395.341705 
	C513.000000,398.692902 513.000000,402.385834 513.000000,406.539368 
z"/>
<path fill="#9C7B70" opacity="1.000000" stroke="none" 
	d="
M257.163849,471.023254 
	C259.192902,482.475677 253.756943,490.355072 245.365158,497.332581 
	C239.918747,501.861084 235.327759,507.418365 230.676758,512.757324 
	C227.307098,513.000000 223.614182,513.000000 219.460632,513.000000 
	C218.753311,512.192810 218.616577,511.330231 218.242081,510.587524 
	C215.788406,505.721100 216.468887,501.046967 220.355911,497.137848 
	C226.426712,491.032562 232.656097,485.078247 238.543198,478.801941 
	C239.918839,477.335358 240.190918,474.833588 240.954239,471.945984 
	C240.960236,461.605225 240.791138,452.119720 241.129776,442.652405 
	C241.223175,440.040894 242.186859,436.915649 243.867645,435.011719 
	C248.253494,430.043518 253.257523,425.621063 258.245514,421.227020 
	C260.990570,425.987610 263.505157,430.502167 265.835510,435.293030 
	C264.276855,437.002869 262.686676,438.288361 261.578064,439.904266 
	C259.881622,442.376984 257.411377,444.999725 257.221680,447.696106 
	C256.677277,455.434906 257.113251,463.242615 257.163849,471.023254 
z"/>
<path fill="#000000" opacity="1.000000" stroke="none" 
	d="
M1.000001,505.494751 
	C3.815353,507.456207 6.630704,509.912384 9.223027,512.684326 
	C6.417543,513.000000 3.835087,513.000000 1.000000,513.000000 
	C1.000000,510.666077 1.000000,508.327789 1.000001,505.494751 
z"/>
<path fill="#66BB6A" opacity="1.000000" stroke="none" 
	d="
M216.845871,353.026581 
	C206.393600,353.026581 195.941345,353.026581 184.331818,353.026581 
	C193.490662,344.245697 201.785095,336.293579 210.079514,328.341461 
	C209.605179,327.668121 209.130859,326.994781 208.656525,326.321472 
	C203.110107,327.389771 197.600388,328.735504 192.010452,329.474884 
	C174.552872,331.783997 157.097687,334.199829 139.576523,335.906219 
	C129.113815,336.925171 128.196930,336.502319 129.211029,346.674011 
	C130.363327,358.232208 126.291847,366.252319 117.864532,373.971375 
	C102.890701,387.686829 88.965126,402.545563 74.558067,416.882843 
	C73.044930,418.388702 71.243797,419.605164 69.241028,421.054810 
	C60.505779,401.035126 54.598549,380.151855 50.010715,358.883972 
	C48.436222,351.585052 47.333328,344.184387 46.090263,336.403015 
	C60.472012,336.316376 74.777908,336.886200 89.085136,336.921753 
	C99.725288,336.948212 110.373070,336.403412 121.006271,335.884094 
	C128.627014,335.511841 128.996780,334.940186 128.998260,327.229401 
	C129.003738,298.739288 128.925110,270.248810 129.041794,241.759186 
	C129.092621,229.350433 140.461136,221.575165 151.406921,226.413315 
	C158.238831,229.433105 161.041962,235.112762 161.023819,242.494751 
	C160.958328,269.152039 160.999481,295.809540 161.000351,322.466980 
	C161.000412,324.445007 161.000366,326.423065 161.000366,329.438751 
	C162.733887,328.203278 163.812134,327.638245 164.635666,326.817596 
	C178.443726,313.058136 192.329910,299.373047 205.878021,285.361328 
	C207.783356,283.390808 208.853500,279.792664 208.869476,276.939880 
	C209.069061,241.286682 208.946655,205.631836 209.034668,169.977737 
	C209.065506,157.485901 220.183563,149.675461 231.208923,154.322662 
	C237.263748,156.874802 240.547745,161.705673 240.924500,168.279327 
	C241.133881,171.932297 240.950806,175.607727 240.588425,179.617310 
	C239.650986,179.641281 239.067810,179.324387 238.488754,179.000183 
	C233.204025,176.041168 228.828003,176.668076 226.259827,180.753525 
	C223.699341,184.826736 225.031067,189.194763 229.924225,192.585556 
	C233.609253,195.139160 237.333023,197.636841 241.029266,200.613281 
	C241.018997,216.956833 241.018997,232.846527 241.018997,249.974930 
	C244.441620,246.946274 246.648911,244.993042 248.891937,243.479385 
	C248.034225,250.601273 250.817200,255.203033 256.480011,258.742798 
	C260.654358,261.352142 264.316467,264.780945 268.001648,268.134460 
	C251.142120,285.240173 234.487778,302.056061 217.833435,318.871948 
	C218.079041,319.304413 218.324646,319.736877 218.570251,320.169342 
	C229.367981,317.118805 240.165710,314.068237 250.962189,311.377625 
	C250.610352,313.120728 250.259766,314.503937 249.564301,315.981812 
	C240.279770,320.494324 231.351471,324.935425 222.394958,329.318817 
	C218.716660,331.118988 216.962662,333.971619 216.987152,338.070099 
	C217.016937,343.055145 216.899582,348.041046 216.845871,353.026581 
z"/>
<path fill="#9C7C70" opacity="1.000000" stroke="none" 
	d="
M365.855011,201.874054 
	C372.452209,197.679932 379.037903,193.467560 385.648987,189.295471 
	C399.315521,180.670853 408.986023,169.623596 409.181000,152.311249 
	C409.237305,147.312180 412.551788,145.466278 418.472961,146.043594 
	C422.956024,146.480698 425.191315,149.419067 424.953186,154.401947 
	C424.312744,167.804871 419.463257,179.493134 409.664917,188.610367 
	C402.991333,194.820084 395.474030,200.125031 388.309723,205.803925 
	C386.663361,207.108932 384.917419,208.288315 382.619843,209.960297 
	C391.276978,216.525482 397.299622,224.339569 401.623657,234.293045 
	C403.920074,243.399994 405.924591,251.860596 407.524170,260.250488 
	C395.454773,256.794617 383.487915,256.635773 371.503967,257.025391 
	C346.987091,257.822510 322.289459,254.574066 298.022278,259.838226 
	C299.063812,255.620117 300.070862,251.818970 301.491760,248.055847 
	C309.508911,248.057999 317.235535,248.887985 324.692413,247.825256 
	C347.830353,244.527695 365.775513,232.461456 379.301666,213.561157 
	C381.399780,210.629395 380.732635,208.721558 377.602600,207.302979 
	C373.673615,205.522293 369.769714,203.686218 365.855011,201.874054 
z"/>
<path fill="#67BB6B" opacity="1.000000" stroke="none" 
	d="
M499.585999,143.203796 
	C498.545776,152.036041 497.686859,161.156479 495.852936,170.076462 
	C492.186829,187.908142 488.468018,205.755005 483.895416,223.368286 
	C476.787872,250.746078 468.266174,277.701813 456.783142,303.629303 
	C456.127991,305.108490 455.609283,306.648071 454.707092,308.284729 
	C450.430206,300.864655 446.923615,293.032379 442.360992,285.873169 
	C439.224335,280.951447 434.622223,276.963684 430.990356,272.353516 
	C438.110840,267.082764 444.823547,261.885498 451.758209,257.003510 
	C455.542603,254.339279 457.120911,251.065155 457.057892,246.466949 
	C456.889160,234.156967 456.835693,221.838623 457.162292,209.534912 
	C457.220734,207.334137 458.798370,204.517227 460.571930,203.142731 
	C465.687958,199.177765 471.275970,195.824341 476.652130,192.191544 
	C480.000427,189.928970 481.767975,186.937927 480.392944,182.815887 
	C478.990295,178.611099 475.935211,176.795883 471.562469,177.076599 
	C470.733185,177.129837 469.901489,177.144516 469.070892,177.176971 
	C473.486206,172.218689 477.888916,167.249115 482.319946,162.304932 
	C487.976776,155.993027 493.656525,149.701614 499.585999,143.203796 
z"/>
<path fill="#C8E6C9" opacity="1.000000" stroke="none" 
	d="
M478.183044,79.450066 
	C461.734619,85.041969 447.199493,74.407539 442.793213,62.771885 
	C438.090454,50.353397 443.114441,35.444359 454.830444,28.615807 
	C466.812653,21.632099 482.625366,24.420902 490.938202,34.983891 
	C503.184753,50.545502 497.258606,71.767441 478.183044,79.450066 
z"/>
<path fill="#A1887F" opacity="1.000000" stroke="none" 
	d="
M365.431671,201.901703 
	C369.769714,203.686218 373.673615,205.522293 377.602600,207.302979 
	C380.732635,208.721558 381.399780,210.629395 379.301666,213.561157 
	C365.775513,232.461456 347.830353,244.527695 324.692413,247.825256 
	C317.235535,248.887985 309.508911,248.057999 301.542419,247.672852 
	C302.462036,242.151108 303.744873,237.050415 305.214905,231.670319 
	C310.004944,223.100098 315.829865,215.831451 323.633789,209.864578 
	C329.347931,207.130630 334.755066,204.493469 340.162231,201.856323 
	C348.444275,201.880676 356.726288,201.905014 365.431671,201.901703 
M336.476593,222.321945 
	C334.625549,218.046982 331.328400,216.256714 326.877869,217.409622 
	C322.853546,218.452133 320.843384,221.449631 321.131775,225.594589 
	C321.404205,229.510193 323.697937,232.008682 327.551361,232.787842 
	C333.140167,233.917908 336.978668,229.786514 336.476593,222.321945 
z"/>
<path fill="#66BB6A" opacity="1.000000" stroke="none" 
	d="
M323.326782,209.961365 
	C315.829865,215.831451 310.004944,223.100098 304.933533,231.857361 
	C296.355469,240.221207 288.245911,248.118607 279.826233,255.866638 
	C264.581635,245.438568 264.581116,245.438553 265.044708,227.468201 
	C265.057465,226.973450 265.111176,226.479752 265.145782,225.985565 
	C276.307068,214.887268 287.468353,203.788971 299.104980,192.583191 
	C307.495819,198.304276 315.411285,204.132828 323.326782,209.961365 
z"/>
<path fill="#9C7C70" opacity="1.000000" stroke="none" 
	d="
M469.029358,177.141846 
	C469.901489,177.144516 470.733185,177.129837 471.562469,177.076599 
	C475.935211,176.795883 478.990295,178.611099 480.392944,182.815887 
	C481.767975,186.937927 480.000427,189.928970 476.652130,192.191544 
	C471.275970,195.824341 465.687958,199.177765 460.571930,203.142731 
	C458.798370,204.517227 457.220734,207.334137 457.162292,209.534912 
	C456.835693,221.838623 456.889160,234.156967 457.057892,246.466949 
	C457.120911,251.065155 455.542603,254.339279 451.758209,257.003510 
	C444.823547,261.885498 438.110840,267.082764 430.669434,272.204102 
	C425.370850,269.465302 420.708435,266.670990 416.286682,263.658081 
	C423.550629,258.150360 430.713898,253.031586 437.501862,247.455963 
	C439.266785,246.006287 440.788574,243.150208 440.837372,240.905670 
	C441.111267,228.304825 440.900513,215.693451 440.855133,203.085663 
	C440.652985,198.269211 443.008789,195.136276 447.001892,192.607788 
	C453.977234,188.190872 460.723389,183.412003 468.001648,178.364319 
	C468.638458,177.632965 468.839233,177.322098 469.040039,177.011230 
	C469.040039,177.011246 468.987823,177.106705 469.029358,177.141846 
z"/>
<path fill="#9C7C70" opacity="1.000000" stroke="none" 
	d="
M265.105774,225.519730 
	C265.111176,226.479752 265.057465,226.973450 265.044708,227.468201 
	C264.581116,245.438553 264.581635,245.438568 280.032959,256.109985 
	C283.507477,258.765289 286.465118,261.027863 289.241913,263.581604 
	C284.425720,266.768372 279.790375,269.663971 274.862762,272.320496 
	C272.449280,270.669189 270.328033,269.256897 268.206818,267.844635 
	C264.316467,264.780945 260.654358,261.352142 256.480011,258.742798 
	C250.817200,255.203033 248.034225,250.601273 248.932404,243.008514 
	C248.957565,232.788406 248.492172,223.443832 249.157501,214.180466 
	C249.658554,207.204163 247.421844,202.710663 241.039551,200.159424 
	C237.333023,197.636841 233.609253,195.139160 229.924225,192.585556 
	C225.031067,189.194763 223.699341,184.826736 226.259827,180.753525 
	C228.828003,176.668076 233.204025,176.041168 238.488754,179.000183 
	C239.067810,179.324387 239.650986,179.641281 240.568817,180.097885 
	C246.502625,184.094955 251.894516,188.309174 257.756226,191.714737 
	C263.358002,194.969345 265.515015,199.257156 265.100067,205.632309 
	C264.680389,212.079605 265.044830,218.577927 265.105774,225.519730 
z"/>
<path fill="#66BB6A" opacity="1.000000" stroke="none" 
	d="
M310.197601,181.015656 
	C320.489685,170.815292 330.771240,160.604309 341.076996,150.417740 
	C350.449188,141.153885 363.831390,144.144440 368.158447,156.559998 
	C370.504608,163.291946 367.281281,168.795044 362.994171,173.331177 
	C354.761566,182.041962 346.044403,190.294815 336.912933,198.815277 
	C327.597626,192.933838 318.897614,186.974747 310.197601,181.015656 
z"/>
<path fill="#66BB6A" opacity="1.000000" stroke="none" 
	d="
M440.590027,203.261139 
	C440.900513,215.693451 441.111267,228.304825 440.837372,240.905670 
	C440.788574,243.150208 439.266785,246.006287 437.501862,247.455963 
	C430.713898,253.031586 423.550629,258.150360 415.953125,263.551971 
	C412.895630,262.550018 410.412354,261.435608 407.929108,260.321198 
	C405.924591,251.860596 403.920074,243.399994 401.833405,234.565155 
	C414.609161,223.939484 427.467041,213.688034 440.590027,203.261139 
z"/>
<path fill="#9B7C70" opacity="1.000000" stroke="none" 
	d="
M309.896057,180.838974 
	C318.897614,186.974747 327.597626,192.933838 336.630920,199.003021 
	C337.894226,199.876190 338.824249,200.639267 339.958252,201.629333 
	C334.755066,204.493469 329.347931,207.130630 323.633789,209.864578 
	C315.411285,204.132828 307.495819,198.304276 299.298676,192.322357 
	C288.253662,181.948303 281.212067,169.914307 281.032990,154.651535 
	C280.953156,147.844376 283.475769,145.564209 290.075531,146.022964 
	C294.750092,146.347916 296.704712,148.524460 296.987946,153.959564 
	C297.542114,164.595749 301.669708,173.518829 309.896057,180.838974 
z"/>
<path fill="#C7E6C8" opacity="1.000000" stroke="none" 
	d="
M447.998474,126.157463 
	C435.923096,117.161026 441.330597,102.573105 450.249329,98.437370 
	C455.971741,95.783775 465.886719,97.737411 469.933167,103.581429 
	C473.844940,109.230957 473.564545,118.327393 468.993103,123.466003 
	C463.540405,129.595184 455.996643,130.655792 447.998474,126.157463 
z"/>
<path fill="#67BB6B" opacity="1.000000" stroke="none" 
	d="
M468.837952,177.201904 
	C468.839233,177.322098 468.638458,177.632965 468.220551,178.128662 
	C468.214264,178.006516 468.425110,177.699539 468.837952,177.201904 
z"/>
<path fill="#66BB6A" opacity="1.000000" stroke="none" 
	d="
M258.015015,420.980988 
	C253.257523,425.621063 248.253494,430.043518 243.867645,435.011719 
	C242.186859,436.915649 241.223175,440.040894 241.129776,442.652405 
	C240.791138,452.119720 240.960236,461.605225 240.896591,471.549744 
	C234.289703,472.350342 227.674240,473.351257 221.169739,472.865631 
	C211.101288,472.113983 200.968872,470.998108 191.111572,468.881714 
	C167.307953,463.770966 143.620010,458.107727 119.944298,452.422119 
	C111.125427,450.304291 102.470428,447.504120 93.344009,444.947510 
	C94.103935,443.289764 95.074890,441.514893 96.445351,440.137512 
	C113.583763,422.912994 130.704147,405.668549 148.064606,388.669647 
	C150.069717,386.706299 153.473557,385.218140 156.260864,385.164307 
	C172.231232,384.855927 188.211258,385.047546 204.475281,385.367859 
	C201.753830,388.743469 198.296936,391.512604 195.894852,395.006897 
	C194.308426,397.314636 193.144150,400.902191 193.709045,403.499603 
	C195.008682,409.475586 202.290924,410.767426 207.204620,406.106659 
	C214.526611,399.161591 221.644394,392.001251 229.330536,384.949707 
	C236.174225,384.970703 242.536453,384.974487 248.926514,385.398438 
	C249.219742,387.451477 249.346527,389.121552 249.773132,390.711182 
	C252.483551,400.811005 255.260193,410.893066 258.015015,420.980988 
z"/>
<path fill="#9B7C70" opacity="1.000000" stroke="none" 
	d="
M228.849091,384.932526 
	C221.644394,392.001251 214.526611,399.161591 207.204620,406.106659 
	C202.290924,410.767426 195.008682,409.475586 193.709045,403.499603 
	C193.144150,400.902191 194.308426,397.314636 195.894852,395.006897 
	C198.296936,391.512604 201.753830,388.743469 204.952194,385.393616 
	C208.141968,382.241821 211.420334,379.590515 214.036270,376.396667 
	C215.567886,374.526703 216.672729,371.841339 216.863419,369.435120 
	C217.269882,364.305969 216.955521,359.119690 216.891205,353.491699 
	C216.899582,348.041046 217.016937,343.055145 216.987152,338.070099 
	C216.962662,333.971619 218.716660,331.118988 222.394958,329.318817 
	C231.351471,324.935425 240.279770,320.494324 249.575241,316.416992 
	C249.571213,322.553314 249.211365,328.349121 248.542389,334.268402 
	C246.178406,335.410889 244.221268,336.778290 242.051346,337.386932 
	C233.813095,339.697479 231.620087,345.260101 233.111893,353.496918 
	C233.047516,360.234192 232.808441,366.515808 233.074997,372.775909 
	C233.276459,377.507294 232.287796,381.583435 228.849091,384.932526 
z"/>
<path fill="#876559" opacity="1.000000" stroke="none" 
	d="
M406.985168,407.000916 
	C402.416626,418.688232 398.714172,430.814087 393.071533,441.957489 
	C385.097870,457.704468 372.762421,470.060547 358.237488,480.614166 
	C355.306244,480.906708 352.568390,480.937561 349.126709,480.694672 
	C346.907806,479.413208 345.370453,478.437286 343.881348,477.392609 
	C332.602692,469.480286 324.022400,459.004944 315.866119,447.680695 
	C301.383118,424.486633 295.984924,399.502472 296.845795,372.636841 
	C297.516388,351.709106 296.811035,330.737274 296.998108,309.544403 
	C302.429657,307.991272 307.580231,306.678772 312.792419,305.801514 
	C312.903442,332.646271 312.775818,359.057648 313.056946,385.464691 
	C313.292664,407.604370 320.574402,427.423096 334.170624,445.288361 
	C337.403137,449.129242 340.457886,452.687927 343.512665,456.246643 
	C343.980499,456.041473 344.448364,455.836334 344.916229,455.631165 
	C344.916229,451.406158 344.916229,447.181152 344.934753,442.490570 
	C345.002899,396.389099 345.052490,350.753204 345.561005,305.082214 
	C350.979279,305.070526 355.938629,305.093933 360.924133,305.576355 
	C360.987274,349.345703 361.024231,392.656006 361.043335,436.437805 
	C361.025452,443.194061 361.025452,449.478821 361.025452,456.552399 
	C369.479126,450.194580 379.685547,435.702698 383.278595,425.772156 
	C384.429535,423.566803 385.491730,421.675903 386.252625,419.670654 
	C390.959442,407.266846 393.144318,394.466431 393.067444,381.148865 
	C392.921600,355.889282 393.179657,330.627380 393.627380,305.412292 
	C399.084137,306.900635 404.183380,308.343079 409.210938,310.267792 
	C407.928955,342.822662 411.136505,374.994141 406.985168,407.000916 
z"/>
<path fill="#9C7B70" opacity="1.000000" stroke="none" 
	d="
M316.003540,447.998779 
	C324.022400,459.004944 332.602692,469.480286 343.881348,477.392609 
	C345.370453,478.437286 346.907806,479.413208 348.674469,480.626709 
	C329.350555,480.984253 311.671326,475.076996 295.054596,463.732300 
	C288.719849,458.185059 282.899109,453.038208 277.391724,447.737183 
	C278.675323,447.605347 279.645416,447.638763 280.615784,447.648529 
	C292.411682,447.767303 304.207611,447.882599 316.003540,447.998779 
z"/>
<path fill="#67BB6A" opacity="1.000000" stroke="none" 
	d="
M277.078369,447.891388 
	C282.899109,453.038208 288.719849,458.185059 294.725891,463.594604 
	C282.608124,466.245270 270.305023,468.633270 257.582886,471.022278 
	C257.113251,463.242615 256.677277,455.434906 257.221680,447.696106 
	C257.411377,444.999725 259.881622,442.376984 261.578064,439.904266 
	C262.686676,438.288361 264.276855,437.002869 266.125854,435.454529 
	C270.093048,439.523590 273.585724,443.707489 277.078369,447.891388 
z"/>
<path fill="#BCAAA4" opacity="1.000000" stroke="none" 
	d="
M409.282654,309.785522 
	C404.183380,308.343079 399.084137,306.900635 393.139343,305.336670 
	C381.828552,305.182556 371.363251,305.149933 360.897980,305.117310 
	C355.938629,305.093933 350.979279,305.070526 345.084869,305.053101 
	C333.676819,305.161499 323.203796,305.263885 312.730804,305.366272 
	C307.580231,306.678772 302.429657,307.991272 296.633911,309.592285 
	C282.449341,314.130066 272.162079,322.863129 263.551117,333.749908 
	C255.398743,344.056946 251.259323,356.090485 249.137054,368.462585 
	C249.015152,363.021240 248.930679,358.039215 248.891052,352.586914 
	C248.907776,346.126068 248.879639,340.135468 248.851501,334.144897 
	C249.211365,328.349121 249.571213,322.553314 249.920120,316.322327 
	C250.259766,314.503937 250.610352,313.120728 251.129761,311.049622 
	C255.605179,301.817566 259.495178,293.025146 264.381409,284.826447 
	C267.120850,280.229858 271.509460,276.616119 275.155029,272.559570 
	C279.790375,269.663971 284.425720,266.768372 289.589294,263.544525 
	C292.740967,262.229248 295.364380,261.242218 297.987823,260.255188 
	C322.289459,254.574066 346.987091,257.822510 371.503967,257.025391 
	C383.487915,256.635773 395.454773,256.794617 407.524170,260.250488 
	C410.412354,261.435608 412.895630,262.550018 415.712463,263.770538 
	C420.708435,266.670990 425.370850,269.465302 430.354187,272.409058 
	C434.622223,276.963684 439.224335,280.951447 442.360992,285.873169 
	C446.923615,293.032379 450.430206,300.864655 454.622131,308.649658 
	C455.241302,310.631958 455.625488,312.374512 456.044281,314.505615 
	C456.400452,321.319000 456.721954,327.743835 457.065765,334.639832 
	C457.034943,345.739044 456.981812,356.367126 456.872314,367.455231 
	C454.086578,359.989319 451.357269,352.063354 448.308594,343.581360 
	C443.710815,333.395569 436.823517,325.757294 428.397308,319.840057 
	C422.553864,315.736542 415.690369,313.085541 409.282654,309.785522 
z"/>
<path fill="#A1887F" opacity="1.000000" stroke="none" 
	d="
M409.210938,310.267792 
	C415.690369,313.085541 422.553864,315.736542 428.397308,319.840057 
	C436.823517,325.757294 443.710815,333.395569 448.033569,343.354736 
	C444.156769,358.180054 437.005432,371.138367 428.099640,383.003174 
	C421.847931,391.332092 414.438690,398.792145 407.265747,406.820557 
	C411.136505,374.994141 407.928955,342.822662 409.210938,310.267792 
z"/>
<path fill="#A1887F" opacity="1.000000" stroke="none" 
	d="
M249.174500,368.921844 
	C251.259323,356.090485 255.398743,344.056946 263.551117,333.749908 
	C272.162079,322.863129 282.449341,314.130066 296.352966,309.832886 
	C296.811035,330.737274 297.516388,351.709106 296.845795,372.636841 
	C295.984924,399.502472 301.383118,424.486633 315.866119,447.680725 
	C304.207611,447.882599 292.411682,447.767303 280.615784,447.648529 
	C279.645416,447.638763 278.675323,447.605347 277.391724,447.737183 
	C273.585724,443.707489 270.093048,439.523590 266.310059,435.178223 
	C263.505157,430.502167 260.990570,425.987610 258.245514,421.227020 
	C255.260193,410.893066 252.483551,400.811005 249.773132,390.711182 
	C249.346527,389.121552 249.219742,387.451477 248.983459,384.935486 
	C249.066544,379.008850 249.120514,373.965363 249.174500,368.921844 
M261.482178,366.005829 
	C254.093567,374.943390 256.396088,387.070251 266.326233,391.518280 
	C273.692810,394.817993 282.121307,392.345154 286.508453,385.596954 
	C290.808441,378.982819 289.463654,370.287262 283.298828,364.843201 
	C277.270569,359.519745 268.909363,359.770477 261.482178,366.005829 
M288.930450,416.606262 
	C288.551361,412.688629 286.469666,409.561310 282.645050,409.460419 
	C279.927673,409.388824 276.221680,410.735840 274.682007,412.761139 
	C273.289703,414.592560 273.161652,418.917938 274.439301,420.835510 
	C275.851196,422.954498 279.483612,424.596252 282.170898,424.628693 
	C286.222168,424.677612 288.500702,421.529510 288.930450,416.606262 
z"/>
<path fill="#81C784" opacity="1.000000" stroke="none" 
	d="
M274.862762,272.320496 
	C271.509460,276.616119 267.120850,280.229858 264.381409,284.826447 
	C259.495178,293.025146 255.605179,301.817566 251.131012,310.689697 
	C240.165710,314.068237 229.367981,317.118805 218.570251,320.169342 
	C218.324646,319.736877 218.079041,319.304413 217.833435,318.871948 
	C234.487778,302.056061 251.142120,285.240173 268.001648,268.134460 
	C270.328033,269.256897 272.449280,270.669189 274.862762,272.320496 
z"/>
<path fill="#81C784" opacity="1.000000" stroke="none" 
	d="
M241.029266,200.613281 
	C247.421844,202.710663 249.658554,207.204163 249.157501,214.180466 
	C248.492172,223.443832 248.957565,232.788406 248.896667,242.568970 
	C246.648911,244.993042 244.441620,246.946274 241.018997,249.974930 
	C241.018997,232.846527 241.018997,216.956833 241.029266,200.613281 
z"/>
<path fill="#81C684" opacity="1.000000" stroke="none" 
	d="
M298.022278,259.838226 
	C295.364380,261.242218 292.740967,262.229248 289.770142,263.253357 
	C286.465118,261.027863 283.507477,258.765289 280.343109,256.259338 
	C288.245911,248.118607 296.355469,240.221207 304.746399,232.136765 
	C303.744873,237.050415 302.462036,242.151108 301.128540,247.634811 
	C300.070862,251.818970 299.063812,255.620117 298.022278,259.838226 
z"/>
<path fill="#BBA9A2" opacity="1.000000" stroke="none" 
	d="
M336.596649,222.697891 
	C336.978668,229.786514 333.140167,233.917908 327.551361,232.787842 
	C323.697937,232.008682 321.404205,229.510193 321.131775,225.594589 
	C320.843384,221.449631 322.853546,218.452133 326.877869,217.409622 
	C331.328400,216.256714 334.625549,218.046982 336.596649,222.697891 
z"/>
<path fill="#49AD4D" opacity="1.000000" stroke="none" 
	d="
M249.137054,368.462585 
	C249.120514,373.965363 249.066544,379.008850 248.955627,384.515320 
	C242.536453,384.974487 236.174225,384.970703 229.330536,384.949707 
	C232.287796,381.583435 233.276459,377.507294 233.074997,372.775909 
	C232.808441,366.515808 233.047516,360.234192 233.565521,353.489380 
	C238.989914,353.030304 243.918076,353.043732 248.846222,353.057159 
	C248.930679,358.039215 249.015152,363.021240 249.137054,368.462585 
z"/>
<path fill="#66BB6A" opacity="1.000000" stroke="none" 
	d="
M248.891052,352.586914 
	C243.918076,353.043732 238.989914,353.030304 233.608124,353.024475 
	C231.620087,345.260101 233.813095,339.697479 242.051346,337.386932 
	C244.221268,336.778290 246.178406,335.410889 248.542374,334.268402 
	C248.879639,340.135468 248.907776,346.126068 248.891052,352.586914 
z"/>
<path fill="#A1887F" opacity="1.000000" stroke="none" 
	d="
M312.792419,305.801514 
	C323.203796,305.263885 333.676819,305.161499 344.625946,305.088196 
	C345.052490,350.753204 345.002899,396.389099 344.538879,442.515442 
	C340.747253,443.672668 337.370056,444.339417 333.992859,445.006195 
	C320.574402,427.423096 313.292664,407.604370 313.056946,385.464691 
	C312.775818,359.057648 312.903442,332.646271 312.792419,305.801514 
z"/>
<path fill="#A1887F" opacity="1.000000" stroke="none" 
	d="
M360.924133,305.576355 
	C371.363251,305.149933 381.828552,305.182556 392.781860,305.290802 
	C393.179657,330.627380 392.921600,355.889282 393.067444,381.148865 
	C393.144318,394.466431 390.959442,407.266846 386.252625,419.670654 
	C385.491730,421.675903 384.429535,423.566803 382.924713,425.838623 
	C380.887451,426.894348 379.453217,427.668396 377.972961,428.341400 
	C372.343750,430.900726 366.699707,433.427429 361.061188,435.966339 
	C361.024231,392.656006 360.987274,349.345703 360.924133,305.576355 
z"/>
<path fill="#9C7B70" opacity="1.000000" stroke="none" 
	d="
M361.043335,436.437805 
	C366.699707,433.427429 372.343750,430.900726 377.972961,428.341400 
	C379.453217,427.668396 380.887451,426.894348 382.696716,426.100250 
	C379.685547,435.702698 369.479126,450.194580 361.025452,456.552399 
	C361.025452,449.478821 361.025452,443.194061 361.043335,436.437805 
z"/>
<path fill="#9C7B70" opacity="1.000000" stroke="none" 
	d="
M334.170624,445.288361 
	C337.370056,444.339417 340.747253,443.672668 344.520325,442.981018 
	C344.916229,447.181152 344.916229,451.406158 344.916229,455.631165 
	C344.448364,455.836334 343.980499,456.041473 343.512665,456.246643 
	C340.457886,452.687927 337.403137,449.129242 334.170624,445.288361 
z"/>
<path fill="#BCA9A3" opacity="1.000000" stroke="none" 
	d="
M261.744049,365.743774 
	C268.909363,359.770477 277.270569,359.519745 283.298828,364.843201 
	C289.463654,370.287262 290.808441,378.982819 286.508453,385.596954 
	C282.121307,392.345154 273.692810,394.817993 266.326233,391.518280 
	C256.396088,387.070251 254.093567,374.943390 261.744049,365.743774 
z"/>
<path fill="#BBA9A2" opacity="1.000000" stroke="none" 
	d="
M288.930237,416.996552 
	C288.500702,421.529510 286.222168,424.677612 282.170898,424.628693 
	C279.483612,424.596252 275.851196,422.954498 274.439301,420.835510 
	C273.161652,418.917938 273.289703,414.592560 274.682007,412.761139 
	C276.221680,410.735840 279.927673,409.388824 282.645050,409.460419 
	C286.469666,409.561310 288.551361,412.688629 288.930237,416.996552 
z"/>
</svg>