<svg version="1.1" id="Layer_1" xmlns="http://www.w3.org/2000/svg" xmlns:xlink="http://www.w3.org/1999/xlink" x="0px" y="0px"
	 width="100%" viewBox="0 0 512 512" enable-background="new 0 0 512 512" xml:space="preserve">
<path fill="#000000" opacity="1.000000" stroke="none" 
	d="
M0.999997,403.000000 
	C1.000000,269.084076 1.000000,135.168121 1.000000,1.000000 
	C98.354622,1.000000 195.709457,1.000000 293.859039,1.289038 
	C287.312347,5.106053 280.750610,9.615842 274.937561,15.444525 
	C219.470490,71.060867 163.894073,126.568161 108.376137,182.133835 
	C107.011375,183.499756 105.992088,185.205017 104.753471,186.703934 
	C101.564148,190.563507 102.211906,194.532867 105.321388,197.722305 
	C114.365601,206.999039 123.702888,215.990051 133.050446,225.400665 
	C161.216980,253.742188 189.257584,281.776886 217.300354,309.809479 
	C221.784119,314.291626 226.744125,314.208069 231.393463,310.185577 
	C238.543182,303.999817 246.630981,300.250793 256.441223,299.848053 
	C264.615021,299.512543 271.788910,301.934723 278.970581,305.084229 
	C278.985229,305.051575 278.914276,305.043457 279.034851,305.347290 
	C279.771912,305.841156 280.388458,306.031189 281.131500,306.520081 
	C283.433289,308.543854 285.608582,310.268738 288.002441,312.359497 
	C290.889465,312.479736 293.557861,312.234070 296.388611,311.994751 
	C296.550964,312.001129 296.842102,311.856781 297.137329,311.900848 
	C297.650787,311.636200 297.869019,311.327454 298.053162,311.031799 
	C298.019073,311.044922 298.052277,311.109924 298.364014,310.980286 
	C345.803650,263.714478 392.935181,216.581955 440.056824,169.439514 
	C451.044952,158.446533 452.855621,138.842636 442.813324,127.564568 
	C431.797760,115.193413 419.716797,103.770943 407.968872,91.625130 
	C381.271210,64.755234 354.773285,38.125938 328.051880,11.722888 
	C324.701355,8.412281 320.137817,6.343098 316.212860,3.589601 
	C315.312714,2.958090 314.729248,1.875165 314.000000,0.999998 
	C380.285278,1.000000 446.570557,1.000000 513.000000,1.000000 
	C513.000000,135.021393 513.000000,269.042847 512.682739,403.784485 
	C506.245422,394.436523 499.733948,384.554230 489.998810,377.657593 
	C482.381195,372.261017 474.085754,367.821167 465.911499,362.641357 
	C443.443451,352.049591 419.824219,350.588562 396.237122,354.377655 
	C374.209351,357.916229 354.373291,367.405884 339.085938,384.476959 
	C328.043274,396.808044 321.792450,411.183319 320.897461,427.923615 
	C320.488953,435.565277 319.944214,443.434784 317.783478,450.702118 
	C312.006989,470.130585 299.338165,483.771912 280.603485,491.812347 
	C271.077881,495.900482 261.178162,496.635437 250.620895,496.095581 
	C236.236130,494.530914 224.183746,488.804565 213.901459,479.359528 
	C199.496613,466.127594 193.520370,449.101440 193.143372,430.101288 
	C192.897766,417.722931 189.494949,406.511658 183.444077,396.016815 
	C177.706436,386.065308 169.929901,377.910248 159.902252,371.569733 
	C157.852295,370.019104 156.017258,368.667206 154.048431,367.551361 
	C126.599945,351.995331 97.304970,349.171265 67.050934,356.116669 
	C40.025349,362.320923 18.842472,377.382568 3.934287,400.987915 
	C3.352588,401.908936 1.995680,402.340393 0.999997,403.000000 
M242.454514,334.939178 
	C245.059616,335.625549 247.652054,336.822205 250.272568,336.887238 
	C255.061340,337.006073 256.937653,334.596100 256.999146,329.328094 
	C257.065643,323.633057 255.229156,321.315735 250.401596,321.003052 
	C242.001480,320.458923 238.784714,325.541046 242.454514,334.939178 
M288.999237,456.570740 
	C288.469543,450.371033 286.622375,448.789398 280.159424,449.001556 
	C275.052307,449.169220 273.045746,451.347046 273.000977,456.770935 
	C272.952881,462.597595 274.904999,464.832062 280.189178,464.998840 
	C286.692444,465.204041 288.466980,463.678925 288.999237,456.570740 
M271.977997,430.238068 
	C275.308105,421.164276 271.418732,415.622040 262.637390,417.042419 
	C258.609009,417.693970 257.021332,420.320038 256.954071,424.313843 
	C256.884644,428.432434 257.550262,432.336212 262.265045,432.785095 
	C265.278687,433.072083 268.456818,431.630920 271.977997,430.238068 
M214.045944,432.954773 
	C215.701187,432.967407 217.364517,433.090149 219.009995,432.969574 
	C222.354767,432.724457 224.637512,430.859467 224.882736,427.561249 
	C225.139984,424.101227 225.957458,420.195984 221.877380,417.955811 
	C217.957840,415.803711 211.818848,416.866577 209.983017,420.055664 
	C207.431793,424.487488 208.855621,430.025787 214.045944,432.954773 
M248.569366,465.001038 
	C242.376633,465.531677 240.785995,467.391754 241.001434,473.850891 
	C241.172089,478.967560 243.332794,480.954987 248.772812,480.999176 
	C254.648071,481.046936 256.824921,479.151367 256.998688,473.836395 
	C257.210144,467.369476 255.632553,465.529175 248.569366,465.001038 
M256.713318,389.239197 
	C254.026810,384.855835 248.503952,383.445404 244.057709,385.977997 
	C240.034576,388.269623 240.811569,392.183899 241.135849,395.634766 
	C241.438705,398.857574 243.697830,400.682922 247.090134,401.012665 
	C254.975723,401.779175 257.084930,399.476288 256.713318,389.239197 
M274.048340,355.784607 
	C273.699402,357.846924 273.052368,359.910400 273.060425,361.971313 
	C273.080292,367.054321 275.363800,368.978485 280.898346,368.999207 
	C286.549835,369.020325 289.124390,367.165009 288.846069,362.211090 
	C288.689606,359.425995 287.777069,355.660492 285.820190,354.225952 
	C282.414062,351.729065 278.079163,352.232086 274.048340,355.784607 
z"/>
<path fill="#F8E868" opacity="1.000000" stroke="none" 
	d="
M313.531616,0.999998 
	C314.729248,1.875165 315.312714,2.958090 316.212860,3.589601 
	C320.137817,6.343098 324.701355,8.412281 328.051880,11.722888 
	C354.773285,38.125938 381.271210,64.755234 407.796570,91.919022 
	C404.801025,96.076309 402.067200,99.844841 398.851593,103.143784 
	C388.251709,114.018341 377.513489,124.759323 366.720276,135.442368 
	C365.500336,136.649826 363.593018,137.162827 361.848267,137.703232 
	C346.369354,121.965584 331.065155,106.504082 315.711578,91.091743 
	C311.559814,86.924110 307.682373,86.755272 304.023315,90.350807 
	C299.990356,94.313736 300.187744,97.615730 304.718048,102.299606 
	C309.906403,107.663841 315.085297,113.037254 320.058014,118.656242 
	C312.222046,126.592232 304.596375,134.278656 296.695038,141.779968 
	C288.655823,128.445084 277.497833,120.134666 262.047821,119.050537 
	C245.658447,117.900497 229.562286,119.787277 214.054184,125.718269 
	C205.263382,129.080261 203.384689,134.370560 209.803864,141.067764 
	C217.835114,149.446869 225.967102,157.927902 235.123154,164.978653 
	C245.845840,173.235779 257.576202,180.395370 271.568054,178.562790 
	C272.386322,184.089890 273.191406,189.527847 273.633820,195.028290 
	C258.083405,200.473953 242.907471,205.890945 227.700134,211.218292 
	C223.511566,212.685623 219.229294,213.885406 214.653564,215.108093 
	C212.797058,213.743256 211.167923,212.587677 209.773392,211.196869 
	C191.159836,192.632965 172.579941,174.035339 153.988098,155.449661 
	C152.929443,154.391373 151.972244,153.159531 150.739380,152.361343 
	C147.335556,150.157623 143.836334,150.050522 140.659073,152.805481 
	C137.429108,155.606155 137.015854,159.073166 139.181778,162.649780 
	C140.284973,164.471481 141.800262,166.086151 143.315659,167.608948 
	C155.756119,180.110199 168.262466,192.545883 180.699890,205.050156 
	C185.267487,209.642288 189.703476,214.365295 193.789642,219.081818 
	C173.228271,221.121063 153.076752,223.107101 132.925232,225.093124 
	C123.702888,215.990051 114.365601,206.999039 105.321388,197.722305 
	C102.211906,194.532867 101.564148,190.563507 104.753471,186.703934 
	C105.992088,185.205017 107.011375,183.499756 108.376137,182.133835 
	C163.894073,126.568161 219.470490,71.060867 274.937561,15.444525 
	C280.750610,9.615842 287.312347,5.106053 294.326904,1.289038 
	C300.354401,1.000000 306.708801,1.000000 313.531616,0.999998 
M292.469299,42.903477 
	C297.504974,48.662403 303.684967,50.615219 310.873657,47.816444 
	C316.979523,45.439255 320.379089,40.667385 320.951813,34.126137 
	C321.531769,27.502407 317.548187,20.988230 311.601837,18.403513 
	C304.930267,15.503556 297.900024,17.051477 292.969513,22.506012 
	C288.049072,27.949396 287.705017,34.869667 292.469299,42.903477 
M321.210785,55.047489 
	C320.469879,59.804882 322.225098,63.265175 326.879669,64.659035 
	C330.583954,65.768326 333.755646,64.447563 335.836609,61.118530 
	C338.142212,57.430164 336.938263,52.535576 333.296600,50.247387 
	C329.002136,47.549026 324.585999,49.060196 321.210785,55.047489 
z"/>
<path fill="#A1887F" opacity="1.000000" stroke="none" 
	d="
M251.042603,496.162659 
	C261.178162,496.635437 271.077881,495.900482 280.603485,491.812347 
	C299.338165,483.771912 312.006989,470.130585 317.783478,450.702118 
	C319.944214,443.434784 320.488953,435.565277 320.897461,427.923615 
	C321.792450,411.183319 328.043274,396.808044 339.085938,384.476959 
	C354.373291,367.405884 374.209351,357.916229 396.237122,354.377655 
	C419.824219,350.588562 443.443451,352.049591 465.622070,362.899750 
	C464.844330,367.308472 464.343048,371.182037 463.476868,374.972229 
	C460.725739,387.010925 457.838470,399.018494 454.593445,411.013550 
	C447.305725,410.646149 440.324890,409.379547 433.570862,410.136597 
	C414.569244,412.266510 400.563507,429.001740 401.003693,447.987885 
	C401.125916,453.259155 404.436218,456.901886 409.057312,456.850281 
	C413.463318,456.801086 416.698120,453.345673 416.999847,448.366150 
	C418.009277,431.707336 431.738739,421.812073 447.925812,426.391541 
	C441.299072,437.080200 435.372162,447.905640 428.016510,457.652893 
	C412.017303,478.854065 391.422119,494.541565 367.205414,505.509064 
	C362.337830,507.713501 357.728424,510.488220 353.000000,513.000000 
	C319.645782,513.000000 286.291534,513.000000 252.644928,512.706604 
	C259.060242,506.120758 258.736053,502.098938 251.042603,496.162659 
M369.325134,399.796631 
	C358.532806,408.239807 353.047119,419.331299 353.061462,433.014893 
	C353.066132,437.477783 356.913116,440.941864 361.117676,440.851288 
	C365.173279,440.763885 368.581635,437.485748 368.979553,433.273224 
	C369.135559,431.621429 369.115509,429.939240 369.423096,428.317841 
	C371.371979,418.044067 378.222473,411.945984 387.086029,407.439423 
	C392.682312,404.594025 394.060577,400.779175 391.616455,396.164856 
	C389.284119,391.761566 384.844513,390.555145 379.609070,393.298279 
	C376.238708,395.064240 373.137421,397.343719 369.325134,399.796631 
z"/>
<path fill="#A1887F" opacity="1.000000" stroke="none" 
	d="
M0.999997,403.468658 
	C1.995680,402.340393 3.352588,401.908936 3.934287,400.987915 
	C18.842472,377.382568 40.025349,362.320923 67.050934,356.116669 
	C97.304970,349.171265 126.599945,351.995331 154.048431,367.551361 
	C156.017258,368.667206 157.852295,370.019104 159.871277,371.989563 
	C159.491058,375.820282 159.005280,378.925385 158.484482,382.024597 
	C155.796432,398.021088 150.596054,413.231598 143.444595,427.721191 
	C140.946304,432.782990 137.217941,437.237640 133.978088,441.620911 
	C130.526718,436.603729 127.862625,431.126068 123.647430,427.406036 
	C104.902336,410.863129 75.006676,414.204224 62.278461,437.080170 
	C61.264198,438.903076 58.874401,440.701935 56.847424,441.098236 
	C44.780552,443.457458 37.594311,450.617249 34.032177,462.206116 
	C28.776268,479.305420 42.635818,497.698395 60.501556,496.993286 
	C65.237610,496.806396 68.550407,493.792175 68.846840,489.400146 
	C69.131203,485.186981 65.561378,481.461853 60.801163,481.004395 
	C52.985710,480.253326 48.337624,475.184845 49.171745,468.323090 
	C50.143734,460.327209 55.260201,456.259094 63.277088,457.107971 
	C69.564880,457.773773 71.555672,456.093811 74.198997,450.281403 
	C76.068275,446.171051 78.524025,441.963104 81.762489,438.904785 
	C93.768303,427.567017 114.877014,433.158386 119.652267,448.795471 
	C120.948563,453.040375 121.249115,457.589294 121.679672,462.073059 
	C120.746536,462.689331 120.088188,463.183441 119.541840,463.780151 
	C103.226181,481.599243 84.600082,496.243896 62.280285,505.942657 
	C57.696781,507.934387 53.418812,510.629272 49.000000,513.000000 
	C37.979103,513.000000 26.958210,513.000000 15.772320,512.716064 
	C11.105264,507.878784 6.609429,503.319275 2.073150,498.800323 
	C1.926869,498.654663 1.367040,498.924072 0.999998,499.000000 
	C1.000000,467.312439 1.000000,435.624878 0.999997,403.468658 
M97.886070,385.048950 
	C92.758545,385.378571 87.580101,385.361816 82.513573,386.106476 
	C70.143921,387.924469 58.753395,392.434082 48.754112,400.007507 
	C46.767399,401.512238 44.308640,404.083893 44.328728,406.141449 
	C44.357006,409.037750 45.867592,412.511078 47.894802,414.644348 
	C50.344215,417.221863 53.769073,416.098267 56.523682,413.992310 
	C68.050201,405.179871 81.249817,401.258301 95.573708,401.084656 
	C100.574013,401.024017 103.758804,398.935883 104.556252,394.295807 
	C105.307159,389.926544 103.244873,386.565521 97.886070,385.048950 
z"/>
<path fill="#9C7B70" opacity="1.000000" stroke="none" 
	d="
M134.051315,441.969574 
	C137.217941,437.237640 140.946304,432.782990 143.444595,427.721191 
	C150.596054,413.231598 155.796432,398.021088 158.484482,382.024597 
	C159.005280,378.925385 159.491058,375.820282 160.023987,372.298035 
	C169.929901,377.910248 177.706436,386.065308 183.444077,396.016815 
	C189.494949,406.511658 192.897766,417.722931 193.143372,430.101288 
	C193.520370,449.101440 199.496613,466.127594 213.901459,479.359528 
	C224.183746,488.804565 236.236130,494.530914 250.620895,496.095581 
	C258.736053,502.098938 259.060242,506.120758 252.176270,512.706604 
	C184.645767,513.000000 117.291542,513.000000 49.468658,513.000000 
	C53.418812,510.629272 57.696781,507.934387 62.280285,505.942657 
	C84.600082,496.243896 103.226181,481.599243 119.541840,463.780151 
	C120.088188,463.183441 120.746536,462.689331 121.991531,462.242249 
	C126.124474,464.921967 129.663559,465.719269 133.656998,463.201813 
	C137.514511,460.770020 137.348679,457.021790 136.858871,453.458252 
	C136.324936,449.573425 135.020096,445.794617 134.051315,441.969574 
z"/>
<path fill="#9C7B70" opacity="1.000000" stroke="none" 
	d="
M455.003815,411.038116 
	C457.838470,399.018494 460.725739,387.010925 463.476868,374.972229 
	C464.343048,371.182037 464.844330,367.308472 465.802063,363.214661 
	C474.085754,367.821167 482.381195,372.261017 489.998810,377.657593 
	C499.733948,384.554230 506.245422,394.436523 512.682739,404.252350 
	C513.000000,435.354218 513.000000,466.708466 512.690063,498.270508 
	C507.872314,502.929779 503.357117,507.373901 498.884369,511.860321 
	C498.713654,512.031616 498.952209,512.610840 499.000000,513.000000 
	C450.645782,513.000000 402.291534,513.000000 353.468658,513.000000 
	C357.728424,510.488220 362.337830,507.713501 367.205414,505.509064 
	C391.422119,494.541565 412.017303,478.854065 428.016510,457.652893 
	C435.372162,447.905640 441.299072,437.080200 448.284485,426.433777 
	C459.039551,429.781250 464.802429,436.777740 465.061127,448.047119 
	C465.171478,452.852753 468.585602,456.478973 472.849731,456.987671 
	C482.156097,458.097992 488.105743,464.872986 487.991180,474.229706 
	C487.884827,482.916351 482.584961,488.024353 472.643280,489.022125 
	C468.489136,489.439056 465.212311,492.896027 465.126556,496.951996 
	C465.035065,501.280914 467.941315,504.592590 472.436584,504.939087 
	C480.473816,505.558655 487.742188,503.159576 493.594238,497.791077 
	C510.406158,482.368439 506.246826,454.756683 485.834595,444.318542 
	C483.732269,443.243469 480.839325,441.645233 480.370605,439.774353 
	C476.845367,425.702637 468.053711,416.558746 455.003815,411.038116 
z"/>
<path fill="#000000" opacity="1.000000" stroke="none" 
	d="
M0.999998,499.474121 
	C1.367040,498.924072 1.926869,498.654663 2.073150,498.800323 
	C6.609429,503.319275 11.105264,507.878784 15.303661,512.716064 
	C10.409399,513.000000 5.818798,513.000000 1.000000,513.000000 
	C1.000000,508.651093 1.000000,504.299652 0.999998,499.474121 
z"/>
<path fill="#000000" opacity="1.000000" stroke="none" 
	d="
M499.474121,513.000000 
	C498.952209,512.610840 498.713654,512.031616 498.884369,511.860321 
	C503.357117,507.373901 507.872314,502.929779 512.690063,498.739197 
	C513.000000,503.590607 513.000000,508.181183 513.000000,513.000000 
	C508.651093,513.000000 504.299652,513.000000 499.474121,513.000000 
z"/>
<path fill="#F6E23D" opacity="1.000000" stroke="none" 
	d="
M362.004456,137.997849 
	C363.593018,137.162827 365.500336,136.649826 366.720276,135.442368 
	C377.513489,124.759323 388.251709,114.018341 398.851593,103.143784 
	C402.067200,99.844841 404.801025,96.076309 407.927795,92.228973 
	C419.716797,103.770943 431.797760,115.193413 442.813324,127.564568 
	C452.855621,138.842636 451.044952,158.446533 440.056824,169.439514 
	C392.935181,216.581955 345.803650,263.714478 298.343353,310.560547 
	C300.221436,304.086151 298.389801,299.564575 293.620941,294.884857 
	C268.483673,270.217407 243.691910,245.197571 218.825241,220.255173 
	C217.346786,218.772217 216.259384,216.899384 214.990021,215.207977 
	C219.229294,213.885406 223.511566,212.685623 227.700134,211.218292 
	C242.907471,205.890945 258.083405,200.473953 273.820007,195.335815 
	C277.925140,202.047531 281.481445,208.514236 285.130310,215.309555 
	C294.054962,224.583435 302.586334,233.857132 311.845703,242.335770 
	C316.494904,246.592957 322.978241,244.082718 324.824310,237.900955 
	C327.368164,229.382767 330.029785,220.829727 331.591736,212.103806 
	C334.333069,196.789291 333.852417,181.705475 325.105225,167.733917 
	C333.876343,161.286057 342.477905,155.135071 351.491333,148.978149 
	C359.786438,148.826141 362.023621,146.395569 362.004456,137.997849 
z"/>
<path fill="#F6E23D" opacity="1.000000" stroke="none" 
	d="
M133.050446,225.400665 
	C153.076752,223.107101 173.228271,221.121063 194.058319,219.243622 
	C222.117111,246.677521 249.506256,273.994019 276.841492,301.364349 
	C277.818848,302.342987 278.263184,303.853973 278.955902,305.116852 
	C271.788910,301.934723 264.615021,299.512543 256.441223,299.848053 
	C246.630981,300.250793 238.543182,303.999817 231.393463,310.185577 
	C226.744125,314.208069 221.784119,314.291626 217.300354,309.809479 
	C189.257584,281.776886 161.216980,253.742188 133.050446,225.400665 
z"/>
<path fill="#EED611" opacity="1.000000" stroke="none" 
	d="
M278.970581,305.084229 
	C278.263184,303.853973 277.818848,302.342987 276.841492,301.364349 
	C249.506256,273.994019 222.117111,246.677521 194.468170,219.190399 
	C189.703476,214.365295 185.267487,209.642288 180.699890,205.050156 
	C168.262466,192.545883 155.756119,180.110199 143.315659,167.608948 
	C141.800262,166.086151 140.284973,164.471481 139.181778,162.649780 
	C137.015854,159.073166 137.429108,155.606155 140.659073,152.805481 
	C143.836334,150.050522 147.335556,150.157623 150.739380,152.361343 
	C151.972244,153.159531 152.929443,154.391373 153.988098,155.449661 
	C172.579941,174.035339 191.159836,192.632965 209.773392,211.196869 
	C211.167923,212.587677 212.797058,213.743256 214.653564,215.108093 
	C216.259384,216.899384 217.346786,218.772217 218.825241,220.255173 
	C243.691910,245.197571 268.483673,270.217407 293.620941,294.884857 
	C298.389801,299.564575 300.221436,304.086151 298.031616,310.690186 
	C298.052277,311.109924 298.019073,311.044922 297.812531,311.116272 
	C297.351349,311.410645 297.096741,311.633728 296.842102,311.856781 
	C296.842102,311.856781 296.550964,312.001129 295.917480,311.981567 
	C292.783936,311.972534 290.283875,311.983093 287.783844,311.993652 
	C285.608582,310.268738 283.433289,308.543854 280.957153,306.248871 
	C280.075623,305.467010 279.494934,305.255249 278.914276,305.043457 
	C278.914276,305.043457 278.985229,305.051575 278.970581,305.084229 
z"/>
<path fill="#81C784" opacity="1.000000" stroke="none" 
	d="
M242.247528,334.575867 
	C238.784714,325.541046 242.001480,320.458923 250.401596,321.003052 
	C255.229156,321.315735 257.065643,323.633057 256.999146,329.328094 
	C256.937653,334.596100 255.061340,337.006073 250.272568,336.887238 
	C247.652054,336.822205 245.059616,335.625549 242.247528,334.575867 
z"/>
<path fill="#81C784" opacity="1.000000" stroke="none" 
	d="
M288.999207,456.998932 
	C288.466980,463.678925 286.692444,465.204041 280.189178,464.998840 
	C274.904999,464.832062 272.952881,462.597595 273.000977,456.770935 
	C273.045746,451.347046 275.052307,449.169220 280.159424,449.001556 
	C286.622375,448.789398 288.469543,450.371033 288.999207,456.998932 
z"/>
<path fill="#81C784" opacity="1.000000" stroke="none" 
	d="
M271.769592,430.601318 
	C268.456818,431.630920 265.278687,433.072083 262.265045,432.785095 
	C257.550262,432.336212 256.884644,428.432434 256.954071,424.313843 
	C257.021332,420.320038 258.609009,417.693970 262.637390,417.042419 
	C271.418732,415.622040 275.308105,421.164276 271.769592,430.601318 
z"/>
<path fill="#81C784" opacity="1.000000" stroke="none" 
	d="
M213.641266,432.832855 
	C208.855621,430.025787 207.431793,424.487488 209.983017,420.055664 
	C211.818848,416.866577 217.957840,415.803711 221.877380,417.955811 
	C225.957458,420.195984 225.139984,424.101227 224.882736,427.561249 
	C224.637512,430.859467 222.354767,432.724457 219.009995,432.969574 
	C217.364517,433.090149 215.701187,432.967407 213.641266,432.832855 
z"/>
<path fill="#81C784" opacity="1.000000" stroke="none" 
	d="
M248.997055,465.001038 
	C255.632553,465.529175 257.210144,467.369476 256.998688,473.836395 
	C256.824921,479.151367 254.648071,481.046936 248.772812,480.999176 
	C243.332794,480.954987 241.172089,478.967560 241.001434,473.850891 
	C240.785995,467.391754 242.376633,465.531677 248.997055,465.001038 
z"/>
<path fill="#81C784" opacity="1.000000" stroke="none" 
	d="
M256.834229,389.646820 
	C257.084930,399.476288 254.975723,401.779175 247.090134,401.012665 
	C243.697830,400.682922 241.438705,398.857574 241.135849,395.634766 
	C240.811569,392.183899 240.034576,388.269623 244.057709,385.977997 
	C248.503952,383.445404 254.026810,384.855835 256.834229,389.646820 
z"/>
<path fill="#81C784" opacity="1.000000" stroke="none" 
	d="
M274.257751,355.423370 
	C278.079163,352.232086 282.414062,351.729065 285.820190,354.225952 
	C287.777069,355.660492 288.689606,359.425995 288.846069,362.211090 
	C289.124390,367.165009 286.549835,369.020325 280.898346,368.999207 
	C275.363800,368.978485 273.080292,367.054321 273.060425,361.971313 
	C273.052368,359.910400 273.699402,357.846924 274.257751,355.423370 
z"/>
<path fill="#F6E23D" opacity="1.000000" stroke="none" 
	d="
M288.002441,312.359497 
	C290.283875,311.983093 292.783936,311.972534 295.755127,311.975189 
	C293.557861,312.234070 290.889465,312.479736 288.002441,312.359497 
z"/>
<path fill="#F6E23D" opacity="1.000000" stroke="none" 
	d="
M279.034851,305.347290 
	C279.494934,305.255249 280.075623,305.467010 280.830627,305.950012 
	C280.388458,306.031189 279.771912,305.841156 279.034851,305.347290 
z"/>
<path fill="#F6E23D" opacity="1.000000" stroke="none" 
	d="
M297.137329,311.900848 
	C297.096741,311.633728 297.351349,311.410645 297.846619,311.103149 
	C297.869019,311.327454 297.650787,311.636200 297.137329,311.900848 
z"/>
<path fill="#81C784" opacity="1.000000" stroke="none" 
	d="
M285.037720,214.980942 
	C281.481445,208.514236 277.925140,202.047531 274.182648,195.273315 
	C273.191406,189.527847 272.386322,184.089890 271.568054,178.562790 
	C257.576202,180.395370 245.845840,173.235779 235.123154,164.978653 
	C225.967102,157.927902 217.835114,149.446869 209.803864,141.067764 
	C203.384689,134.370560 205.263382,129.080261 214.054184,125.718269 
	C229.562286,119.787277 245.658447,117.900497 262.047821,119.050537 
	C277.497833,120.134666 288.655823,128.445084 296.756927,142.144318 
	C298.662506,148.415207 301.196960,153.110443 308.272949,153.412003 
	C313.602966,158.423233 318.814209,163.131927 324.011932,168.231049 
	C322.055511,173.165710 320.503998,177.929779 318.097839,182.213806 
	C310.219299,196.241074 299.022614,207.049332 285.037720,214.980942 
M222.306137,129.469910 
	C218.030472,131.345428 216.214752,134.635513 217.342285,139.132416 
	C218.242569,142.722977 220.874176,144.779861 224.602509,144.940170 
	C228.550629,145.109955 231.323822,143.159393 232.591171,139.417892 
	C234.563736,133.594315 230.189148,128.967590 222.306137,129.469910 
z"/>
<path fill="#EED60F" opacity="1.000000" stroke="none" 
	d="
M361.848267,137.703232 
	C362.023621,146.395569 359.786438,148.826141 351.320709,148.688904 
	C344.433716,142.232895 338.129181,136.060165 331.680084,129.603149 
	C327.779785,125.681480 324.024048,122.044067 320.268311,118.406670 
	C315.085297,113.037254 309.906403,107.663841 304.718048,102.299606 
	C300.187744,97.615730 299.990356,94.313736 304.023315,90.350807 
	C307.682373,86.755272 311.559814,86.924110 315.711578,91.091743 
	C331.065155,106.504082 346.369354,121.965584 361.848267,137.703232 
z"/>
<path fill="#FCF5BC" opacity="1.000000" stroke="none" 
	d="
M292.226318,42.622147 
	C287.705017,34.869667 288.049072,27.949396 292.969513,22.506012 
	C297.900024,17.051477 304.930267,15.503556 311.601837,18.403513 
	C317.548187,20.988230 321.531769,27.502407 320.951813,34.126137 
	C320.379089,40.667385 316.979523,45.439255 310.873657,47.816444 
	C303.684967,50.615219 297.504974,48.662403 292.226318,42.622147 
z"/>
<path fill="#6ABC6A" opacity="1.000000" stroke="none" 
	d="
M320.058014,118.656235 
	C324.024048,122.044067 327.779785,125.681480 331.411316,129.791901 
	C323.576141,137.879791 315.865143,145.494629 308.154175,153.109467 
	C301.196960,153.110443 298.662506,148.415207 297.032593,142.329422 
	C304.596375,134.278656 312.222046,126.592232 320.058014,118.656235 
z"/>
<path fill="#FCF4BA" opacity="1.000000" stroke="none" 
	d="
M321.336121,54.672394 
	C324.585999,49.060196 329.002136,47.549026 333.296600,50.247387 
	C336.938263,52.535576 338.142212,57.430164 335.836609,61.118530 
	C333.755646,64.447563 330.583954,65.768326 326.879669,64.659035 
	C322.225098,63.265175 320.469879,59.804882 321.336121,54.672394 
z"/>
<path fill="#876559" opacity="1.000000" stroke="none" 
	d="
M454.593445,411.013550 
	C468.053711,416.558746 476.845367,425.702637 480.370605,439.774353 
	C480.839325,441.645233 483.732269,443.243469 485.834595,444.318542 
	C506.246826,454.756683 510.406158,482.368439 493.594238,497.791077 
	C487.742188,503.159576 480.473816,505.558655 472.436584,504.939087 
	C467.941315,504.592590 465.035065,501.280914 465.126556,496.951996 
	C465.212311,492.896027 468.489136,489.439056 472.643280,489.022125 
	C482.584961,488.024353 487.884827,482.916351 487.991180,474.229706 
	C488.105743,464.872986 482.156097,458.097992 472.849731,456.987671 
	C468.585602,456.478973 465.171478,452.852753 465.061127,448.047119 
	C464.802429,436.777740 459.039551,429.781250 448.336487,426.081635 
	C431.738739,421.812073 418.009277,431.707336 416.999847,448.366150 
	C416.698120,453.345673 413.463318,456.801086 409.057312,456.850281 
	C404.436218,456.901886 401.125916,453.259155 401.003693,447.987885 
	C400.563507,429.001740 414.569244,412.266510 433.570862,410.136597 
	C440.324890,409.379547 447.305725,410.646149 454.593445,411.013550 
z"/>
<path fill="#87665A" opacity="1.000000" stroke="none" 
	d="
M369.620361,399.594849 
	C373.137421,397.343719 376.238708,395.064240 379.609070,393.298279 
	C384.844513,390.555145 389.284119,391.761566 391.616455,396.164856 
	C394.060577,400.779175 392.682312,404.594025 387.086029,407.439423 
	C378.222473,411.945984 371.371979,418.044067 369.423096,428.317841 
	C369.115509,429.939240 369.135559,431.621429 368.979553,433.273224 
	C368.581635,437.485748 365.173279,440.763885 361.117676,440.851288 
	C356.913116,440.941864 353.066132,437.477783 353.061462,433.014893 
	C353.047119,419.331299 358.532806,408.239807 369.620361,399.594849 
z"/>
<path fill="#87665A" opacity="1.000000" stroke="none" 
	d="
M133.978088,441.620911 
	C135.020096,445.794617 136.324936,449.573425 136.858871,453.458252 
	C137.348679,457.021790 137.514511,460.770020 133.656998,463.201813 
	C129.663559,465.719269 126.124474,464.921967 122.318535,462.167877 
	C121.249115,457.589294 120.948563,453.040375 119.652267,448.795471 
	C114.877014,433.158386 93.768303,427.567017 81.762489,438.904785 
	C78.524025,441.963104 76.068275,446.171051 74.198997,450.281403 
	C71.555672,456.093811 69.564880,457.773773 63.277088,457.107971 
	C55.260201,456.259094 50.143734,460.327209 49.171745,468.323090 
	C48.337624,475.184845 52.985710,480.253326 60.801163,481.004395 
	C65.561378,481.461853 69.131203,485.186981 68.846840,489.400146 
	C68.550407,493.792175 65.237610,496.806396 60.501556,496.993286 
	C42.635818,497.698395 28.776268,479.305420 34.032177,462.206116 
	C37.594311,450.617249 44.780552,443.457458 56.847424,441.098236 
	C58.874401,440.701935 61.264198,438.903076 62.278461,437.080170 
	C75.006676,414.204224 104.902336,410.863129 123.647430,427.406036 
	C127.862625,431.126068 130.526718,436.603729 133.978088,441.620911 
z"/>
<path fill="#87665A" opacity="1.000000" stroke="none" 
	d="
M98.306229,385.105286 
	C103.244873,386.565521 105.307159,389.926544 104.556252,394.295807 
	C103.758804,398.935883 100.574013,401.024017 95.573708,401.084656 
	C81.249817,401.258301 68.050201,405.179871 56.523682,413.992310 
	C53.769073,416.098267 50.344215,417.221863 47.894802,414.644348 
	C45.867592,412.511078 44.357006,409.037750 44.328728,406.141449 
	C44.308640,404.083893 46.767399,401.512238 48.754112,400.007507 
	C58.753395,392.434082 70.143921,387.924469 82.513573,386.106476 
	C87.580101,385.361816 92.758545,385.378571 98.306229,385.105286 
z"/>
<path fill="#67BB6A" opacity="1.000000" stroke="none" 
	d="
M285.130310,215.309555 
	C299.022614,207.049332 310.219299,196.241074 318.097839,182.213806 
	C320.503998,177.929779 322.055511,173.165710 324.238708,168.282501 
	C324.479034,167.943527 324.935730,168.030777 324.935730,168.030777 
	C333.852417,181.705475 334.333069,196.789291 331.591736,212.103806 
	C330.029785,220.829727 327.368164,229.382767 324.824310,237.900955 
	C322.978241,244.082718 316.494904,246.592957 311.845703,242.335770 
	C302.586334,233.857132 294.054962,224.583435 285.130310,215.309555 
z"/>
<path fill="#F7E867" opacity="1.000000" stroke="none" 
	d="
M325.105225,167.733917 
	C324.935730,168.030777 324.479034,167.943527 324.252258,167.892059 
	C318.814209,163.131927 313.602966,158.423233 308.272949,153.412003 
	C315.865143,145.494629 323.576141,137.879791 331.555908,130.076187 
	C338.129181,136.060165 344.433716,142.232895 350.908875,148.694839 
	C342.477905,155.135071 333.876343,161.286057 325.105225,167.733917 
z"/>
<path fill="#C5E5C6" opacity="1.000000" stroke="none" 
	d="
M222.682800,129.344223 
	C230.189148,128.967590 234.563736,133.594315 232.591171,139.417892 
	C231.323822,143.159393 228.550629,145.109955 224.602509,144.940170 
	C220.874176,144.779861 218.242569,142.722977 217.342285,139.132416 
	C216.214752,134.635513 218.030472,131.345428 222.682800,129.344223 
z"/>
</svg>